<mxfile host="65bd71144e">
    <diagram id="uxbSBN52eaXtob4WVcYJ" name="第 1 页">
        <mxGraphModel dx="1104" dy="633" grid="1" gridSize="10" guides="1" tooltips="1" connect="1" arrows="1" fold="1" page="1" pageScale="1" pageWidth="1654" pageHeight="2336" math="0" shadow="0">
            <root>
                <mxCell id="0"/>
                <mxCell id="1" parent="0"/>
                <mxCell id="2" value="&lt;div style=&quot;color: rgb(212 , 212 , 212) ; background-color: rgb(30 , 30 , 30) ; font-family: &amp;#34;consolas&amp;#34; , &amp;#34;courier new&amp;#34; , monospace ; font-weight: normal ; font-size: 16px ; line-height: 22px&quot;&gt;&lt;div style=&quot;font-family: &amp;#34;consolas&amp;#34; , &amp;#34;courier new&amp;#34; , monospace ; line-height: 22px&quot;&gt;&lt;div&gt;&lt;span style=&quot;color: #6a9955&quot;&gt;// 父类: 公共属性和方法&lt;/span&gt;&lt;/div&gt;&lt;div&gt;&lt;span style=&quot;color: #569cd6&quot;&gt;function&lt;/span&gt; &lt;span style=&quot;color: #4ec9b0&quot;&gt;Person&lt;/span&gt;() {&lt;/div&gt;&lt;div&gt;&amp;nbsp; &lt;span style=&quot;color: #569cd6&quot;&gt;this&lt;/span&gt;.&lt;span style=&quot;color: #9cdcfe&quot;&gt;name&lt;/span&gt; = &lt;span style=&quot;color: #ce9178&quot;&gt;&quot;why&quot;&lt;/span&gt;&lt;/div&gt;&lt;div&gt;&amp;nbsp; &lt;span style=&quot;color: #569cd6&quot;&gt;this&lt;/span&gt;.&lt;span style=&quot;color: #9cdcfe&quot;&gt;friends&lt;/span&gt; = []&lt;/div&gt;&lt;div&gt;}&lt;/div&gt;&lt;br&gt;&lt;br&gt;&lt;br&gt;&lt;div&gt;&lt;span style=&quot;color: #4ec9b0&quot;&gt;Person&lt;/span&gt;.&lt;span style=&quot;color: #9cdcfe&quot;&gt;prototype&lt;/span&gt;.&lt;span style=&quot;color: #dcdcaa&quot;&gt;eating&lt;/span&gt; = &lt;span style=&quot;color: #569cd6&quot;&gt;function&lt;/span&gt;() {&lt;/div&gt;&lt;div&gt;&amp;nbsp; &lt;span style=&quot;color: #9cdcfe&quot;&gt;console&lt;/span&gt;.&lt;span style=&quot;color: #dcdcaa&quot;&gt;log&lt;/span&gt;(&lt;span style=&quot;color: #569cd6&quot;&gt;this&lt;/span&gt;.&lt;span style=&quot;color: #9cdcfe&quot;&gt;name&lt;/span&gt; + &lt;span style=&quot;color: #ce9178&quot;&gt;&quot; eating~&quot;&lt;/span&gt;)&lt;/div&gt;&lt;div&gt;}&lt;/div&gt;&lt;br&gt;&lt;div&gt;&lt;span style=&quot;color: #6a9955&quot;&gt;// 子类: 特有属性和方法&lt;/span&gt;&lt;/div&gt;&lt;div&gt;&lt;span style=&quot;color: #569cd6&quot;&gt;function&lt;/span&gt; &lt;span style=&quot;color: #4ec9b0&quot;&gt;Student&lt;/span&gt;() {&lt;/div&gt;&lt;div&gt;&amp;nbsp; &lt;span style=&quot;color: #569cd6&quot;&gt;this&lt;/span&gt;.&lt;span style=&quot;color: #9cdcfe&quot;&gt;sno&lt;/span&gt; = &lt;span style=&quot;color: #b5cea8&quot;&gt;111&lt;/span&gt;&lt;/div&gt;&lt;div&gt;}&lt;/div&gt;&lt;br&gt;&lt;div&gt;&lt;span style=&quot;color: #569cd6&quot;&gt;var&lt;/span&gt; &lt;span style=&quot;color: #9cdcfe&quot;&gt;p&lt;/span&gt; = &lt;span style=&quot;color: #569cd6&quot;&gt;new&lt;/span&gt; &lt;span style=&quot;color: #4ec9b0&quot;&gt;Person&lt;/span&gt;()&lt;/div&gt;&lt;div&gt;&lt;span style=&quot;color: #4ec9b0&quot;&gt;Student&lt;/span&gt;.&lt;span style=&quot;color: #9cdcfe&quot;&gt;prototype&lt;/span&gt; = &lt;span style=&quot;color: #9cdcfe&quot;&gt;p&lt;/span&gt;&lt;/div&gt;&lt;br&gt;&lt;div&gt;&lt;span style=&quot;color: #4ec9b0&quot;&gt;Student&lt;/span&gt;.&lt;span style=&quot;color: #9cdcfe&quot;&gt;prototype&lt;/span&gt;.&lt;span style=&quot;color: #dcdcaa&quot;&gt;studying&lt;/span&gt; = &lt;span style=&quot;color: #569cd6&quot;&gt;function&lt;/span&gt;() {&lt;/div&gt;&lt;div&gt;&amp;nbsp; &lt;span style=&quot;color: #9cdcfe&quot;&gt;console&lt;/span&gt;.&lt;span style=&quot;color: #dcdcaa&quot;&gt;log&lt;/span&gt;(&lt;span style=&quot;color: #569cd6&quot;&gt;this&lt;/span&gt;.&lt;span style=&quot;color: #9cdcfe&quot;&gt;name&lt;/span&gt; + &lt;span style=&quot;color: #ce9178&quot;&gt;&quot; studying~&quot;&lt;/span&gt;)&lt;/div&gt;&lt;div&gt;}&lt;/div&gt;&lt;br&gt;&lt;br&gt;&lt;div&gt;&lt;span style=&quot;color: #6a9955&quot;&gt;// name/sno&lt;/span&gt;&lt;/div&gt;&lt;div&gt;&lt;span style=&quot;color: #569cd6&quot;&gt;var&lt;/span&gt; &lt;span style=&quot;color: #9cdcfe&quot;&gt;stu&lt;/span&gt; = &lt;span style=&quot;color: #569cd6&quot;&gt;new&lt;/span&gt; &lt;span style=&quot;color: #4ec9b0&quot;&gt;Student&lt;/span&gt;()&lt;/div&gt;&lt;br&gt;&lt;div&gt;&lt;span style=&quot;color: #9cdcfe&quot;&gt;console&lt;/span&gt;.&lt;span style=&quot;color: #dcdcaa&quot;&gt;log&lt;/span&gt;(&lt;span style=&quot;color: #9cdcfe&quot;&gt;stu&lt;/span&gt;.&lt;span style=&quot;color: #9cdcfe&quot;&gt;name&lt;/span&gt;)&lt;/div&gt;&lt;div&gt;&lt;span style=&quot;color: #9cdcfe&quot;&gt;stu&lt;/span&gt;.&lt;span style=&quot;color: #dcdcaa&quot;&gt;eating&lt;/span&gt;()&lt;/div&gt;&lt;br&gt;&lt;div&gt;&lt;span style=&quot;color: #9cdcfe&quot;&gt;stu&lt;/span&gt;.&lt;span style=&quot;color: #dcdcaa&quot;&gt;studying&lt;/span&gt;()&lt;/div&gt;&lt;/div&gt;&lt;/div&gt;" style="text;whiteSpace=wrap;html=1;" vertex="1" parent="1">
                    <mxGeometry x="20" y="10" width="390" height="610" as="geometry"/>
                </mxCell>
                <mxCell id="3" value="" style="shape=image;verticalLabelPosition=bottom;labelBackgroundColor=#ffffff;verticalAlign=top;aspect=fixed;imageAspect=0;image=data:image/png,iVBORw0KGgoAAAANSUhEUgAAAggAAAGLCAYAAACiMGqIAAAAAXNSR0IArs4c6QAAIABJREFUeF7sXQWcVNUX/qY2qKW7Q6S7G5RUSQsbCZGUsuhSAZFSEERUBBWw64+EYIFILkssCyy17NK9NfX/nXPvfe/N7OzOgGDxxt+6y8ybF+fee853vhPX4vV4vTBfpgRMCZgSMCVgSsCUgCkBgwQsJkAw54MpAVMCpgRMCZgSMCXgLwETIJhzwpSAKQFTAqYETAmYEsggARMgmJPClIApAVMCpgRMCZgSMAGCOQdMCZgSMCVgSsCUgCmB4BIwGYTgMjKPMCVgSsCUgCkBUwK3nQRMgHDbDbn5wKYETAmYEjAlYEoguARMgBBcRuYRpgRMCZgSMCVgSuC2k4AJEG67ITcf2JSAKQFTAqYETAkEl4AJEILLyDzClIApAVMCpgRMCdx2EjABwm035OYDmxIwJWBKwJSAKYHgEjABQnAZmUeYEjAlYErAlIApgdtOAiZAuO2G3HxgUwKmBEwJmBIwJRBcAiZACC4j8whTAqYETAmYEjAlcNtJwAQIt92Qmw9sSsCUgCkBUwKmBIJLwAQIwWVkHmFKwJSAKQFTAqYEbjsJmADhthty84FNCZgSMCVgSsCUQHAJmAAhuIzMI0wJmBIwJWBKwJTAbScBEyDcdkNuPrApAVMCpgRMCZgSCC4BEyAEl5F5hCkBUwKmBEwJmBK47SRgAoTbbsjNBzYlYErAlIApAVMCwSVgAoTgMjKPMCVgSsCUgCkBUwK3nQRMgHDbDbn5wKYETAmYEjAlYEoguARMgBBcRuYRpgRMCZgSMCVgSuC2k4AJEG67ITcf2JSAKQFTAqYETAkEl4AJEILLyDzClIApAVMCpgRMCdx2EjABwm035OYDmxIwJWBKwJSAKYHgEjABQnAZmUeYEjAlYErAlIApgdtOAjcHIFhuO7mZD3y7S8B7uwvgv/T8oQ7mrVR0/4R7oDE170Of2bdSFrfy3Ddvbf55gHAr18zNe07zTKYE/joJhLr2/7o7+odeKVRBWYBbpmfUPQS7F7qBW3YTBsP8b7kP6y2cU//1MaHnk8/ozWq81Zy7lfMu62H8cwCB7ls939/3DLdwopqnNiUQmgRoGfgsgWB6PrTT/keP8gIWDwBPEIeVgEFmSjKIwglJLxkNUWYDZjxRIKN4MxRfqPeRlcEIcB/GSZlhgvpPLePz09hk9pIn8qqxMR6XiSzodKHiCTKYfBqDEc1wK39yTILKgi5/PfdBDxfo2TObGySQrJ5PPbAFIDnzuW/GPLt+dXLjAEHdb0gL8fpJm+t/FPMbpgT+PgkonWOChFDGgBSkO4CS9FeCRoBgFTrV55BMlGZI4MzfAGRlFOmZ6FrSEGQ4f4jKO+BhBnDgVYYjgAyVM2YhOQQyzuoe/b4bkizoO/L5LcpwheLZyjHxueSflYW/PLKQhTKcJJMMr0wAUyjTUxlvDaiEMDe8cm4YnWa+lv99eORboYAEOdYaQAhRtiE9Y2gH/XmAENp1+KhQMNN1nM481JTAP0oCGXB+yMr5H/UYf8HNSICgDKKiWYkt8FH2BoBACpiO0zw7pXwNSpO+r9mXYMIngEDHkMKWx/L9GF7aqUn5G5W19DC1Q/0MFLMehpf2fIHsmNKKHsAjjUdmtDPLxuCt0nU8CugE8DLV50FHVN4DyYF+vATe/F7aI0mvloEK/ZDMjM+byX2wATCMSWZgia8vjaf/ePgPjgJLVil/H7llARqypPXpIsqIy/mhwFOwucEAluRj9JqND6rGis4fZKz5WvRdm4FBMAFC0KlsHmBK4J8qARMghDoyAiB43S5YSJmSgie96vHA43LDqxlUK2xWGywWmwAONvodUEuLN4NhAl+rLRS5NUS3hZV/iAxCIAo7M93Oz6rASpAH4EMtQl6ZW3D9E3UfociFjDGfNgR5KEPIoClTJJH5ZMjKztF98OfBvHZ5CI2JPyDTjKsRpIU6Nw0y0NiUIN/NMgxgeFjjWDP4yYIxIiHQvPdhD/6tAMHoAWQhS+PU05QAg66//sGvZ7qYx5oSCCwBX2UqAILyYlVincGbCEVR/+dFrQwi5R9IBal5/tKi+Xhg0gix7OTnRm82UBpUyHI2sAgB5K6fhkdVKGvtTXUT16G7jLZCXk+8JT3VQJ5tQEBkPJGaZ/qZ1KPwO9cjiyBARZ/J8vpsGKVcNPmFKI8sZSGZIv+bz3BqP0jOoRf9foyPfn2ykIJTDFMWc0OfF8aby+xvyTBorJXf4Kiv+cwxBYAyuB9/iaa4CSEGL+BxC3QdMBaknkMpU69h2JV4b2Cx/SXiMS9iSiCYBPw1sJFeNH5XKdVg5/uvfy70gNfrwYmDcdi/by8upibDDgscNhtsVissGmUs7Jvb7WV2gZwK8W1lDIXSNEqc3iFSIIOuDWgrJdVr8JrVucjW+JzXaxW+HL/pq6+8IWTgGb+mNKF6CqsECMymqKsGnC7+RsL4/CQHHSRoRxJJkiX4MehnThwNpKcFcSHhmYDBXgGadHnoMlH3kdVMVthCk7fmK3t4RHlUjSEGIzbzASP+tkPNB+0sGoRR9+uPMzJiKAViJXCTY2KcGzpcFSEX5pa0QfYFCEZ5WC0WWK0eWGSSLkuRIkWSHKJT2Lzix+0GipUpixr16v9tiYo3DhCME9ntAjwuARB4NmYyBBxDNFBHKkNZMQg+TIKKtQWjmgKpgqymJh0fBFZrmuF6jw0FshtlEwze36pj/cfo77qPf8vz+c9n//kl5acpeKlKtYQyQaHrGcn/dRCQxfOxKCne7kXcju3YHxODwuVLIwxWOMgs+LGJrKotUtlLgOBhY6EbR2W4jOCAL+PjienAQtydqKTw+tG8RmCgTKXSRFZpFMX3gxtE46rSTb/VYGyFIbR6DUbRT3SBVqa/AVbyUWBJyYOAkm64fMGq7zkEkyJkoevbQLJQwEOc29cQKrkEAgj+z6EDPRpzBT5IFgS3SB4Z9X5mWsp4Pf7bb36o0VLyCBQWySiP0OaGkofNZ25kPj+sFCGyiHG3yNwXen43gQT68Xhh9XjgcHlx8GA8cuTPjzad7vl3AgSKIV48cwpH4w/BlZ4GZ2oabISQIBCVHt7zsldA6EmsLV/D4JHUmo5QBSYXk8QwYf+yYg+j7xCKMtfvPJSjzWP+3RKQyxseC/l+wj9TBsBttfBCZ0NntSItLR3FipVA2TvugM0edh31Xv9uGWV69xpA8ODg9h04EheL2q2aI9xrgcMjFKWvXWeNKt6TeoPMB/0tjhP+txoEm5cUr0je00OXxuPVscIgkpLm3wYPzjie6tTk3RPL4ftSY+/r2RPTQddWWkEHB9LLNz4jG0S3DP+7fcKtAcFBoHPzbZEcdBaBxeXxsj5mLORz4wGAGIEULeYudG4ggCA+8MImdbyv5lOgzZez0OShxkbT6nLsjGyNx60b0ACOnA/o4oRVwWRostbAgZKHfHAyvGyb9JxUaYwEC+UjIGK4aCzoUUkuGWWh5gjJgr6acW7oY2KUvhgheU7OtxCwzCWvQbDE7vIiwgPs3LkbaRYrmrVr9+8ECHC7cHj/Hmz7fTOKFi4Em0XScGoQlOGXA2m322C12ohgFEPPoSYvPJS9K70DRQwRIhNUoVy8cpyD+XL/UbVqPtbfLgFdNREwcMMiUb/u67AnJ1wEeCwWeLweHD92AmXKVUCDJk1hNwGCZFIE8I/buh3HDx1E7btbsUIMcwMuLlbQZW0hWRrcBGF4dQOnjKJiDFSev9EoKhbC10zSu4pSlwZRkTx+qXps9pQ37qOHjDS2L0hgA20gMXwYBHkdcc8eNu1amEHHOgrzZDnzjeCDLBmdja8tQYEyiD4umZSh74l1WQijKACOAGa+qYvK+dM5FP1MkhMJ6soFZBDY2EoGQRpmdWb9OaVZNxYLGB7E97w6YFJhJzWWvvIwgExN6kIeBBQEKaHLwzc8QqyHYFP8Z4AO2NQnCtL6JigSKCaAQL9J7hGwIswDbNuyDdfcXrTs2OHfCxBid+9EwpEjqFenNux2O9yEiGRMxeX1MGWijL/VRvFFAglZm3lejF47LF7KWvZoVUh/u40wb+C2lIA+WwnYCuNEv90WFzwWDzySKlRqQDMmXmDnjl2wh4WjYZNmsDsUg3Abw1xlyb1uHNy6DccPHULttq0FQPAIRcmMIjkM5DzQb9IXPqyjPgaKZzQqfi0ZX5utARgEdlKE82HMJvf3mtUp/AGCeD9rBsG4WIyGS8WcBZnigdWizLq/GfQNhgqnysiMCOstzI5RJtKISq9ZiVy/HwmwfEryjPkHRtbWqzEJwksXlpl++7YH0s2jCv9oxj3DPYtPFCwyhhiIqdG8bJ+cDD3XJGslpIMCAvLai86rgSbj+pOsRwYGQXj5/pUGAmzqgEnMO3oSlcgqEVWmIShiMmSOhWTHFUAQoTMwmxbmdDODkOzxokX7DoaGYX+tCv5zOQgeN2L37EZifDwa1qsDe5gdLkmZ8IJyC+PO650enUuWLMGrFljh2hkNuyxOyQkpr+I2Vq5/7dwwryYl4ONtsEKwweolktUt47YC4DtJnch0A/ZYPF5s37EDdns46hODYAIEQ/agBwe3bsGJwwdR667WCPdYBECwinYAzDJKmlGEFAy63kClC8Ami8GkAVBtDdRXhBccyEtUBlk3zMpjFgZMpwGMAEQxA2QiGcxo3R6V4cuYhSXOJ42RYirY8xTGWHjOfveRRbaUMXziJieMKRNBq6vbVmBCyUP1LLDYbOy4aXF3FRPnc1jg4XwyAQaI3WU2QeUJ0Pvqcj6FOjpAIPZM3IOQFI9jppVqhrAIGVp1cmZWhPyVvHVeicy2CBmwZy8ZJ75PtjUKWBkYBC6jlSPAj6kbdHG//qs849zQAA+tc3m4mhdK5pK/MQA3Me7q7BTGMUAYPiUBBM5BkPOCcnEcThd274oRAKHdvxUgeD04EBODxPhDaFCvHhzhYXB7PdwjjWkofmLKQBYrlzEnhSH8x8NgilSNg0pVIS/Nm6Ee1QQJ/2XrLRa6UR38lU8b/LoWr1UCBKlivcK7cVu9PPdpqbOi8Hiwc+dO2BzhqNe4CexhxCBQbfNt/NKsNgGEzUg8HIeabdrA7rXB4bUIkCWtsxoJnxGRhkYZN6PPrdRKYHUf4F0Oawa8ihggdpGt8LhccNjtsFqtHJOmr5CBpXlqdYQhPTUtw4DyY2ZRn+/r7uggwXgiXgMaGvHVefw0kllxpjtx6dJlpKaJ+8iWLRtSklNgs9tQqGBBfP7556BjmjVriuLFisNmtyMlNQ0pKSk4duwY7rjjDr5Vu52ez4vNmzfjzNkzaN2qFcLCwjgszENiAZKTr+H8ufOwWqzInj0b3C4Xy8XldsPtcsNmd+Dq1atIT3eiXPlyiIyIFCEKjwdOpxMRERF8DbdbVKWQLJNOn8amTZtwZ8U7cGfFinC7XXA47FpTLJvNJipYSO5eLxISTuCXX35FlSqVUbVKVZGHIOl5Ou/69T8iITERLZo1Q/GSJRlIUHUMh7Ll3BJDI2QaKKmSZqF+iK9OUCyCOlegKhEdcOjjpuChuqqCMXQ+wbpb2MGwW7xwpKdj367dSPZa0LRte1klGMTuBVdd1614/gSDIOJnCiDUr1sPYWHhcFKzE2PZhqSJeDHJrlC+CSFZ3/MteGbJYKiVd90yu8EvkNETaPx2fqmEpaxkEAwg3FrwEKxqRty5HnHUm8WIeU2smchKp/LfnbsIIIShbqPGsIdHmEmKGkDw4vC235B4OBY1Wt8Nm9cOm9eKdC22rB0op4r6t/SzDcuIRkwDBxkS8sTXlceXYd75AFGDtlHWgXIg3G4u63O5XPB43PxDTk/OXLngpjCI0yVdXYMxMBigoOtdzpsMxxEIUaDET29YLFYO1dJ/KakpWPrhcnz6xeew2+zIEREBp9OFwkUKY8L4CXj22f6Ijo5G127d8OILLyIqdxQb8u++/Qaz3piFvn374N577wPliLncTkydOhV//PEHln6wFGHhYXxOgXcsOJmYiJdfehFnL15CzmzZkE61eG5qeuWGw+Fgliw5OQVhYQ588MFSBgQvvPA8nC4XXE4n7HYHA5v8efOhavVqbLzpe6+/PhNPPPEE7r+/B9/H5cuX+Tc9v9vt5vB1eFg4D/Svv/6KUSNHoU/fPnj8scdgtRGbR/dn5c/Gjh2LA/HxaNG0GSqUr8DXeOaZfihYsJA2dpkzGgZcpw1nRitkfCejRje+4/spczwyjKIDBC2oArcNsFnccKSn4uCuaCR7LGhIDALn7mVtO/jTm2ww/yRA8OLAnhgkHj4EAgiOMAecbrdIKiKqyg+02xggiDKfv/WlMnv97uNmNW+iicpjJUs6mWGjTFWXiye6kRK7UTncjHPc6LX/zPeU5xUYJwlPgAnXLNqs/hMAgm6SDN3kZGMVKlsj6pgMy65dO2EPi0CdRo1gMwGCgcklgPArTh3ah+qt28HidcDqtcIpnQsj5UvGmSGZmht+yYRqPhpBgv8czQwgBJtL5B2nO9Px04af8PbbC5CWns6GskjhwmjZqiU63XsvHDa7YBO4I6QhWS0TZyAwAA5ghCiHgL3njKCVrkWGm4zt1StX8frMmVj28ccoVKAAzpw+jRIlSrBh/e7b7/DU071w9eoVnDhxAv2f6c+GmAw3GeHJU6Zgw8YN6Pt0b9z/wAP8/vhx47D6hx+w6bffkJ6exoaXV6XVitOnT+Pee+9F8xbNUblSZVy5ehVff/UVUpKT0fORR5A9WzY+NneePOjapQvsDgdeeukl7Nu/H0ePHOH7OnPmDLp06cJswDdff43+/fvjzXnzMGToUHTr1g1xBw5g2vRpIObAZrPzNe+6qw2efvppZjS2bNmC3r174+WXX0aPHgQoHJL52IQ333oLx48dxx0VK+LypUuIjtmNli1aYuSIEShYqCAiwiJAuXAK8ATSZcqJux6MF1gnZjR0HFKSOTaGAIisbbDCZSNQSAAhBUd2RiPFY0E9CRBUxkzAe1Z8yD8KIIAAwl4kHT6IBnXr8WRwetwcmaVELpV0oR7onwIQiGqixZOSkoqTJ0+iYMGCyJcvrxZvMw7AjXj8GiVHSZpeL9LS0hAeFoaLFy/i/PnzKFKkKCIiI/SyzxuwuKTYaPE4nem8aAh8hEdGIi0lVVB+LidSU1ORPXv2Gzj7zf0K3U9qahqSkhL5XonajIiIROHChf2AvIUVHrXXvXzlMtOCSUmnGPXnyJEDUbmiWG5MNVJzrlvyCo1BCAgQtGVOZWtEo7qwa9cuOMIjUbthQxMgCOwnXwog7EWN1u0BrwMUuiGAIHScrxdGlLb+Td1RMtK9xsz9DADhOuYKX18mSdKftIa/+PxzjBk7Fs2bN0edOnXwy88/I2bvHgx4dgAef+JxeN0eDrGK8IMwAkSp08sRFqatUaa7bTZem2rd0vXYk7ZT3pVsOa0aQ/E6p8Ru4UlHREbi0sWLfA36PoUTiNJ/bfp0LFmyBDabFcnXklG4UGFEReXCl199hYcffhj16zfApcsXmfIf9tww5MmTB2lpqbhy5QreXDAfcftjMe/NNxGVKxdefPFFfPXV19izJwbp6ekytCJCKqdOnUbnzvfhkUcewbETx5Fw8iT27NmLiIhwVKlSFdkiIlCocGEMGjgQuaOiWN8dPXqU72Pv3r2oVr0afvvtN0yeOAmbf/8d8+e/henTZ2DSxIkY9fzz6N6tG8tm5htvoGSJEkhJTcW8eXNRuXIV1Ktbl4HA8ePH8fnXX6Ft6zaoVq0aHnn0UaxevRpvL1qI+PgjqFyxIgoUKMD6dl/sfpQrVx7FSxTHnXdUxFNPPIl8BfJrOQhKvwdyDm9E9webZlyVJwGCnpUiam8IADglQLCnJ+Pojl1I9dpQ1wQIwcR68z4XZZVerFmzBkveew85c+bAIz17onnzFiKmpxJYpH7SJomWjBT8XlTpJgEQMnRFChfhBU3e5OzZc5hyq1Sp8g3xQcaaYlIahO5PnDiOuXPn4WRSElzp6ShSpAhKlizJHkGRwoWC3/CfOIITf4JUpZCC/fHHDVi+bBm6dOmMo0ePITZ2P5577jmUKlWalZp6kbzTnU4sXboU69auRd68+XDuwnnYrVYMHjwE1atXZ+qRTcgtCdeEDhD0bG0xWUQ2My1zAggEQo0AwWQQfO3+rQMIfsQlXzbUUTUuBVqzqnsjAYTRo0dj6NCheLp3b47TPz9qFMqULYs333wThw8fxs6dO3D8+AkULVIEDRs2RNFixXDo0CHs2L4dVatVw84dO9CoUSN2SNasWYvTZ04zSO7QoQPy5M6Ns+fOYe2aNTh67BjCHA7UqVsXDRo1QpjdziGCXTt38r/XrF7NTgd93qZ1a2YtJk+ehJUrVyLx9GlkC4/g3IPzF86jSdOm2LF9Bxtr0gmXrlzBY48+ygAhNjYW2SIj2duvWPFOzgGgc40YPhyff/EF589ERkYKZkSGYijEcN999+Hhhx7CF199hQL587O3ruL727dtY6dk8Tvv8LN9+eWX+Oyzz7B7TwzD5zx5cuPkiQTUqV2bww4kE5IfgS/y8olBIAdi9JgxiIqKQquWLTF4yBA0btQI586fR65cuXDt6lVs/PVX1KpeDaVLl8Hol0dj6YdLsW3bNmzfsR3t27ZjkPn75s0oVKgwataqgZiYPRzKmDZtGkqXKuWjP0iPaPkJBr1yK/SLP0CgG7GKjD3OXBIAwQUBEKKR6rWaAOFP2Kfr+ionkrnduHL5Cl599VWsXb8ekyaMR+PGTZA9R3aBlKm5CJVjGowPGTjyZkN5kUKh+B95D7SoaXFQTI+8gP379zE91q5dexQtWlQm3oSalyCMEBkdI+oND4/AnpgY9O3XDxevXEaPbt1w9swZfrYH7r8f48aODeW2b+gYTjZyuWGl/hZZGGvyIkaOHIWEkwl468232CsZNHgQOnfujJ4P92Slwf0xJJWamJiI54YNx5Gj8Xjx+Rfh8rgxZcoUVmxP93paY0WClcve0EOFaEp8MtINMXARXggEEBqbDAKjKDUqNw8gaOdUVQx+/MONAgSRGCfSGGkdv/TySxjx3DA8+dRT2LhxI8aOG8eGjqjukaNGcXy+WpUqDAqKFy+OV155BZ99/jnmzJuLindURIlixdChY0es//FHrF+3Dvfccw8byO7du6NxkyYY/fLLOHAwDnVq18HZc2dx6PBhDHx2AHo+/DBWrVqF6dOnc0IhGcm9+/YhMkd2LH57IcqWK4eJEyZg0+bNSExK4oTAUiVLsif+2GOP4e2FCxkIjBo1CufOn0ON6jUQvXs3/ti6lY1op06d8MKLL3JIzJmejuHDh+OjTz7Gt998i4YNGjBgF7toWjip8Z5OnfDoo48yQKDcg2LFi2sAghgFAg3vvPMO8hcogKTERByOj8eAAQPw0EMPsY79/vvvMXHiRGzduhVvL1iAefPmYdKkSRg5ciTLhJjQD5cuxYSJE1G9WjVmARYteBtr161DmzZtcPXKFQwYMhjjx4xF27vvRr78+XH56lXEHzyIx598AiWLl2AAdeToUeTNmxf58+dH0qlTKF2qJOc6EEAw5kL9tQCBchBkmEHjymyA18ahdyfvS+aGLf0ajmkAoT3nIJghhhvT6Nf1rStXrvIEXbDobZw6fRrDhwxFw0aNmAqmhJaaNWtw4tFXX37JnkD9evVxIiGBabE6dWojNvYAYg8cQONGDVGjRg02/GQAyfBfvHgJJUuWYDpv3759eO/997Fx4waMHDGSaUkyaL/+tgn33NMJxYoWY3aBQMT+ffs5O7hs2XKoV68e8ubLi507duLUqSSULFmKqTkCBnfeWQlVqlThxCEGCy6RGBQffxi9ej2NsuXKMs148dJldOnaFUmJJxG7bx9nOJNCI2qOaMnmzZuhdJkyrAy2bt2GS5cucgJPzJ49HDck73779h28sNp3aM/eDRn1uLg4bNu2HWfPnkWpUqVQu3YtFChQkOlFUqDkMRASP3bsOD9rkyZN+TiSbd++ffHccyLGmCNnTowbNw7ffvcd3l/yHsqVK8dyFArZwzIe8txQzmh+ZepUZMuWHZ3uu5c9oInjxiF37jwMkozMw3VNgiwPDs3XVMVKTEcrtol6qBM48CqAQDkIKsRgAoRbxSBo7JP842YxCAwsJItAhn7kC8+jaaNGKFumLLZs3cqgmLxeWhvDR4xA27ZtcX+PHhy//+zzz7Bo4SLE7I7BxCmT0Pauu/HKq6+yQR06fDj27N7NcXdaS2RgY/fHYtSLz6Nv7z7o/fTTHHfv178/hz4XL3oHP5IeGTkSgwYO4rj7woUL8dkXn2PJ4nfRokUL9vr37NnDDMEFDmMWYUNIHnP7jp3g9bg5p4AcFwrXEf1OHjx5540aNkTfPn0QFh7OFQr3P3A/G+UB/Z/FhPHj2djSS1U4UHjh+eefx8pVq1CsaFFUrVoVuXLn5jyEX3/5hYEJAQRK4qTQJ7GBH3/8MRYvXowtW37H++9/gLfeegvnzp3DgvnzUaxYMXz19deYPm0a2tx1F4dk0tPSGNB88803aNWqFUaMGMEyLlG8OAOqQUOG4JXJk5nNoPui3JD4+Hi+7poffsCZc+dQu1Yt3NWmDX7++Wds3bkDQwcOQu8+fVifKfDHy9evakrLQbgFDKVIJDT2nCDmkZxPAQAoBwGcg3BNYxDqtTMBws3T70HORAvjnXcW4+OVn+DChQvo1KEj2rfvgFdfeYXRdp8+fZCQkICu3bvh7rZtMXbMWKxbswbjJ01E1UqVcO1aMg4diWeUPO21aUzlvbNoEb7+9huULVOGKUZK4iHkumz5cpw6fYopr2YtmrMdIa9iwfwFqFqjOi+Od5e8i1LFS7KRpdKcJo0bY8zo0fj440+waPE7KF+uHJcQHY2PR4GCBVnpFChYgBWXx+3hhJujR47i4Z4Po0b16nj/gw9w4vhx3P9fy703AAAgAElEQVTggxz727l9Oy/ORYsXo0qlSqyQiLobO3YcChctwgvv2JEjTHt6rVY8/sgjmDfvTZQvXw7xR48yhTlw0CD8vPEnvP7GTC4Ly5kjF04cO4oChQth4vgJ7JHcf//9nPdAlSwpaak4cCAWDz/UEyNHDOcyK0qi+uKLL1C8WDFWAF989jkGPTcE82bP5bhueHg4L1TqPrh/3z70e7Y/mjVpirFjxiBnzlx44MEHERkZgZmvz+SwUEj9NG5oVoUKEEQEkVC/nkXvhU0xCBTKUiGGiEjUbkAAIdKsYrgJDALr2Kx6BNwkBoFBuAIIn32GEc+PQrXKVVC+fHmm6In2btKkCZZ/9BGmvfYaJ+AR2KXEPWLxKIRGrMK8uXPZEFNiHcX8ly1fhvkLFiB3zihUrVqFqwvWr1+P5Z98jHmzZrNHT3kFTz71JI6fPIn3Fr/LdD8xFZ9++imqVqmCDz9chjETxmHh/AVo1qwZhgwezNUDiaeScOrUKdZFlPdE+uyZZ59l3TNr1iy0a9eOGTgy5uTNE3CnsB0lLkblzs2xfAqlNGvaFLtjYrByxQp2FLi1tceDL778Ev0HDsCbs+fg088/R2pKCp/v6PFjvLavXr7CIQtiaPPmyYPt27ezzuvcpQsefewxbN2yhfMLyEiT7iEdvPjdd7lccsyYMexQECAhJ2LFJ5/ghZdeYjm/9uqrWLFiBd5e/A56PvgQli5fhqmTJuHee+5lY79u3TosW7aMwxDHjh7F+UsXUSB/AdxRoQL279+PihUrMjNCYEglihvDCkZVcesBgtr3QlyVknMVQBAMAoUYruHIjmikea2ozwBBBC8ze2mg2ExSvCGtr32JjCoxAkNHDMOZxCQsWPA20tLTmDIj5D5i5EgciT+CNnffhXYdOuD1adM5LjhsxHBUr1oVL748Gps3/cZJQWNHj0GtmjUxYsRwjuENHDiA2QkKMXTs2BFLl37AcbHvv/8fI+mff/6JE3HeXfwuhxgeffwxzrRduHARcubIgQVvL8DX336LT1eswNq16zBp2qt4qHsPPNO3L6P1hUvexcplH6FFi+ZcR0yJejSZKTu5x/33cwYxZfqSMvn88y/QvXs39OnTl+m9S9euYtXHn3Cs9NEnH8eEsePw6KOP4YnHH8fvv2/GCy+8wKVOX339FccEV3yyAqdPn2LvqGnTZnxeoj+HPzcMrVu3xoIF87H4vfcw+qWXMPi559CxfXtmQsaPG4v8+fKzt1O0VEm8/eabeHfJEq5b/vTTVUyPEvPxB2UiP9MPTz7+OJ588klki8zGIIHk9P333+GF0S+j91O92LMhxoCuT974O+8sQoUKFRiI3AKAH1K0WmuhomXcC4NFiYlGgEB7lezaFQ2HCRD0RfsvAggMwrl5jwWrPv0U4yZMwMBnn2VDTzkCyvskD3nS5MnsrdI6pHI+Wjc1a9bkEAN5+2/MnIm77r6bPWNiHH///Xc2np+sXIGWLVuhcMGCWPbRckyfNh1dOndmIPHgQw/hyrWrzLJR2eHUV6Ziw48bkC9fPnz80Ud4buRILJw/n6/72OOP4+KFC7CFOZCUmIQrly8zG9m6VWvMm/8mt8En9pFAAhluYhIIIDzVqxcbT9IjFMqgBEXKO6D12+vppzHg2WfZcaJjSR7kgIx66UX8/OMGnEpK4vPVrVuX2QHyzg8fOoSOnToxm8LloVYrftq4kcEGhRwoPLB+3XocPBiHnj0pvJiHWVSqamhF+RQkb6sV8UeOMOg5dvw4y5nCL02bNuWwQ7myZfH+0g/w+vQZDHjI4dgdHc2hlINxcTgUf5gdueS0VETlyMnOGoEqSoQsXbq0qGOULf4DVbH89QBBVPeJJEURYtABguW/ARC4zNGnikHUHuuAxoJ/ShXD5StXGFUnHDvG3jUh7y7duqL3070xePBgJJw4gWbNm+Gee+/DjOnTGN0//8ILTLmRsaVkw549H0HvPr1xZ8U7OenwsccexzP9n8HlS5dlNrOXDe3aNWu5NpeqDb755lsMHz4M7733PpcTPfRoT7Rq1gKLFi1iw/j1N19j8NAhmDxhErMYM+fMxltz5qJHj+783X4DB2DOzJmc6etyiXpsBRAeevhhbo5SrUYNpKWmoEXzFrjvvnu5YUnXrl3htVlxX8dOXDO94aef0K1LV/bun+j1FLb+voUblRQvUYKR+Phx4zm+SfHULp27sGfUuVtX5InKhSXvLuGwx2+bNuHRRx9Bt+7dMGnSZL4GhRWodjpH9uxo27YdLDYr5r/5FnsTyakpTJVSDTbd5+HDhzhvomGDhhg5cgRy5syJyOzZERMdzbKm8M/sN95gJUf5CcS0zJL/Jg+nbNmyf1uSohEgcJMTaf58AYKH6WQOMTBAaGIyCIZwDGkGUeZ4/VUMfyWDoBr0ELilXKJn+vdH/2efhVtWKJAxo2x80idkuAhAHDocj+joXRg1ciRT5++/9x5n6rdq1ZJDB5RMGB4RwWwDOQyVKldC53vuZYaAjCAB5ri4g5gx83UOHxCjSEnVk6ZMweZNmzjhkJL/Bg4aiIVvL0S7tu0wYPAgxO7by5uDXbt2jRmIEiVLwuNyo36D+ihduhRT/UMGD8FDDz3MJemkcyiESA5ToQIFUatWLfyw+n8Y+twwpvEpvLdm3TpMmTQJLVu25JAEsSJnzp7Fm3PnYv78+fh+9f/Qu9fTHMogNoLyCihkMGzkCD4n2QSqupgxYwaHEQmY0DHEcjRt1gwR4RFwe9ys0xo3boywiAjs3bOHdSI5EXROCjMQi0pghAz7kSNH8OyAZzF16ius46jqiRybOXPncbg0LTWNwxyR2bIxi0KO0oqVq3DfPfcwgKP7o5yMrJIQb02CoqGRqLYPCO05lBVAIAah3b+UQfB6cWDvHu6D0KBuXe5+JcocRdctX4BAbZL+/j4IpNBp8fQfMICpqJUrVvKCIkNHSX2UrLN79260a98O3br3wMxpAiBQgtJLL76Eno/0RMzu3ex9P/10L86iJdTdu/fT6N2nLysASqrLlSMnew7fffcdL2oBAL7BiOHDOAZHCuKRxx7jZh7vf/A+L6IffliDocOewxuvz+QchjfmzGZ6sX37dsxC9B3QHzNfe41jkKpzmd1m46znbg8+gBqVK2PWrNmcT0R0fO7cuRETE8PGm3IM6B4pqTE1NQXlypdHpUqV8FSf3tixZQsnLeWMyo1rly/jl19+wc+//Iw1a9fC6XLjow8/RK9eT8EWHo5lHyxlxbNj5w5069oVD9z/AMaMHcMJSDmy58CSJe9yjJNiicSkvPvOYsyc+TqOHDmKDz9cyvdE71O8tO8zz6DLffcx8xIZEcGeAOVTTJw0CftjD2DK5Clo2qQxJ5bOmDEdK1asRKdOHZkVoeqHjEmKyj1VnSdUrC9QVDozJior8lr/jjrKWF/PW+XwTnfiN4UYyDuyU5ljA6piMEMMxiTF+K2/4bTsg0Ct1aGVOSq3QiUGW7hzn3iJMVZHBGpYE6hrf2ij6kd0WCw89ywWG7Na5KFSySBl8BOrwPtEeL2c47P0ww/w0Ucfsy6hcty27drixRde4Nyc5cuXs0dOHjJ50AvfXoBlyz9Ctuw52Jno368fmjdrjg+WfoAfVq/mkmB6wgp3VGCnhPKF1v+4DnPmzmUanUoY169fx4m7L48ejUqV7sRDD/dE+7Zt8eGyD1GlchUcOBCH02fOoGiRwlj0ziLO5n/h+efZkyfA0aFjBy7zJjaQqoIIiFOlUcvmzTk/qFDRIti7OwaDhg5hp2fJ4sWcMzBo0GC89eY87IyOxlsL5uPhBx/kXKERI0fxGs2TNy+mTJnKrAJ5/aSbzpw5zYyIy+niEOWqlas42XHwoMHMVohR9XIuRq1atTFh0gR89/33mDxpEjs65LQQ0H70sUe5AopYWSqPnD9/Ad8/gZ2vvvyKczxIbicTEnD33XcjNSWVExUXLVyIH9b8wI2boqJyM3CjEIrDLliggC/ZmTHkxkM0LUOg98U2z3So0k1i3yEOMVCSopWwgBsOZwrid+5GihtoYAAIgYIMStv9AxsleRggJB2JR73atbgPgotoOUMfBOOSE50UqVFSqJ2SAqmBrKIwgT7zvRad8VryNQYIFLv/dNVKjhnef/8DjCwpTkUlTG/MeoOVwWtTp/JifP75F/Dyyy+xIaT6YGIM+vTujfr162PY8OFMez87YABnGxNA6NenL1asXMnewmeffobs2SLZ06AyKULyxYuXxODBg/geyKgSCqayy9Vr1+DTFSuZMZj5xky8t2QJWjRvxsmOvZ/pj1kzprHBp9goN16y2RhR93ioJ6pVupNBCfUYUK1MKeeAWI/YuANY8NZ8OBxhWLHiE/TocT9Kly6JgUOGYNf2bdi2fTvHIDesX8+9IarXqIG5c+bg6+++w0aq9pg8CX/s2IUxL7/ECZcfffQRh1CIWiWQQLRorlxRHCahWup27dsjLd2JZR9+yBTpl198wd5Uvrz5uCxy44aN6D9oIF56/gUGPGGOMLHdrMWCLX9sxbODBqDrffdh6JAhCAuzoU/fvqyoSCnkzZufPRPRwMW3Xt53lYpd0wyd0P0miPquasJj5AOyDmVxKSsDYd300NkYIMhOihSzjd61i4GBAAjhZqtlKXJKRj2ydRPOHDqA6q3vouAMj6WLdyQ0vsQ2OKJNuy/QC6SPFTjQWygH0xeZaXUdiJA3efr0WRw8dJCrEygxj6qajNVEySkp7BlfunSJDR3FvoklpIqcxKREVLrzTqbTqYTv6rWriN61G1evJXN9frmy5WC3WTn5OHb/fpw4kYBcUVEoVrQIhx5orV+5egUHDhxAnfr1+FhqhUxVUVWrVmM6nUJ+/fr1YyaQvONXX5vGSYLPDRmMDh07MdtIidSvvvoa6tWry3qI7m/2rNkoVKgQJzyG2eyYMn4CMxsWu41ZEmIqiEUY0L8/Jw//b/X/MHv2bPywbi1OnzrFjCABoGPHT2D27Fmc8L1mzTokJSWhR/duWEKJ2hs2cPiQgZ3XiytXLnOpecECBTgcQ6GIdKcLVapWZT3z26+/csln+3bt+NkJHJLMyPF44403sGHDBk7qplwykbOQiiXvvocPly9H3bp1+HxUzXHu7FnUrFUbo0e/jHBHGDtZxE50vq8zqlernkVlmtgAIlQrpQPX4AiB5yf3hRYAgWc0MwhUxWDldu1Wiwt2dyoO02ZNLi8ayByEf1knReqjLQHCsaOoVbMGJ38YF7evuMR2JHqDGSFWcUzG/bj1T0PB/ll5iLJGXV6LFnVySjIj78NH4vHe4sXcHnTG6zOZysoVlRslihblEqOGjRpi6uSJ2LxlM8aPm4Dnnx/Fk/ZA3AE8N/Q5PPrII5xrQJUDlLUcmS07Ny/q1r07Z+v/tnkTpk55Bfnz5UX37j249en4CRO5rIdyF776/HPMnjsP2SLC2aumbYI7tO/AwOOj5R9j/oL5mDNnNurXq4edO7Yy9Tdm9EucxETJfOTdUDyfEiH7PPMsihYqiMWL34HLKfuWy01cCLQsWLiQFwR1X8tboADGjR6NkqVKcv7EkfjD+H71aq7jJ2Uw8/UZKFyoIHtGpUqXweRJE3E8IQGTp0xFYmISJ1Qmp6Zx3TQxLqQMKUlRASyiFqkUjJqczJg2DVv/2Mrg6ptvv0X5cuUZ1CxbtpwTkD54733UqVufmwnxPh1WCw7GxaJX715oWL8Oxo55GdkiHHi456OcSPnaa68he44oXlAWi2gBayTujLNK7ARKZYeZzQ+5CTtrAwUOmP/KGh1IRSdaiov93dWLZriDlBonK3s5H8QaFoHatBcDbdaUAdQEvdR/6wDp5tD8Pbr1d5w9eBDVW7WEm/v9C0nqnVbluNHGWBbxeSgvxeoEH8Ws3T4GANwWV7zonjk5Vm23w0ZEsAjEZlF+Eyl/0gFcAuymFsxifnJbZGYkPLwXgoqBC5BLvVlEO2HVQ0XE/MW5KY5PrUaIiqeSYlr3nObmEVVMKSnJzDpQfg8BL6LXqeqqWLHinF9A1D7lD1BXxNOnz7DXnjtvHoTZHdxTgPZs+H3TZhQpVBgVyxFYsXNCIo0D0fWkL3PlzMXJg7Sm8+TPxwwmPevJxJOcX0Rrs0GjhsiWPRuDINJL4eFhOHv+PLMHDKjkxkpagjGLVy8lpbyiIkWL8N4XtHbCwxzM0hjpfiohvXjpEic5UqiT5EqO0vnzF5i9LVOmDFdofP+//zFb0KB+fQZ0JGcKb6SnpSJHZHZuNZ35fBJ7wYTmx6pdrHRrltUc5VY7vIeGF3bumyLtHwFkmuNcTpoOC9JwJDoaV9PcaNCuI5c5hjT/g0/6UJaQdsyfaLVMAMGNuD0xSDpxHDVqUAMbeyaqVSx0YeqVsta9N5UNrt+5UtahgANlIAIpD9/36F804VxuF3bs3MntR6mRSGRkNqauqCbYZnPwJiOU8EN7gTds3JD/piQhyjguVaokqFRyy++/M/IvW7oMklOuYd36H3mzlDJly6F8hQrIFZUL586dZyqeaoErV67MXsG+ffu5DJIShTxOJzc/ofJBuidqnkQUGy36vXv3czZ/i5bNkTdPbly8QIlNm7gMs3jxYqJjG2+n7WFa8+eff+GwQquWreF0CkVFx4RHhLPCoHrrQ4fiGcnXqlUHZcqUZuUQvXsXrly5xElFNrsVqeku/LhuDc6cPoMiRYtyqRB5CcQ8xB08xOVdpBwKFiqEBg0bsOdPWcxr167lXul16tbhuCJ5DZSZTBvEHDtylDOyO7TviAEDBzIF27//s1yWtGTJeyhEjaR4ZzwLL56jhw9jwIC+KFG8CKZOmQSHzYsHHnwINWvUwNhx4xGVJz+8XlKggpHynTfqX7TQnGxybIzQ/ZkG5crK72sAgbrfhbLKaGMmsdmPkdImBsHO25WLbnw0zwRAoN0cHSZAYLETy+jBia3bcPZAHKq2ag4XN8uSklSVITyHhXfFIYigAEGMm9h+27Bb4XWpRP1gxSFomsowhbSMcr4keblKD6nfgvhVoELsrKj2btQDJZlBHn0GKgMkOBEvb11J5xE60ribodjQ0SIcNc5PEt0XhemSZ1Qnpo6lFiuDB6o+0oCKy6M3PpMAyd/0CUBkE/reQ1ty0/NbWC+IXTg9YoM+uYsvXVKAdN+XcWttvobE6cKrFq2dxUmE103PJrrE0gZRwpgSW6AeiY4n50OAJ7H+SD/SvZHcuEmRBuaDOZWh6IDrnFgW9gEFEKDW3Lybp9Q2tLeGTFWkfWG9BBB2R+NKigv1CSDI7wS94k2+7T8PEPbuRlLCCW5oQRMm85fYilQHCEo04j3f/RlUfEaP0wQVjI+hUEdnnAQ0mRmxS4RPW58SKKCJZLPauU8AoXw6xpmeJmJFNJIseNEwiYGGSyB+Vf5DBp527aM9KKi/AL1Pn1MfdzKUdF7yCOhFk5vP4/Fwe1XKeCZknj17DjauVl54YlFTolt6eioVXPGxDgcl+qRri0+ha1GvTZelBe9Ws45pS/qM4nGOsHAOZYRHRPJ7KcnXBK0PL5+XFhh5N860NK6JJsVBizEiMhvH02kHONq9jpQTyYgWK3s65LXw+R183/TctH2KjWVg49avr776Cr748ivMfmMWiI6dOHEyhgwZwmwI3UFERHZevvT3xUsXMXH8GGz67Wc8+cQjOJOUgDU/rMawYcNwd9uOyJWHwhRh8GiGX42zH6C0pLJCsFIbX6kmhWqmznD+QJX3Z6YdMzLsAR9o7tG3hWryBQgkTjtNGfkl2u7ZEhaJOk2acM94k0EQoIr+O7ltF87u34+qrZrASRvusIEw7mDIaZ/wWoiZpN9ZKXVhMEUBGXm/cofE0EiHrNWLXP4+pzL+Q2ABv5dkJ+Rn19GI1c+KGgALiYZL4oiBkGZf7TYtWS2i41XFAd2TtuukxnyIW1WAQbAaxAbo++fQOcTyEAyK6AysWx6HZCJZl3lpjxmnoOsllhHgQByvvpaZN+5jzwwHZxAnASwb6ScHV4K4XU52WrT7I4bF5RL9VEhCrEOVThSOIc8Pq0tu3BXEkgYc00ymScjHCvaJmE8LA14SmR7OEMWOBCSdcLtTcCh6F66luVHvLrFZU0iUxj8NIBzcsxtJJ09wT+ysAYJ/iEHH574AQSl5MaCheXNC1IE9DLlxkja2IjTCcqRFwQtARKmtdgfTa5T5r+7OQ2iOqEVCrzKaTYuBFoFKVOJJSmrJYoWLzqWQN7fwFDQgdxzUOjTSdsGiLE4sIjGReaczn2QssZTdblqANHEkHWfYvEVNMG0Be8lrUJX5YqGIPd3VNsNEV4oEKzL+1BaYboaQNz0093yX4IfDGLyFq4i38kZcFrEAxQ5r1NxIKA/Vk4G9C4vYXc3BSkmg+MOH4/HGnHmoU7Mml1qGhUfimX79uASJx18pYWkodmzdgpUrljFwuXT+LCrdWR497n8AefIWACzhgC0cFistMmPymhEgEOhMZRmLJCChULV5koFVkN+1KAbBD2z46QaGtxwv9wsxULMkI0DYuRMWR4QJEAzrj4w3yS1pewxO7dmNSs0awUPKn6h4zuGQQ0W0PcdlrfCQ4vfx0g0DwiBXrCMCbeL/bnH8TVaYWSOJW/epgLUW2DykO6ywkZ7xezYC/0IOQk+ov4UNEmEKrcRPdojkg2Q4wUNhECvt+yB0mKrgEFhEvxjdB+VBiE2PZG6I2kpZydyIDNijCnEgDKxFRmkyrSAcPKfYZpodNL8dOUk9qvbvPGWspAsscFvccFpccGts4a0br8Bnpko+AQMYJEhbIWwNoSs7z39KUkxLv4L927cj3WtDg7aduIrh3wcQ4MGhfXuQeCSeGQTykjN/KfbAt2Uxq1e1+6EhEKHAgfIEshxKzRs0HuULGBQgEO+KySrqnMXgcFyMtw0VsT+BTMkTIXRNRk8eJ42Mbpil4SG6X9ayKmpNfEVsziLmKV1HUKliwcs90eVtkxEXk8W/rbNbUmNuuRiUAhA7CfrqQVVbKqcdLQ4pH/HUgqLUNqOhOD2BBAXZ5Xa7TMuxjCgGKm6QxWLYqVKwF5LKlXtYKE+JPiGqndYigQw6DzElSvdTNQV5AGJjG6k/iHFw2OGw25CWloKUlKvweJxwpScjZ/bscLu9sIfTbnEEWAjQGOOImmbS81pAbakJIPglM2rzJaOcYVEMghzXABZGicqtRG2Ik/LyJwUllSp1xLRQkmLjxrzt823PIHACs4fj6Uk7Y3Dg99+Rs0wxXhfE85Djz83keMaJCeQFZb/T3DfM0wAKQcBRkQTNMeSg+j9k188ALoOe1IBKgt+BjmBCOVZ66Qxi1br2vx//ZzL+W2oAlo9ub4RfK9kbt/9+2eIzWjIEDPhsrLxIbwvDazRc6ikUHPD/d1bSy+pYoWq8XAlBO1xSaIFyJ2jeCKYgIwDRnpypfZoPpPeEjs06idX/7oONeWjziFNt+UHIYZP3I0/tZVYom0hY9BKDkIyzCcfhyFMQDTp3BQiMhZIUESIOC/ZE6vM/F2KgWubY/TgZtx/VqlZFjhw5M1xXGWbNAinlLGeD8L+k2RZaVU5DQRcGz0YO9KhGcKD/LYbRC5sxOYYnljTc0niLVtn0PnkhBBJkMonPGvZf0HqyDd+z6gsvKT82zTI8oQCC2n1OPIGCLrqllktTGHD6US06pbtNEmIDLoGIiLXRPJIGUU0oWkSal268b4YAUqEJStaYIKbPNWHWNYChiTzzhWT1CsbFSjFKBgEWXEtO5sxpWuBW9v5lGIVzKcjzIzAlYqO0Lz3JPcxGXg15DE4kp6QighIUKdHLQolXijTyVS3qPlWFgZCz/tz6Pgr+YyiqHoRrpn4yzi85TUUZLy90/UXMkM0jryZzECzhEajZuIkJENSI05ryuJGwaw92UkZ6NgeIdHVIkXPGCA8isWaUaEqMHiWuZZVAylZLm/u8fP1tnc9QqvH1B4mB9Ik61qhXslKxem/N4Io4dGPEBtlKM9TJXrAC6/o1fK2Db1gjo+kWjIJgFgiYpV6+ivRr15ArdxRc7AwIRlGxp0pSrBmJ0ldQyLhZW2bIIBT8I4Y8IBHM21vbKbwqwgjMYEpm1u1x+TAcPupJViOIHiU22Dykd0IBj8FH7kaOECEGAro0r422iRJUc8AGO2xW+twJ55VLyFO2Aup17QYwwxuCEP9RAMHrxeH9+xC3YyvKlCqFyOw5NGUZaNrr0VrdCIpEFV8UqitnqbCvYyR046BfwzjjhLEwKn+Vya4bac0n97qZluJEIzlv+ZsBxokVGns7qnzFOAkDKCEvUYWK9lcPKIIOIllHfEe8o+SgovQCTRNypjIgAXBET3G1Gz2BBDLETMFRSMRL4Q7KvdBpRs7AVgBBxmx1yYiHFPI0xtmFn2bkbv2BAyNlBRD4w4xjoQALxwU9brgIJJCxpTpgulcpEgFtyKtXI0DUamiKmpQY3acK5ejTSOa9aEyNmq3G1ZX1SuM7kEDTKAvBIKhYowVxhw4hqmAh1GzSFDZi2G73Kga22jTmHpzYFYODO7ahVJ0aDA7CBJkkRoX/kNqdPVUNNYSgDQKNp//X6IShalPjccGU9K06VjkQAjwF0kEhCCbgIQytPMDRg4dwKiEBjZs1Q7LXBbeNcogcsFA4lRgZw6Npwd9g4rjRmwrhe8Z261k2PZLnEpvBhTrmIdzAdR6i2RB28JSuFiehXBuLN4zZTspBoJ9jB2KR5ghHvXs6/1tzEDyIjd6FTf/7HlE5cgQVlz9u4xguxYYMalw3PoKKvNEB1b1EYWaVmeIYD8elfWCDwQTqUMAjAYLaZVCdRJhpfWXo5k9lyUqjJOciPaPv1WiRqw5aSmziGL3ftgII4l2iWUUzTnlSaeiVZ0z/pFwH2qmSkoao5JLaF1P3Mxe1ZWbgIRK9mJaTbIoACL5AjPzbjHkAACAASURBVClaLQtDBwj6HeoMCX3Kno0WOJHPxglMFhFP5s+EqfcBCxYrqO7F4nYhzetCuoUyr8XR6liuBuB5oEtZjaHPWvfp2imeKF16Ng4/5SbOL+9H03oK9Ph7WllNawGxfAECPbOID9N4nD57DlXq1EXDu+8yGQSpCnk8vV4c2xWDuJ3bUKp2dYR7BEAQoE5KVNLXPB85jhxUxYj1wXNOm3gZv6SB1iwphuAX+yuPMABtIYYQhBHi/ekA4SCSEk6icbOmuAY3XFQR4XAwC8g/hvP59qoI8UI3+TDNIVJNjYKIhEPGfzdAkNOTMIJPZQd7ymGch0NVDFarE8diY+G0h6PhvxYguFw4uGsHEg8f5iY9eoJd8JkgmAMr07QUYVc+qhhjQfOKwbyRqajMqLFqQiwp9vC4Nl7TQtIgGQ2TvH9KprKI0h31UoyHb+66+FRs8yv9ack6sPkIkH1NAEGU3xlfGQEC37PMhWCAIGNtXEFAFRhWO5dIUo0vVUBQxzEqa6R6YGoswqVOPBvt8HImrKHBC1+a4BkHK3TFLAuo2JBKL5xNqmwApPx7tR4VYFKKi4wjTXTxjEqV6UZZ+G6CurRRrbfLCY/NA6patFD8RwIUTuLxUYTym17Oac8wyYzvkKFJobgdlXqycvPVHnpPDn9vU3mWWXsaYlwzznPxzOKuiQbds2cvsuXNi+pNm8pGSX75EMGXyn/sCFktQgAhOgaxxCDUro4ID40T4JKEnrCHci5IgKAt2SwkosPI/5jYbuHj6AAhDqcSTqJRs2a4Rs4RhfskQKB1amQQMpv/t/A2M5w6VAZB090B8hT+yvsVFkYmkcoKEP36EiBw4qITsDlxYt9+BgiN7unyL2UQ3C7E7dqJkwfjUKViRUM71Ixi1/wsyRoqbkCBBCOJr1gEEUO+EYAgDJBSKFoIgw0XxaJCYRAkhWwTAEHrmqZCIj5Eu3g6Ojd5t2IiiPfEQsoYYsgIEIQPznJg7trAeojCQt5GmCeYZpikR64SFb1exB6IxelTp9G4cSONKeCuilQ7bRXdukR9MU1UN9P7oopCB0KKQfA3kQQQqI2w75j4lqmqvAoRYrAJpkZ6PyoZla5NpaUUSyS5pqalwGrXy9+E3IRJF4lROqMh3qPeBlnlpwhmKoXABsjwUKmjP0BQVTVylmjaLzSAIL4lMqpFzomQFmeaE01ImMxmRdzBgwjPFYVqTWgvhogACaiZqKisvCFtYLIGMTem/G6eZxrw+mpNU6OkXTE4sHMbStepyQAhjErm/PZv4bmomsuEwCeaAOH6R10ABC+OH4xDUkICGjVrgWvEWRKDEGaH1S0YBOPMUMHJ67/azfuGAgisBUOIzwdKZLx5dxPamYwAQakcIVfqgxAmKxucsFidOLFfAISGnf6tIQa3G3HRO3Ai7gAq3yE6dmX28iVidVKWjIagv6WxI3MgM5D1NrbXqwiVQVEEsDK6IqbPHawM7KJvOELdByE5L7x+AEF0adMZD/G8AsSI7Gvjk8oMfz/6m6cD09CqakE9n3FLTwUQGELB46WSRAGjfKVhMKQeD7djpTastK0pMzqyexuXi3GAn97TAYJIfBQ7Q4oMR9F+xT9TQ8XyVRth8dwSBvktTi7hZLxDRT2KAxCuIZtTTty0i4xeyob2uOCR/Qe4bFCySyKXQVzHJ0TDSaOUg+HL7BjnHn3i4uf3wi47G+qJoCpNyajyFBDNKOGs5rT/Z1z4RQCB5oPVyuMRniu3AAgRIQIEHxutnlELLhmCP9e7LiQYUjcdkLP3lXVoas9f8urfsiSGJ7wReHm4bOXIrmgGCGXr10GEx4JwtwVOI4NAc4eT8mhC+We+BL4zpYBvJcwxtli+fvn8876hAELCoQNIOnECDVu0wTWqPrICNgf1a6G8mgA5CP51ln/Do/nsvBhk0Elf3Mp5EcrjB9IubAtIU1K/Fq8VXms6LNZ0nNy3Dy57OOp3+rcyCB4X4nbv4mSKOytUELX08qXvtyCGRNPz6nOjgWEboHuJygvXBe6vCP2VGBkd4zHqmsqLVzFyFWLwnyji2uIUBgpYZqmrGDidlc2IvFeDeZJPI8IB/gl8vvemCciPPqezGeln9YyCwKcQAIMPLvJVV5BNhKmHAllVl5vbQJ87e467HBJAILaAGAQulKRkRWYoDPnIXLIhQwycHakbTyPUYbaXwZuR0TGMrWF1iGOFcRBhAoPBUPln3Mteb67CFSOqP4U8RvueAo8aqJN3lgVlqFgQ3yCTcUZllr3uD2UzX/b+c1ocqUrGAAesOHjgACJyEoPQFLYIaiftr6I0ikVbJ3quhiq5pKcQXUrpLxFekbNPMk3GOvXgikoHpGJwDPdkBA3XpU1lgyLt3oSlJ+PCQJDDPTTXREiLfuKjtyJu1zaUq9cIDk8YHB4dXhtxIT8tZ+0HzkgyKl0VgruuWw8uMJnWILYiptAY/Seak90ISMt4Qe5JYiiJzuqWMoVwmaVUBBOGTNxOOhSLxKPH0KDl3Ui22DgfxGoTvSmYgTPMDRptHpO/MaYvVLHh4bJiEW7SOIUwVbI8RN2tcdYQdyCcRdWJ2AkH0plBSLueHISbMxV97v/PlTl6XYiLiUb8vj2oWKECd9ITYECJQZ/KwvZmnKkZn0kpWP1Y0RfbaIzUeeUxWvWA/9iIhki6D2bIhfe/sGbIdJ/XV1JiMgrzKK6fwZRo5XG+YRHhNSuFbihAzmoqqcXIxlZkfRsVg7o2vUewjHsFujyIO3CAd11r0LAh3x+XBNHGTrKHgaD5ddlqgIYqCGTyorgtvS2s0ayGDMFVmWcW6VTcjMUHDIj+78aX7zDJwk8DkMhSkXJVR2avzD4JfZUFOlIYM8GghHstOLT/AJdmcg5CRKSo0Ve3xLfgexbxfXVvOkDwQOxzQim9lOsiziLZIzndsrYDhjUp9+jQKyoC5EUYl7C/CANgKJrflK8jt2oTHhEloRKA4XPJMl2u0yMBuXF492bE7foDd9ZtDKsnAnYv95HTnAlZgSw3fxPAO5DMVVMfH7HKfwj8499MR95SgPczmy3cjTQ1BdmzZed8H2pAxvrAb6+AGzEgdJ6I8HCcTEzkDZ2ynNMyHBCIUmf94C8gybwEuy8CVmcO78NJ2nivZQdcszh4vtmsKt+HuTHDaehCYrRD1gnBbuIWfx76yr51N6I10ZOXEKuYmFbRSpw6XFjhQoQnHcf37kdaWDga3tdZtFr+GwT95wHC3t04FLMbd9xRjnvxa/FizTMxGPYQ4kS6+RVJbtwRSzbhYfUoOx/KdA/phYrGEwIk0v+oZzc51C6xgCXiFx6tapcsPAD+htJERIF7qKug3jKavs9eg1SYdH3RMpnoetFO2djvnLxg7nrIm62oxD/pXcnNV7gD2PW8NOAhFYBqaSrPQQ2JHBTzd1OIIRbnL1zgXSZVu2eXxwsnVTJwOEeHGTRZuaLDcH4hQQMACuZ9BHmOoEbLzwEQ9RaZv+hWORdZ4a1MDuUnyBIgXM8AZHVDvp8pJUThpjBYcGifYBCqN2smAYLv8f7yMSox9bexzoS4IPpRuQ+cj6HK0GQjlkyNBzNQBvZIdLwR+x3wj+He/DC4WCjyc9HeX3/RsZKF8sjKI24KRvOcLum6Clf6aVitDliteWGx5OS1cyhmK+Kj/0DVOnVh91AnBBvSueOdzvjRRcTusJlnoBsBAjc/c7u1NuC01tiUURdQuR5FHw6xpnntyufSPpc7NaqOhNyJVNbhJyenYPPmTShdujTv7KiafTFYkOdXsXHRFEfoF95oSXY6pAvqGzuJPQWSTp3CkiXvY9So4dwOXXU8JHBPOoVbKFMnVt4ChwCi2JdA7bnAz2Og0DXwLRZC0MlOzOCF+D1IOByPOq3uwTVrhOj/4nVJ/ZAJQPgHhBmCPtw/6AB/MEu3pgACNX+jXRioiiHCnYqTe2OR6ohAg87/WoDgRtzeaBzcE407KpTn3btEFF6vIvBBPUbvKYtBUyrMRsjKZuXsfFpktBkSdREWnQGpBzh11SIK3cU7DFITHhvHtD1ITUtFSmoye8+0e1n2HDlw6cIFXLl8GQXz59c2F2GaUG0sQs1CaFe0nLnEXgWpKbyow8K4x5uMl3uQ7qTtSamUMBtfk/YWCHM4eNtRupfIyHBB1UsrRuWSdDzdr8Nh593eQkmq0UTkZ8CNupr+VsbI6hIA4cLFiwwQyBOl67ncAiAIxat7iwIgUNMh/Yy6cygS/f6SlzTkPkxLgAur29S3ZwlMOdNXNRh0C90GHsNMREQMQhgxCPtidYAQGZmJODO5SQ7n6ABbsQ/0/DpQcgMeJyzcZdALm2znHYg70WGpkR7guh6t26YCApwHYng21VKbky/9b1e29nUzeBEhMcL1NmoI40yH130BF478ggtnE5C3YHlEFa0Na3gUju+NxdHoGNxZt4Hocsc7Ydg4UVHfpJv4MwK3fqE7lQzM+w2Irc/p9/79sYiJiUHhwoVQo0ZN/k27ENIugHv27uW1XqZsGdSsWZNDoklJp5CQkMDGNjY2lnVF/QYNULhQIZw9ewZ79+5DXNwB3gKZ3qet1d968y2UK1cWjRs3Rs2atRC9O5o3X6N8k4IFC/HOhgQ8aCti0gG0y+Dx48d5K+K0tHQcOXoEsftjmd2jc9AQf/DBB/jquzUYPrg/atWqhQIFCuL8+XP444+tuHjpAgoWKMRrOndULqReS8b27dtRskRJREfv4q3mq1auwsyGmPey3bucnzojlflqJoBwMT4GCYcPo3br+5BszcagzCZzn4Te8GUQVJjhL9ER/5GLZAoQvGQTbJyDIwBCChL3HhB9EP7tAOGQBAi0MRB5KHodvZ/2DNHgiG+JZjskUBWf44Q7SpghA0u7idlsXKebmpLMQIHq/2mjJLtDeAgc8rCAW/zSH5cuXsDmTZtxT8eO4nOHnbcmVayB12PhRUZeARl62sa0SpXKvI2qM13Qio7wMFhtdm44JDY0EopJGH/a8Ig2P3FprAR7KVR9IAEDnZ8Uw59hEUIBCPXqN+Bnp9bFBBCoF8J/AyBorZ2CqgwD7slwrM6jBD1NwAOE7y0aVClAQr8V/0GgzeEBDu7bj8hceVC5eTPY/AACAyIv7fUhtwXm5Eu5PwZ5tq5Ucr9l5ywCqGGiIoY8RWqJ66FNu2huUwvrdGG5ZRhPgWifm9f688tdANWHwvqLcA+nuUhjzA8n4D6/xz8CnGgRM6YIRI6MlzvaiRwZkQ9Lz5AOq/cSXCd34vTBGLgRgex5KiDXHQ1wISEZCYfOoWS9lnAzhSqYOZfUIUqyBDsC9URRIJvWEm1gtmbNWnz99deoU6cOG9CyZcth6NDB2Lp1K2/JXqJESd5l9aeff0OP7l3QtUsX/s7333+P3Llzs5MRF3cQZctVwJAhA/H9d99j3Y/r0ahBA+zfvx99+/blHU1nzn0L1e8szzvBtmzZCu8sWoQLF86z3mjdujWD9BIlSqB9+w6sT3788Ufsio7G4EGDsG/fPixatJC3YaZtiy9fusznJYDw6+Y/cH+3+9CsWTMUKlQY02dM5+2Wa9eujd27dyN79mwYN3YcLpw7j5EjR6FixQpISU7GIw/35N1iiSVRzBnPSR4E6awZwruB1oUJEG5MD1zvtzIDCDbaL+a/ChAO79mNO8qXY4Mp6GmVbGRAnKqZRYhxFKYoveBGP2mpqUhMSsLx4yfYA6bFULhwUZw5cxqnT51C0WJFeQGXLlMKpUuV4r/jj8QzYChdpgzKlCsLr9uD/33/PVb/bzUe6dkTxYoWYU+Cdho8eOggzp+7wPFF2mOcftMufKtWrcRdbe5C5SqVceniRUb1RYsVY7rx2rVkxB85gnz58/N20HSunTt38KKvWqUKKwiRN+hGQmICTpw4znuxkxeQN28eSYFmXvWRceL5eVAa9hKb25C3SiGG2AMHmEFggGAVmzW5CMC4RStjY7OifwaDIKoWRF8KAlLG5wxEuIu4r680MjrygRgEo1fNPJfWVVOXtiFDQAarFEvh6zbT+bnXgxZUU9yLOI5Lad0ezkEIj8qNcs2aw5qNqhjkwLHXnY60lHNwu64xiHWmp8LrSoHX6QQnjbhTRBdJstoMGJzwuOgz8hQF/UttiKmJFrypDBjIc3Vze2vhSarxFser9lD6PvS8JS4DAKokEXFlesdGbAQ31aISUQIGLsDthNXjhN3j4soQTgiUSbkEip0uAjvUBc4DO1HytDuo1Q2LJ00wHC4CEnZ47LkAewGkuAsg0ZkP+ep1Qqo1XPTMoG28/fbO4ALcTBgENTpnz53H3DlzeXvxtm3vxqlTp7jEtGjRoli1ciUqVarEO4fS64+tW7FyxQoMGDCA2YMPly3HhAnjUSB/fmzcuBFff/0NBg8ehM+//Br58uVDj25dcOnyZTbAxBi+9tpruOeee9G6dSukpadj4oTJuHz5IiZPnsws6sqVK5EtW3Z07tyZHZANGzbip183YdzoF7Bw4UIUKFgQ3bt1Y/Dwyy+/oEmTJvhj2zYseX8pPnh3MV9jxYoVDGzGjR/He9ycP3cOr7zyGrp0vg9lSpfGwCHD0aJJA94RlaplyIHhTeXkNOWwqqxi4rf88r/8iS8a4wuHY3DSZBCu1+Zf1/G3H0DYE43DewkglGeAoGgovXbdMBUDJCkGki7F4Nh38QI/rF6Nb775lhF6ocJFQIogb778mDJxIq5evYbXXnuVdwQ8d/4c+vXrh4sXL2LixIkoWbIkcueJwq7onXjmmWeYUnznncXY8NMvaN6kMRo0aMD03rvvvovNmzejdq1a7D1cTE7GaxMn4ueff8bKVatQ+c5KKF+hPJKSkng70Rmvv85VAURlkkIYN348Zs6cyXRfTMxuFCpUCEePHuWtiRs2aoDjx49h5KiRCI+MwKmkU3DkyIlF8+agQIECN5ABLVa/MEUiOYiUNBlXSoizSIBw7uJF1KUcBKuFt4jmJEUXJZH5+s0iRv/3hhjIY3bAiWx2K9KunYfDko7wsDBtG2oq76QNm3i7Vs4/sMDp8YLyKihdj9AFQ1KZK+XTIdNQBsn7QvBudbL/Du/4R7NUBdTFjKV2z5qEudxWSZtKTdUe9x5R2EJG0pMOrzdNZui7uFeF1ePi7pBuZxpOJSYiR45ciCpaAClwsQEntol+aMtat8eJ9PQ0UWZKWewWevYIeD0Etu0c4lJBBlX+SzvpEQvFfSRo+2/adjzMBgftRupwAFba6TKCW7d6rcSiUUmpF3b6sQIOm6x6oRAeUcn2bIA9AqBj6XBLGuAk9oJSpmgPhDR4LSnwXkmC5XIS3ImHYLl8BikXz8PmdiIyTJTCiUzY84CVtie3A/ZIDn94kq+IJKxUYkqsQFgOuMPz43R6blzKXQ15GvVAmiWHtqkWMXlacSwnBgsGQTAcOlATOQKi3fjJkyexYMEC9OndG+XKlxe5D17x/uzZszF48GAUL1GCGUbSETNen4W+fXojIeEEfly/HlOmTkVy8jUOIXzwwVIMGjyIdx2dPWsWhwq6du2K6tVr8Fbk06dNQ4cOHdGmTRteg9OnvY7q1auhXdu7mclcsWIlA9ieDz2Iq1evYsvWbfj6f2vw0oihmPbaNAYWBDCI4bx29SoDgDVr1rAuWvzuu8yMznt7ESqULYO2d7URu6V6vFi0aBEzHW3vuguDho3EiCEDUbduXQZyBDbICeL9WFTbdQODECykSQDh4nUCBAr7+KeN/kVByesyyv+kg287gEDbPfsCBN2nyuDXqd2/shgxpm1pa2XecRD46quvsGrVKgwcMJBjgMQizJkzB82bt0DtOrUxetxYlCxaHCNHjmS0PmvWLFStWgUPPvQg0p3pWLduLdas+QGjnn+BjfWiJe9j/tw5vOCOHj2CRQsXYeDAgYzKExMTsfDttzkBqUOHDpgxcyb69e2HfHnzYs+eGMydO4/BQJEiRfDRJ5/gxPETeKTnIxg5ZjRqVLwTAwcO4N7ldL21a9dg6tSpWLz4HZy7cA6Dhwzha7751lsMIh59pCe34r3Rl/T72HgQD0EMAgOE2AM4d+kC6jYQOQh0PxwC0baA1pewAggCtxnBhyDN/4ocBLvHCavzAiypZ3Dt7BHY3cmcYCo0vKSWuTROEs4y0VLYapHv4q+UtH+LjScEqOJmUGLjKAYdlHGveaXCz9bhAF1a7pipDJIKJchW1WzCuG+6G1ZDi2gqNxWbDYmd564lpyBHVG5E5s0Lt8MGNyXCyuRbqz0MjogciIjMznk29ohIWMhYh+UUP2RgLSK7WXUVZNSs6H7uW2EDKKmWd7cUnTI54ZDvQrbW5qcjGZKBpt8UmnABHgpX0P4Q9D3KZUgDXJcA5xl40y/CdekUnBfOIyU5BecvXmQ2LCIiG8Ij8nAbb6ScgTthN6xn9iFn6jnYaZxsLsCSLhgPuhd7BLzp6ZxARwDEnU5JhGFIz1MOydnK40xYGeRu2BkuZOcGU3rTKQMQkOV0/gmsRrAQHx+PeW+9jUED+nFMnkRDOUQE1ufMmYcnnnicnQAa5bNnz2LWnHkMJkgnEECYNHkS64/jx45j+UfL0bdPXxQuXJgBw6ZNv+H3LVtwV5s2HFZ4ZepU3HX33WjTujUDuNdfFwCBAAOFO1at+gyXr1xBr6eeRHJyMpZ/9DH2xh3Ci8OHYMaMGejU6R7OR6D1T/ORgB45JIsXL2aQQJvefbB0KbdN79OnN98znXfuvDcRGRGObl27YcDgYRg+dADq1qnLYVi3k8KakkEQcQYtxMALQMbCMjPgHGI4HMNdcUPJQRD5QmpDPV2LXWf69Y2qv3/t925LgBBPIYYK5RFGVQyGRDjf3vuhdbsSuYCUnChS9Smm+Ouvv+Lll1+Wi8mB5R99hJw5cqJVq1aY+spUtGrREm3bteWEIzLgAwcNRNkyZZCcksw/02fMYI8gKTERi5e8jzlvzOQkxt9+/Q27Y/Zg6JBB7H3R4tm0aRM2bNiA3r17Y9rrr2NA//4oX64cex2TJk1Cl65dUb5cecyaPQcPPPAASpcshYmTJ6Hnwz3RrGlT9gp27NjB4GDu3DkYO348rl69gjvuuIMnNYUlckdFYdjwYYiKirrhiS4AApkOURevAMJ+KnO8SAChAcerKQeBMqZFpUVgBuGfABAiLOeRfD4eFley8OQ5eVRkj4ut0AUQIH+aGCZOtZTVLSQHtfWy6uUvdKJoQKL9zZn1khOgNtqSQ5DQQ8pHNJKiHSUttOc9t6amTHPa8EoV2gkPl+Y3Z5fzLp0ytOalXdlo7jo4V2XPvlhYc+ZG9eYtYKfNmhzh1H1GeNi0XTVXDwgwLAbULtqqcuaoAje+m9VlyI005PZwkEBtRyD/5hCOQEAiS8KTBqslDRbaoYdDBykALiEl8QAunzyIKwTUvMkIT09FDkcEIvIWgbdgWVhyFAQc+WDLWRnWsByA+xzSjm7C1V+XIceZHQh3nhHPwvfj4q3S3d4IeN02WC0u2BwWeNLduObJB2u1rkjNXRlHj15BoXrtqLBL7ttBIIZ+BEBghUollLw1upjzgV7kqdOaa9GiObp16469e/fgh9Vr0LZ9W3y4/GMO+3Vs3xbhERGI2R2N999fiuEjRmDfvr34cf2PmDhxAidBE+OweNFiPNzzIWYQataqibx58uG7775FdHQ06yFiDpu3aIHWrVoxQJg9ew6qV6+qAYSVqz5DYtIpPNO3N8/jl0ePhsdjxQsvDOdKhRLFS6B376dw9NgxzH9rPp548gnEHYhjgEAORf78BfDtt9/ghzVrMGXKFN4unXIsxkycgiED+iNXzpzoP3CoAAh16/LcI3ZTlULr892Qg2AACIFAggkQblgVX9cXTYCgAIJPopHy/kIjoGjREVVHGpkAwoaNG/HSiy9yhrHdHoZly5ezN3jvPfdixozp6NWrFycknThxAlNfeYWTgSjLmNqExsXFYcHChRj23FBuIDR/0TuY+8ZMLoEk6u+71asx7sUXOdZIVQ6btmzBxp9+wtBBgxjt93qqF8qXL8cx4vUbN+L3P/5Ap7ZtsXjxEowfP54fbMzkyejz+OMcxiBjsWfPHqY1X3n1VUyYPAmFCxZAQ+5LIDQ31TqXLVeWqyWEFryuOSYPVspSBwjUKCk2Lg4ixNCAN7j5pwME9ttp61NLCkDUtpbmJ71/9oZFS2N6idwBtWmVgKDM9svSTz03QcEnUbWh7KMIRwgDzxtmZRC+iMPrL2H4RXmggX3R9nQ3bKDFO7Ip753K9qzYG7sfYblyonaTBrBH2Jm10M9OcIfyEhwCH9DunIyQBfATzyL+Uo2oBeQR9yJqHCiZVwIMrltXAQnxBFroRcvzIDSVDnfyKaSln0D65eO4lLAXVy8SKLAiMnthOHIWRVTBUojIVxrWbAUloBHleGIs6J7p3wQursId/xs8v7wHe8Kv3AGOARD323DBZcmOFKcdYUhDuOUi3PZIpJXpiIi7hyPh8GXER8egbL1mcCGb2DHQIhIzlaS5fJC9VWqklbEPglK4FKZZt3Ydvv7mG87/oZAjbUHf6+mn8dtvv2HxkqUoV7oEcuXKie3bd3DI4N5778WWLVsYTDzcsycD6XPnznKIoHv3bti0eTN2bN+OEiVL4vy582hzVxs+JzGaO3fuQuMmjdGjew98tHw5s5mU5xAeHo7Nm3/HtOmvo3TJ4siRKyeuXrmCiIhIDB8+jKsp3n77bQ5XJCaeRK5cUejXry/rrrFjx6FGjRro1q0bsmfPjrlz30RERBiKFy/GyY2lSpX+P3vfAV9Vef7/PefcmU1CBmHPMEShshTErXVUrW2t/XVp7bQ/99574aqronb87FJraxfYVq0KqLhQNgmEkIRAIGSPO8/4f57nPe+9597c5N5AEOyf248FknPPec87nuf7rO+DSy75X/boXHfDzbj4NRhHdAAAIABJREFUJz/A9OnTRSJ3lDxCcZNMllpykyuBGGJbOtFMsEUQeRC2rkdj7TZ84fgvIaASZwflNwkG1+QqhlQehFT33RvJ9t/8nXQAQVCNizLHRi5z9GLO57eKQUf1hvXYtnG9yEHwUJZ1vJQuOa0r02ZOnDzHNcMW/va3v+GFP/4Rd952G0rLyhCJ6Hjul7/EkV/4AmcrP/Tgg7jgggvYyicX4V333oe5c2bjrDPP5A2+8v2VfI/rrrsOO3c24ueLn8HPHn4ImkvDpk2VeORnj+LO2+/A6FGjuBzp+f/7PwwtLsY3v/lN3P/AAxwKGD1qNJcptre34d577mUX4Nix43DRRRehp7sHV157NQ6fdhiuvupqLo0iDwRVQNxxxx145NFH2Bty3fXXc8bxho0bOAlp3Nhx/GemAKF3DDGuZrikjuY9GmWA0NregdkyxEBloORWJ5d5Hx4EITvk7+XxpBDD/j+qQnhR7NTO3rfbTtvqjS3xeHkVnR4Xt+C2qCWqzeoowYFUX7IfhHgrYelLgCCTaIVijXsYxPMorGA3r5LvzrV+yeBAXBtrJhSbJtEjws29GIQnYmNlFXz5WZhFAMFDQCBZjMbfT6g/AXkshVz1ToIfeZpkrMOGTMzAptleA/JoCOY7ZqakiggGBtTzgjohdcJs34mOHVXoaapDsCfCddc5Q3ORP6IUWXnD4XINgaLlAm4KcWRzPoP40H6juRFlkWK6qP1iK7BjBfDxi0DlCiIcAPxZMMNBGN0dogLDlyuIhagh1/AZsBb+FMrIY1C3bgu2rVmFilmzYCCLvSoqhz/i/CTSg0DuIgmJndsy5hixOQ221WzjfCF/lp8TlEtLShCJRDnXYHt9PTxuD4cOSkpLkZubg7q6erS2tmJSxSRROmqanOBMzc7o2VSe2NHRyaWLw8qHsRLuCQawva6e8z3GjRuH2m3bMHToUBQMEcnHPYEeNNRvRyvlTZWWskeAZAvd0+3xYGv1FlRXb8WYMaMxpLCQSZIopFWzbRs6OzswZsxYDmt2dHagfvt2ToKm3IPp0w/nREkC/Vurt6JiymReb8nqaKclxWGsbJNtAwSGnJy3lCKp17LQWr0Ru+rrMHPhaQhpfpYImk2BnrLMsQ9uis9AbOy1YHLK0f7GKR16e/2gfr4Yi6Dam9dJlKRzDpQOjxHBDiZK8mHuWWcdhERJ6VaZY6HEpLgGdVWVqJg0iZNrnCWOye5AARBkv8O+Z1C6k8lioBKkxc88w3HF+fMX4MOPPuLYHSUB0mF+4okn8O1vfZsTiUgILVmyBC+8+AIWLlwIl0vDkqVLcf43zsfZZ53FLsP7H3oY82bN4kShSRUVeO7ZZ9m9R+EKKiXaUr0FV199NVsD9y56EEYkgnlz5nDMkHgPFi1ahBXLV+Dhhx/B1GnTWIBQUiS5+I466ige2zsrVuDCC7+H4084Hu+vXIk77roTCxbMR1nZMI41/vjHP2LkT2ENW9X0ORlOSyrhIjuZjuvSocBNmcyhCLZsreYqBmJSZGOUyy6JJMZWKE5Lwi5jI6NTBiycz+i/vW5fzt44wHD2Suh7tSm+SiqHkiVJgDmsd7ba7Rg834Dc/B7oig6DAILDFudvUe09lcEm9dngpC3Rgp0VNLNJxjpFOje6TEjstXNTDF8AYW6hHYMfVMVvwm3aPSQUBZsIIOTl4Mj58+DyeBng9GakS7o9S3CK4duZuvLXMXZN0e2U3oZ47gxQebEIpogeGAYUqmpAD6C3wjQDCLfsxK6aTehp7+SkwoKcAuQNmw5t2EQoXg8U1YVIhN7IDZcrCyZ1/1REgiRxZYgaGLsWns5+NAx0bIZZ9QYiVa9BadsMRbOgUBlvJAqVyi/NoFD2GpHuZMMsmABrzvmITjkTalYZdqxbi21rPsRUBgjEEeHiShZnKEFwTYi6Suk/iIECBymptJiJi0SjZE2XS3CkEIUxEQoZeuy8MdxhZsQQl0zL5eP9qoA9lcRBQJUI9Hdy8ZP3JBQkJsUsNkSosiovP58hHRGrkQeDFD3nakaj/GzKISCjicuzdeJH8cPj8/F9xDNaWcFzwqnLxV4DSiomXhVKOiSjhJ6bn5eHjo4OZOfmshOHcquYlIkNKdubxDTWdmWOIwYlZ02E1uJnKwGmcl8YC03Vm7CnoQFHzj8RYZXGTY+QDJbS8IttRgGo+UzZ4SDpq0spGhIO5f7Qu+nvGaukS38pX5ER02aix65/d7CDYzhG7EffECCf5pKI+Chx2m1EsX1TFaIeH4760sEGEGyZ6VznXniBAYKBzetWY/uWzZhSURGLF8ppSHQIio0sLbr+1Isk+qDSqTffegurVn2CM848g1F3TnY2Dp8+HSNHjURHewcn5Y0YORxFQ4sZWZNFT6VLGzdu5DLHiZMmcviBDiodUgo5EFKfMGECpkyezLkFVDNNiUtDi4rYK0FuPyodqq6uxvoN65kHgUIEdA6efe5ZjlPec8+9DIia9uzBPffeh4suuhC7m5rQ0dnFtNN0f+KFINcfuRKpDTMJArI4KAmSXJFs1/JJ7RuN8a/7YTOV3/RoGrset9bUoK2j3W7WJO5PrlPB/pj4EdaZUKzx3zrG0nvRbVd//2yHfLZiDQ77R5psAdlxZjG6FMo59iN7sH1Sa6eP1jhFWUoxkcKNneo6AWIdZaoOzoBYBr5lYVNlJfy5uZi14Gi4vKQEZYxevmuyrWIjmeS54MvshaLcAYVi/Dp0trn9TNbqodCLTmGaCBSrB8HWOvTsXovQzk0wol1Qc4rgLT8KeWWHwZudD4WVgJuBgM6kWdyxg30PIc5s8cILDUS6SzUjVHKphgOwWupgbHoDWvXrULq3QI8GsCMCtOXmoSzSimI9Ao3ubQbYiDDVPISHTINn/oXQKk6BhUK2iOrXfIRtG9eiYtZcglU2ALTpmqUzhfaSaqs5O1dTrEdiYwZ5jOJsqnaVj93JxJm3weyKXAFBOlXkqMiEx5hxIjN2mA1SMLDGmpCl2hC96ODj+Srxfa0wcBAsivFncq6p/UpxtGKnpTCTq02sLRN0OaTmLMiVnqYkny2TXcXDUw7yioTAmvSm7dhShZbGnZg1dwF3fuHW62Q9kOKKPS9+niXoTpIqvfugszJMLkzOUEkP0mXpqjj2/jGypN/Wbf1x/dhVUaLKRJx7cbn4LnXPpH2omSY8uo7aTZuhe/w45kxiUkz0Yu79eAf2zd5UyynAgbxloqgXtdmb165GPQOESRwWkOVIQvxJRhW7kx9z/cva7N4D5e3NB40Sw8jyNZlkZP2GDbj55ps5I5hcbHQNIWzSeVl+H7sAc/NyQRSqsoGK3BCCRIVqs22kbrcYpp/x0tgUqZzgYysrybVOi0UeASpJ6+rqYqDy/PPP47bbbmUlTx8CGHfccy+uvvxylA0r48Q2Ag6RMBHYiPuTpULWgaRl5t4StjtzIAChP1VLVgyVaVE2d1tbG446+mi2TpgzoI+mMqyYaZAZ8rULkZXZQeesAVmL30+jFDnnqaBBqq1MwnJ/flIBqZTPY/puG/T2MST6MQGErNxczJ4/H25q95zQ+luCAwm4bNs45rpJAkty+lkbCkIyqXzYwjd7oIQbYTWuQ6h+AzrbmqGrOSgYPQXeEROhFZRBcRUACrnzZadFAiwuLhmVRWs2W4EdSlCgkZLv2Q6lZRUiq5bCaN4OdLbAZ7RCtXZzaEv35SPoyYJXD8JLiY9RCj9osDQPenLHQZl3EbKP+DJAHAhMlWihdu37qNu4BlNnz4fBbI4WDCpblDYpz7HYGXGB6pzs+PsLgMCUTkIZJbGPckMc+3zH1tOuKGGZRIq4D+EuV4H/HMD2S+djk+Por+GTsw8Nj8/uFBrzQtleFAl4pMzhS21gJ0p3+wb1Ih8H2EF8MI27MHv2PJFoS/NPMtVun5FwBxusOnCc/ToJvon4/rS7xu7Ps9vfvWPG0AAGkBmokEYvgbZEKvvkR9HMULkxf4O8nbHGdyKcG2GhaUEzTLgiBmqqNsPwZmPhmeRBOAgBQrIHoRdAMA3u5li3uQpTJiUDBIn65RaiyesfIAh8IBszEWWyhdWffortDQ1MckILRgpbcqSTlU8f8g5QEiGLW5v2VQICWgl2+ZGFJGvHbaXNjYx0nRU3qz2bx53uQ78jMELPC4ZCWL1mDf71+hs4fsF8dt+z6xDgOudX/vwKvnjqqSgtL+OyQlpkybDIQk/XBXuii4Sgo5ZAWqv9UFBLWtt024PegcZCZVkEWpjC1Z6P/gACJ7oRPXVGByczgBArdcoAS/QS2mnGkdmhzehlUl6USXc+CaoSvQGpn7mxspJdw3PmL4CbeEISAAJ9h1MsHcK1Dw+C0JMOxS49TwSYg0C4GZHmKpiN1Qg174KlupA1fDzcI2ZAyRoBxZ3lqIywgQg/lbwgoveI05dBXA4wQ0BPE4xtHyFY+x70xo/g79zGbKahsAE12o28PMpiyIU15HBgyHho0WaY9R9DM7sAZEHPHoFQxanIXvA9KNnDuazS0kUH0fo176N2w2pMm7NAJMHZfTaYb0Kapyx05Mj6VrmiMaid0MmA1LH52DsiKk0S9w8Bg3QnK+64ISEeu+sAgEK63ZjJnuOV53CiqOSx3R8CFPXZMMr+Qpp+CUKlK6irrkHTzkbMmT1HeFQoUZzCM+xBiO9SEWiyk2MdO1f89eAECCJfqLd/Mt3apP+9KFu2VPKxiTmSXoFU3+X1o6nlCihRDs27VVEQIWFvUXt6QIvoqNpUBTM7F8d8vgHCWtRXVmJyxSRWgjLOFW8FKgCCqFm3AUIGh4u7BFCok2iSFYVJmBiBMShw1HHZqyDBgV2LJrYqewtEQxYmlbGtDPJ0MH2z3eyEgAbXyNvgQtxePIN6LNDPKdxBila4J6kSTbgeCcTQvYg1jjKGCVCw94PKjhw7hJ7BiloeKJvFr68WtvKrMrzgNIhSWToUXunqEgChoyMOENiDYKRuSxtPALNDDWlPQ2YAgYWwIWLWCd2hU9xfML5lsCHkvCWRPaUd8gAvEK7Q/j9CT8twh+xWmPo7ToDgSgkQ6G6S50Eq7rhlHN/rdvyfdxB5vyjHIAJLDyBQvwkd21bBE2xFXvFwqGWHQyscDyu7WBAmxWiMhdcsbgYzFI4BBKGho4DRA3Q2ILJtFSI178PT8AFc+m5YCCMSjCDoyYfq8iILEQ6jmWOPhTLpq1ByK2BUvYrwB8/BYzUi4vJDm342PHO+CSV/IkwlB5bpgso00Sbq1n2AbWtXoWLmXDtBMcFWt19d8lHE/Ru9xDwfVQEPbMLomMfB5rYS3h4637GtJtVieoAgFYszGTbdHtkfv4/ZqnaL9v7VnSSbkj6Y9P6MlqYWNO9pxrRp0xCNhEXvGYqIq2KHyrnjTqWam/8TXg3n28rnOn8mk3+dEHR/zFBf97RJ1tIApb0aEXN3kLgjJlLxv75mmnecRYFJkZYYXxnbg2CH0KhknYKGtdvqEPFnY94Zp4vS54G4r/bqZXp/qd8QQ3oPgomt69dj+8b1mDxxAlxuTxwg2OEFmZntzD1IuU0cOkJWvPM0kiJ2xAgTt138XyxabXIb7uDI7hzbTZbsWowllaXTBP23ZpYMZ7H6Y3oO1873rfBiMVIm7um7Q10MIAi7J2Y9SrGWPHJKburq7mbyJ2J7O/oo4UEQtLsiganXh2P/djy0z23t+JaDZbBP4SQ7KLKXV3hMxAKmnpMYJWyGG3ogYCLDWyZclqk1x1+SrpJ+1ptzEPLyceT8+UgNEFJ4EOzqC6HKbTpjRYNhUK8P6q7XBSO0A10tW9G1Yyu03TuhUShh/JHwjpgK+IbCcOVwfgJbKizmRblarAKB72ufREnGFG6D2dUAo2YllOpXoe6pRDAQRbelIVftgt/qgRG2EPIWQi+cANfw2ciedByUIZMAXxng8sDc8ArMZY9D19oRmjALebO/ARQdhYgrn8MYLgPw6BQO0RkgrFm5DCF3NgMESjCVTtrYdpRU0BK897GoIgXE6WmwM6BinU/t0CbnrzjkRgbgNGYTy4SdvdlY/XwnntgtL0oCSjG73O57wSWf/bvnOCGce9lQ6a0MJ/U9CJqV7u4Ay5ChRUOZaps9izY4YJ4RG7+K1GENLsXFVTu9AYK9y+wzb9vIDiA8yBOY6e0yWOv+Zkj8LlGOiW1nJ9Jy6XN/62Jzp8RI2uXUUQdTIMoY1oLbALIsDeFAGCWTJ+Oos8/8fAAE5+SxMy8SQTWFAKoqMX3KVLa24zkIhNblgRUxrrR2YgyMkvdA45gOWfnpsa90v9qJR/ZAhcfAmQSYdgSZbjWp9QQocWwbbk+d8k3lVTLhiQIuzhr6/ramcIXKVs3J+5w8IlSxQdnWVIVBgICYIUU4hsK9qWZQJF2xjcBxjExmWV6X3so2LbqzS+ScpEnCzGBnxCZHlgix3ZfJkDNcUX4zyaWQbptID5NMNJPX20BUuLJFTJya+7hzczHj6KOgEUlSQqvv5PmUe0c6K902wQPZJdRngZgxicNgA1qr30NXawsUJR+lwybCP2wy1OxhgJbLBFlU40GQgAorxc6xG/nYiZWcdEjNngxiTwwA4VZgy1uIVi2D3lYDT3gX9FAIAWKRdnnh9ypQ3bnQiibDGjsb2pjZUIoPg+ItA0yxztQPwti0BB1v/wreEeXwH/1VKIXTYLqKEdVEJ0tqYOViD4KB+nUfonbTakydt5AL6pjxwt6rsSWQ+idhrVMvvJg9wZfAlQOKCzrtQXaPE2IVbbKlmJezzc/qZy/J6ySnRLrtIW+XfEvn9+K/SyzD5e/KqiLiB7GtTpcpLE6SNqZqU4InH4Be7yByFjiAkGCA9VZ19NXNlVVc9vnF077IsoSexaEFO8QQK6KxREGqi0jCkmSdHjXhdZORpKPL8EC1NLipZTSVv9ptyjM8koN82UCEhVRWTrko/+7gRCH701KhEjmaSh1HKdzWv2xkcjWatVhTQ/Gacp7p7y7yUJsWtq2vQtjjwZwzTzv4cxASwYGwbIhCtXHTJix/7d+cqMTu9xhCp1pucVSkBZyJQJd14iLhQ2R8x4tDBnnPHKDbif4JVDMvN1N/m1eIJ1FSF58Lp7Ch8AWVa5G7l8qhKOxBJVdUKUGtbonnv/cTZLMiacFmeoAkQnaKODGRCXYPj5UUhzOZrveEC/yWicgV3xUWcWKh4GAtY2wmOIeu//lgL1EsNd6uFrG/I0Cj+D79aMbcuZg2Zy5ULnmLZWjEY+ux0k7p7hY9EGD6bAFPZ6kLVqAFobat2FGzAkZnE0rLpiJvzEJoeWMBqlunvg2y7M3mI4wXVcq3s59B+QXBXUBkF4yajxFauxye1g1whxuYaTFouNEV8SMvJx9eTYdVMApWxQlQp5wCJW8C4C20V0EAeC6SMYMIbXwdTavfxIjZx0EbezQsdwGXUHLUmqZJDoMAwvoPsX3zehx54qnczZF4KWQTrfia2qRWseTmvsCB8LSwl0QRfTqiihdRhbhZ6G5iTkVari1lyGNhh+nTAWQZ/+/V6rqPzddXibBthDvOS9wnKFUQgwBOZhMGhGYpcBNAsAj0KJT7aTOHJkIOkinOj0i+FG/rHE9KY80CKtevR31tLc4+5xy7S4kNEGwiMicvCoMl21Mrn0mjIeBgRTqhqSGEtHzRSE4264pF6QfrxO7P+9hzGd+wdv6PyAIRwIvyf7KgWPkwVBNRjSjc+/cKC3I2AhU0W0IWyNAV/Z3mlQMVpoHqT9YiZFiYewYBhL4Mz/05B7TGyZLQ3nP92ZRSZVEVg9HTha49zdx4RnwnriaEB0EqDxFnEZi4v4+4u5hAKRz27yR8lnePz6usIU5njQu2P3EgU88d59NTLF83OO+COdkpKVJzcaknU++miK0Lq1kIo0THa18zkmzxyrUVfzpHJyx80e+w7xW3f+eUmv0shrTKnbtsUNfOoXv6wwcSzwj8KzKSZWhCzhD1LaAkVwJ1RcOGw59P1QN2H+TYjCTPpwQPds8EhUiKyPfYAfTUINDwEfbsqIbpHYLCUbORWzwRqm8oQM2dRJaeXbstFC0rPenRiiXu2T0ZWmoRrXkT5qa/Q2vcwPwF1CRJI/+mEkTIykLUVQRv6QR4Js2CMvZ4IHci4KP38ACs9O31Z6FGjzNgttUj1NmM3NJRsDz5sCh8YVclMRCMoTAT29d/iPrN6zHjxFOgKxorQmZTjMkMIQEEk6UtIFNsJrkO7L1kQiWF4YBJvR9ESh8XbXL3SfvuDLnpTHH76v6knRiMjLU7iwv723uZwO34cbZpvO13E3+QeUReHh0eyhWkPCL2iqjQKYeK+TfiYFOAid4fqqtPfrtkVcP/toBNGzagflstzj3nbFFRwkBF2P0suxPxSK/nsfmiB5CNHoR210DvbIGCbgDEhzGoJ/UzuJkECNLrxOmHtm4SYI3RV/Z4+ErmQXf7EVFNGLIkN8UI4/lkiQyujK3tueU8RZosw0TNqrUIGibmnvnFzylA4L7x1ORFxLGFlnDakc5dYVPm9sriTp7JvlJNP3c7LM0mHigi7AdI8NTQSY7GLVTOv0i2VlMNaQDjEJI4s1JHOaaMJEOMNCGzg2+PY/B2hNNR2jsBtu9ByWttFqrYGXDMO0+vpItO9n3Yolt6EOyafBFLV5iU0DR7oHZvQnvla0A0AO/QKfAOnwdX7khbYFEymQ8Wt2G0q3hstzSDMwrss4KNAtE2oLEKRvUK6LUrgdatcEV2IBrtQXvUh9zsIfC7FYRVFaEhM5B7+GlwjZoGDCmHpZUCKllLNndHDB3E/8Iuae6jQaornnwqcIv979j2MdGw/iPUbV6HI06wAQKX29lqL7a4NkBIYrNMITUY6BJxFIW2oqRQiV2B2lfaQUCZJM0EQ6SA2dlgQWH3d99+SgY26eyapAExYEy3Qe17xn0a4nzJlG63S4MeDoL+pDllr6qisheBvasJH/F2zg9Ptd0aPXn8Tk+IAAgWKjdsRN22bQwQWEeRJdsXQEhxKGjk1Gm1wGhF27I/QKt6HW5XALpHEKFlCq5EqReNyt67mUmFPq+S9gf3cKFQrJ1w3vf6yE1KExMHCLwTKaRA3i5KGrR0hIctRO68yxD1FiJCxFxp9on0RDm9ODKEI3/HL6IbBz9A6H9dhAuMrAaRbiw5D2wlkgAUbLcMM6Ulb+w+nhJTRk7AsY875aD5utMqymRQ0gZIb+lkcrf4NVL4DkT62euREC/qQxLGzPB0XpIBjNox1HTyN/O7JgEE3s/9fDs2BvmXdO8nQwcyfunQrs4addlTgSQGWWx6G7p2rUZbzfvwI4LC8UfCXTwD8JQz6CAqZSZFIiZFTjQUAEH0LhA9FzS9DUqgFXr7dnRvfBvajg3IatsKK7ADqhaBqploC7oQLCiH5i9EVtEIeEfNhDb6WGhFU5gmWbhI5DtItiKHdhNPZhd/mLhQLGoeRtpXnPUYbpIZ77yNLTSs+wj1MYDgsr0HToAgwavj2ekWlfghmCWTYEIEGjE6WkQqJfgV5EcI+3iCA/cD6VfFSFKzfgbAt3dsHPv+mezTuDdBXE318gTquIRR80M3/dAVP+dViLBr8hYdGEBwKijhTbEBQs02fPnL56QFCKm8mTSCiOJFXnQnuv7zJHKrX4UypBzBgjFM2ZxxMXX/ueHpdoD9ewkLxA5kTxR1CaZe5+RS5YR2ShRPvp1zZtnFlJg7QV4uIwi1YxtU6mcy8lR4FtyMKCUGJ3tZUoy0L4Ag/BPCX0bnl7zBtavWIMAehIMwxJB+FRyWpDN7uFeiAV1nW06xxjvp7y4kSyYxeqcIyvC+B/wyW/BlIjkSxro/AMJAwEEfE5dEShO7Kl7CMLgzPuiYUSo9cskPeFEyTPC0lVxCmEgmQ9lJiaZs9EQKuRsdDW+gqfpdZGcXo2j08XDnjwK8+VBV0cNDpH1ZTO3MSyAzqKndMinE4B5Eq5dDrf0YRtNGmF3VcBlhRAMGMx36vDoU3UTUU4zwuBnAuJnwjzwaWs5kQCPeBOL6kAaAbQywNU2hDweLpEAmgv+DwgmWDs0Mw6I+DqTQSMlJgqvYFrawfe0qbK9chxknnYIoF37Z2TYJS+AsQxR7NeEU2NuXBS8JfCMCl6Yj2rETbQ0boYbbKRsBmhKBGstBENtRWNiCO5Kt1VhYM/4ESc0tpZg0hJxDFLZM3D5OsJTteJSI14v7sq/C9gII6106r8Wo+N60DzUdEVND4fDD4C86DBGlkEECAS/hRYh/4nQ9iUeNS7ftxEfnb5IBgsu0sHnDRtTW1ODsL58jPEEENmVUqFeIIbGMUtxbgWK6kKPXoWXZY/DXvw/XEefBrPgqTLn+Utz0c8w4Md0uCd9b6SQSVeO6gUOwKtGSW+hsb4fP7bF74SQORGA858zG9RzngzAN8m5Et/wd5tpXERx2LPwLb0XUNyTWXi3G4WHPSXze7eq6WN6L+I14mggRih1iQjGiqPt4DQK6iTlfOv0gSlKMz2l6oR6La8rjJr9iT3qCpeW0QtLfmqcqY4CQQS1zJo/8zK7ZF8aOvVFgqV5sb49eX5OUNC4G8Lag3V+PGqyp4D1vWxyZZNL2moJ0A5GWsGPdY8KL/kKsm2GuBqB8AjPaidbty7G77m1kZ+WgbPRx8A09EpaaLRI6bfcrUS2z4jKo2oEUHHVC7IFldsBs2oLwujcRrXkP3o5tcKuUrKojqLugqT6oigtK4Ui4x8yGOmEelOFTAH8+oOUDSj5AYIWVgrCgYh0j+d8yZOKcCDEHIiVZgglxHatEmbjhmKqGtZ9g+0YCCCcjonB6m521L9398XlzznAqhScUuCloatGJ7voV2PX2r5EXbWWSKK8agYvm2P6QlUZkj2GDEv4iUBTqH6HBMokgLQS3asDnpp4UfnREDbSHghianQ0vVRAgCoOyGzQNgZ4AcrJUgiCCAAAgAElEQVTzoGkE2hR0dnXCpViI6DrcHg0ebxa8Pg+6WlpgUv8KuJGb7+Xnqr48dHd2wwpHkOv1wk1VAYrowErdZg0rioC7EEPmnofc8ScjqBSB3o6SUQXVsvNgiaTjVJ9MAIJmWti6dh1qt9bgjK+ejbB9M8qmd4IEcX87Bs/7ID4G+go1KvPqtWhe/iSyt78DddYPEJ5yISdWMi4S/4fOzi489dSTaGrazdVW1JeGmvF978ILkVdQgJ6eHiadI2AZCgW5yRb9XaNyX8sUDLfEpmuaguPG9k4xEKW0najOdPn07j3d3cjPy2XQEQ1H8Morf8IRRxzO/XaoXbtwLtigjcPmBHbpuxRGEHKB/kcV9z6zFa6eKlhN7yPywcsIF89E1oJrEfWWQWcvngSXMb+ZY0niPMIJINKRsChCFAZceohDDD2UpHjmmQcZQBiQokzelX0JS3nYM715UuOefr/mSGLK9PaHrtvPM+AMOe3nRw3a7RNs00G7qwiBJ3mNYnKVwC0pjihXLVjRENp3vI+dla8it7gUZRUL4M6eCEUdwsolpuCoFt4mSCaLncsUO2thNVVB312JSN06uLpboHY3Qwntgouud+ej3T0KZnYZcoaNgmvSUdBGz4OVRTkGWSJPgAcrBKMotyMLV7RfVmzGxX2bmLhl17DmUzTYACHMeRp2bkBCSbSd6Z1kBTtXSshw4WLXVAs+cw+CNUvR9Z/FKKCOqaOOAVxuTvqTjnn6Pntg2PIXrIFMg0vJeeFuaBpRTHtgKD4ECMIpBgq8HhjhHujRIIIRA5srt+HIOV+AYlhQvDlQqOeJCpAXO6JHOXGbYA89Qdepu4XBXWQpN0inIhVqikXeH9OEm5SfbLZF/AN6D/Rt7zKXhXf+BfCPOx0BdYgoHWaabQmn4qvRHw5PlsrJ17qIuGr1WtRVb8Up552DICVokMK3y7g5t9S5ZznklAQQAHip4iJah5blTyGvYTmsWT9CeOr3YLhsD4pd/tvc3IJLL70EX//611FQkM/0+jnZOZh22DRobhfcbg9T1HPKCzHoEtstUXjSmhHdPit1mkfBUisZJQWrpPi53+dFTyCApUuWcIdf6rVDQLqpqRFDiwq5Q6aTolruDY1yCQwVxBXl8fi4Eozo9ymfJdvVA194K6K1b8D49C/QS2ch+5jrEPUOQ5TJjNJ94q3q5ZUEvqnskUAfsZBTiq1HD2LrJ2vQbQBzz/jSQdjNMd177vffHwII+32K9+sDDgGE2PT2CRCE3cseBEoKCysIN29Ay/Y3ALUHwyafDlf2BMBFvROIwpvip+Kugo44CoUojaMNCG1+E1blMnjatkAJNsMI64gaHmiWBx7yLGgKov5h0CefAdeEY+Etp1LFAk48BDwsnEQuHuUvCPe1SBGj5jGU/Cq9BvvqDpL7QgUBhB0EEE48WeQuCO7NhEqGWCmYAyAkgwPpu2C+BwIIBoVW/obu5c8ju7QCWcfdCMM9NMHiZjBE1QFcWeFFZyCC1as/QuOurZgyeSKmTJ0OLaIgGrGwqa4aaypXozg/F0fPm8MENsuWfYR/Lf0PvvaN8zC0sAhTjjgc2zZvxqixYxAJh7CnuQlZWT6s+2Q1z+vsubNQPJSaVCloaW3FJx99gu5AGJOnToM/Jwuqx41Ro0Yh0N0t+rlEm9G15AZ4gzvhPvoC+BIAAoE3wUw7GB9aUQIIDavXoX7LFpzw9XMQ4BwIB0BwECUJr4Ez8VaMgsCVl0Je0Xq0rHga+dtXwJr9I4SmXgRDM2x2S8GGu3v3blxzzdVY9MAiFJeUwu0WOTTd3T14/8MPcPT8+QzmCCR88MEHWLjwWE4urNlaY3fiDGJbbR3GjR2DaYcdxh6GcCTMzfjqautQWFiIWUceyY34Hn74YXzx1JPZYzDziMOxuXITxowZhcLCIvZCvLdyJXsyaE9QR97hw0dwgvDmzfUoKytHVWUVtm7ditFjRuPw2Ueg0NMCa9MLsD78I4zSo5G98BZE/EXQCVSl/fQNEOjcRRmJR+GJBrFtlQAIc848BBB6T2uMkSqd+5a+mpz8lXaVDl3wWcyAs3XzZ/G8fX7G/vYg9M48F1YLmZNRhFob0bT5P1DVLpROngt3bgWgUpIggQOK5YsmR3StpXdA6aqD3rga4c1vw2pcBV+oEVq4B4bbj/YuBR5fFrJzCmDmjwHKj4Q6ejbUYdOhZBPrITWOins1YonjtteABZWADlA4EVlWYAw+QJh54skI7QNAoHGSF4CDGaoLPqMD5pa/ovudn8NdXoGsExZBV0rt0un4JuGcUMvClppa/PZ3LyASDSErx42tOxpw1lln46xjT8R7y5fh9395EZOnT0Tjjkbk5eRxK/e//eWfWPr3f+ErXzsP5aNH4bBpU/Dzp57EhRd8D909ATz15MMYPqwEhUUl2FS1GcPLy3HFlVeiKxjBMz9/Gm7VwtDCAm75XF9bh29/5wIsOGYhW770cYV3o2vJ5fCFtn9mAGHn6nUMck48/8v7ABBMuPV6tCxf7AAIFzJPgCQRIoBA3XOvvPIqXHHlFWzZ5+TkwOvzMdXzdddfh8cefxzFxcXYs2cPLv7pxXjk4UcwctQoPPDAA9heX49p06ZiT3MLPv7oI9x2622YMXMG3n77bbz22muomFSBTZUbMaysHMXFQ7F48TM4+eQTuMPtwmMW4KEH7ufuwEccfjh+85vfYNOmSlRUTOJuuA0NDfjOd76DSZOm4LnnfoMdDTtRPnw4h5I2Vq7HRRf8D049ZgKiVa/A/PglYNh8+ObfhoivALoqKdP7E0QyGTYuawTZkqjziFKZpAMg9PzXAQRHmDUT1Z48lXHxMxBhPdDwxT5rkkM3GOQZ2Fe1MzjDEXtub/Ztf88X75Zqj9qOblLAkSZ0bP43mhurUTZtIbKHzQbUHDusIGOh5F/thtVciejOVeja9gms3VvhCzRD7WmAzxuCaoRg+QrRYQ2FMmQ8citmQR0+Exg6DaBmSQQ07MZINt1jrxI+soPC5MKVAEG+XKYVSP0uRm8PQqYAQU6jUzKwzSbTRzhTUYXfaIe+eSkC7zwJd/k4BghRhSo/EgEaYa1INIK//u3PeOWvf8Gihx+FPycff/jL3/D+Bx/it088jspPPkAo2o2KGdOwZUs9HnrkUdx9753oaOvAM888i8effBpdgRDaWtvw6MOP4Mc/+jFCoTCuv+5y3H/vHaiYPB012+q5Jfw9DzyAXS1d+PUvn8MDd92Kwmwvdu1owEXf+wFuvuk2HH/8STGXtxZuRMfSy+AN1fcCCFwCSx6dARCM9bs/iRnRMrGDAUIVTjz/3EEECD9EaNqFMBwEQmSpt7S04KLv/wDlw6jBnYsTBqdPn45Zs2bhkv+9FL9/4Q8oKyvDrqYmfOP88/Hss8+ioqICP/nJTzikcMuttzIZ3JVXXIkvzJiB73//Inz3wgvxlXO+jNPPOANNTU34eNXHOPyII3DvfffhsksvwbixY+HSVNxx260444zT+N833nQzrrzicsycOYPzFn75y18zULjoe9/HL37xG7z73krcd999GDd+HJ584gnkZ3lw8Te/iEjdP6F/+nuoI+bCM+8mLnO0uCQy3cdZLWOnJ5qiOwP9ixo2xQDCJ2tAAOG/KsQQo6tNajAqxWN/GQryrDv/TDfdh37/+ZiBdAAg3e8/q7ccCCzNZEypUpUcNqzNI9KNQNMnaFu/BFlDxyF/0ulA1iiudSfyIM4xiLRC31MNvWENzPoPYLVsRDTYCuoqThQHfsWCzwO4c7IRzR8Ja8xcuEYfBVfRJMF6SJUP7Imw3aB8EO3k3qTJp19FbIBAVM3xHIoMCzb2A0BIWJdYtrd4UDwtjHIQDPiNFoS3vI7QisXwDhsH34n3IqKV9uIOoKx2ii0/9dTPsORfr+Lsr/wPIroHW+vq0Nq8C//35BPYWV+Lt5a/ic5gD9pbOlG1uQp33n0HceHivkWL8Nwvf4menjB27NyBhx58CD/96SUcK3/0wXvwi2d+jqzcIaiu3YEbbr4F11x7LTas34gd22tx1aWXULohJ+PdfefdOPP0s3CCDRAofKQSQFhyKbzhRIAQZyfNJN6dyQ4V+IoAAoUYBgYQZKhBPEeEGJI9CAIgED00/8+ubCLPycUXX4yfXHwxfB4vJ2WWDytHJBLGD3/0E7zy0kvs6t/ZuBNf/8Y38MzTizF5cgWuuvJKjBg5EpddehkM08CTTzyJYDCACy+8EN/87nfxxKM/w9QpU2CYpIgVtHe248YbbsRlV1yGMaNGg7gQbr31Fpx22qnwe3146eWXcfNNN6K0tBSRSBQffvARXnrpJVx++RX4wx9egtfnx3e+/R0MLS7Gyy//EVUb1uHqH38dnj3LEV3zW2ij5kCbdx0MTxGxDmYw4bKahS61AQIRynFrAeroSJ4WHV4KMXyy+r8XICQzb/MmzIAid98VxWDbfxms+aFLkmYghcZJyHfuY8L2ffH3eSX21+5J/WokIEj512LbB69AMQyUTT4Z3qLpgNsPw4hC07uA5krode8hULUc3kgj3KEmKOF2jjZ0BFSElTx48suRVV4B3+Q5UIqnQskfD3iGxEsSNVn9YE9RmhflX9s5CTZC6LPh1sAmfe88CHK4sT/tCXUCB/qRWzHh1ZsR2voawit+Afew8XCdcidCanFi3wAahqow0+hjj/8Mbyx7Fz++5HooLh+sUDtK870YM3osnnru1wjqFk459SQogU688uKLuOGmW5ip8e4HF+FXz/8fujrbsWt3A+64+25cde0N3MfgN08/hkceuAeKLw8ba3fg9rsewDVXXI5d1RtRtX4Drr7mGqgeL9raOnHvnffgy2d+CSced4IAPKRoQo3oXHI5POEUIQYuiTuQAEEmJ9KMxyvIyIHjgQGPM8Qwh3IQRIiBvXMOgHDFFVdg0aJFKCoq4ryCrOxsVFdW4VsXXIC//O53GFVejvrtO3DBBd/F4qcXo2LSJNx2+22YOmUavnbeV5ms6Nlf/QI7G3fhkksuwTlf+xoWP/kkKiZN5ERFGk9HWxuuvOIKXHfTTZgwbhwTi15/40344mlnwO/z44UXX8TNN9+MosJCaB4PVix7Gy+89CKuvfpa/O43v8fYseNw5llfQkF+AV7+08vYUrUKV/3vV6BuXw79kxegjTkKylHXwnAXZwgQRJ6Pk8WCwgtUNUEAgUIMlLDMOQgxgEBVDAdLN8eBnfaYe09Wu8hXl+1m5IHOFCDIx8cEajqJnSB5B9v+G+hkHLretiWEdnGuXap1PAgAQWzFHGNJt+UyW+W4XZuabJp+b8LUOxHduRy7Ni5H7sTjMWTUAsAgu70b2LUa2PI2UL8aofbdiOpd0NQAvGYP8xmEoh6EcsdDGT4L/vFz4CmfBKVoDAxPMRT4EmPufUU40r6M8wSnvTiDC/YOIEhPgdNjIGWOtNs4JKIAnmgrQlv/ifDyX8BbPgbqKTchpA0TbJP2h6fDshAJhfHKK6/gpT+/gkWPPYGS8jJUrl2LaE83xo4fj9vvuBvnfuUczF9wFFatXIFnFi/GHXffB8WbhXvufwCLHnmUXeStzU24//77ccUVl7Ni+u0vFuOB++5ByHRj684m3HH3/bj2qsuhhffg2cU/xw033wZ3dh4aG3bilquvw41XXo2Tjzs+BhCs4C60L70anvCO3jkIgwwQaN4oSXH7p2tRt7Uax3/tbARIH/WZpNgXQKDmYDq8ej2aly9GwfZ3YM35IUJTL0jwIBBIIA/ClVdeyUmKQwqHsCfH5VIR6OnGV7/2Vdx1682YMe0wfPDRx7jm2hvx1z//EePGjcUtt9yCGTNn4mtf/SqXMT7+2GOcp0Beggu+9z2cd97XcMKJJ6KlrRXvr3wfxx53HG6++VZcftVVGDt6FIukW2+7HaeedgYmV0zBDTdej0v/9xJMnjyZU3x+8/zzXKL64x/9BI898gjGjh2Ls88+C7l5efjzn/+Mqk0f4/qLz4G2/T3on/4RKgOE62B4S+xS4/RHIDVAoCRdR4hBF0mKAe7F8HkHCElzIkWjk6VKHkiWw+kkcOyi5BaQyYEKp11xCByk35qfxRW0DnKd7JhvX21y5TqnaYz0WYw6ZYrAPj04DhCEVUjlV5IXQNIPmTB6ahFY+0cYbQ0YMu870FAEo2kLeja/DvfOD+Hr3ALVCECPuNCt+hBRLGR5vFCJmKVwKrRJJ8AzYgbUvDLAkwXT5YWuerg3omYzMvJrxM7UoCOhAc7S3gME+aBU4Qb5itSG2GO0Ily9FNHlzyGrvAzaCT+G4RoOk0iGnDcxDa6L39XYiGcXP81lceUjhnM+wYwj52Lugvl4/rln0Lp7N8pHlKGmZiu6ujvw3YsuQtn4Sfj1088gb0gRxk2YjPGTJuHlX/8C377w26xgXn7+N7jl4UdhRC00NjRi0b3344eX/BhlpTl49udPIRwKYuSo0Wjb04z1H63HD374Ixx73NGcQ8GcU+FmtL96N7RIawJAsCiHhGv3B8+DQFNCAKF21Wrs3l6PBV8+wwYIRMJlE0olVDGkBgikYd0U6oo2oHn5M8irfROY+0OEp4sQA1MAmdSIyOQcBLLc7777bgwZIgCCz+flhNi7br8Zne1tmDhhPNrb2+08gHs5dLB48WJMmDABJ518Epc5/v53v0NXRye++93vYtnyZVi5ciWHJiLRKIqKCnHSySfjhRf/iO7ubgYWs+fMwbO//BWOOWYhvnDkkfjzy3/Cxg3rMXr0aAQCATTuasK3vv0tTJs6Fc88/TQmTBiPE08+CdlZ2fjb3/+Omi1rcdm3T4ZrxwfQV/8Jyph5woPAXU3tyUpzIv7/AQhOWUMxnwTFn9rN3Csjqq/JpIQP/i+RLyzx+06mxRgsGaDAOnT5vs+Ac61pHRzUwmlLseK+4nS4cd/H2f8dBinnK+VDqDsbtypTXIioRAIs/Aqu9k/Q9e6vkevVoBTPROfO3dB2rER280q4Qm3QaP8rFnTLjU7PEAT8xcgZeRj8E0+Bq3QulLxRUN0ekVtAWdQaE7VyMqJiue1mTU6t2Ne53N+z6xgDCwoV2+0yR0pSjNhVDJL2Nz7K1KV8CVx39sXU4I3m12u2I1L9d+jLnkFOgQuhsbMRtHJgUQ5GLKdCVGVomlvEqht3Y/W77yMSjuKw6VNQNnYsTK8b3c2t2FxZyaWJEyaOh2WEMWxYCfLLS9FYWYW1G6vgLSzFYUceiabKTzF2/HCYRJO7tR6TTzodek8IRkcHatatxpjp05CVk43Wxl2oXLcG4UAXJowejT1NXRgxdizGThqDsC5q/K1oD0wqXVVdMYAQVIitLxEgDNaZISbFrR+sQkdLE+accRKCFJKyBgoQqJpWg1/fhZZlzzDVMuZdCHXmhTCI7po8ZuS1iUS4Z8P7K1bgmGMXwqW5OEHQ53HDDIcQ6m7HO++9wwRJU6dNRUtTEyZNnYrCvDxs37mTkxNLS0q4HHfDhvXQXC6MHjsW7twcrF/1CbZUVqKkuARTp0xG6bBy1NfV4ZNVnyArOweHHzYdLe0dGFpSwmED6ni78oMPUL25ksmaZs2ejVFjxjLvQlXVJhQVDUVJSQlUTRMAsXM3po3OBWrfg7HmFShj5sIigOApYz6LTNajL4BAeF7nXA0RYqjhJEUL8z6vHgTmfScUHolg5/YGJgZhJM+9X+3kJtsJQPXGsmFLrEdjH7PJQkKh/vXx9qxCvPTnkz4EED4rEd/7OcnrIv4tOp6lWTeZWX6A2pkmvAsPd2/jHk6PgbyH9KQYcGX7UFBSBM3rhaG6ud5Zs8JQGt5E24qX4Dcj0MM6IsE2WKE9yDI74Y10cEzXcuUgnDce+piZ0EbNgGf4EdByx0LX86DCDc1tNyRSdYBolrkNLdEkE9VxmvfJRKIN6saKEyXVE1HSpvU48oSTbJIZSshMakNElRMpKAKdvkPnDlMUNzxGB8JblyKy/Dlkq+0IqR6EdZkcZsfCocCwqMdBARRNgUfR4dMspmoORFWELRc8LhVZhCmMKPPjB80oPG5iorTgUYlUyUC3YaLNdCOqG8jXQshTA+z67ja8iKh+xm1eRYdK9NOaGxHdQjgcgUdT4PeoTKlLpEDkFYgEQ8zLwFyUZhQatc/OKoV//nfhH3cqCCAw/wCvKbfDykghpVs+vptlYeuHq9De3IQ5p5+CEL23GQcIsaPMkl1yMNAqOGPjYo6zjUa0vv0MhtQuBaaeBHP8aazM2YNgmDBCQbh8RAoWheLzw+BOoqb4mR6BEgkBOTR3UVguFzSdeCstWJEIXF4PeyDI8+PSNAYbxKpI93f7/bCoiyp5KYhMiTg83NTuW4FJc8tERnTwyM+kQLcsPo+WqrJTxgxHYJnUEdfF/0GnXiUupmjm/ia6gYgBuIwQXA2rYGxaCpNCDPOug+UpESovI29o3AcW71YqmEt1rvbQ4dbD2PLJagQM4Kgzzvi85iCIY9re3ILXX/sXk3xk+f2CjYxaD9sNKOJuvaQmOLFeKXZpmd3qVXQzI3rXxAYqttpJsd8/f+GF3k1YUx/jOKgSjGLp9Fey4EwnHDL9vZDRYgWSDwGLNLvHgAwwxOhL+233LJ4uxpwqSJ7p6AbnOhqH6Oee9HFQocrfiNcV+040OKQ+gkRnxN3eESE7gOmDXTB62pEzJB9HffF0/hN6K6zOWkSbNkGpWY6emvWCb0BvgWJ0I6p40EndFX05yCkaBnXEYbBGHgmUTwZ8hTCYDjkLqukWRD+x6bOTHqnqgVOCqcPjwQYQ7BlUgG1rVmP7pg2Yd+KJzAlp767EnRBbjMTy0z5xjaLBbYYQbVqD4JYV8FhdiFokS+gJMjOK8i0VWJYfpkVzSRS+Ybg1Ay63hmCEGO08zG7o02hdDeYn6IqEkJWdhWg4BK+HPA8GukJhhDQvh4/8agQeK0BUfwhbbhC5MyXLeTSLv+PS3HB7fNCp/0U4CJdOPTMUZOflsUIjpedxk2ZWOENfpzJM9xBkTzwanqHTEFaI1EqN0wqnEwYDOBYUAahesxY7G7bjuDNPg06bmbpyxu282FkVRFqCadMpkJhS2wwix2pG07L/w5CaJdDcXoT9ZZyvT020iAWRjEqXS+MQQVTX7aZJFjTNJYqM6Ty5FOhGlKsRfF7BZmhYBicW0s/CoRA0WkOiWlaISZFYDwkU28wilsnPIplJXgvDtOD1EF0z0ViL+1DlBHXJ5N4H1N/C5qAgngbqB0Fr4nXT2tJYdBiGiYAhWB7zjTagZzuMcSfBP+8amN5SERrKZM6Te9cQk6IN9qgclLzmqh5FJXkQTGDB6Z9LgCC6t9HKtDXvwVtvvI4xo0djWGkpu2eYDjPWlSux4Yrg45blU/GchJhyiWV59p5u/m7yj2PCOpPVOTiusYt+YlX3whZIIcypNS3/ZwuG/obvLP/al3YPSc8Q+9leLwqzJbjSYv6gXiOTIj2jQ5PZ0XLMUSZ3lfOZybVyW6XiQZC0svFXtOwujOw2tUsCvYoCH21t00IQQEj1MgFKeHsVdtVuw9T5C5DjjsBqeBdG3Vswdq2GK9IuFL3mhUnAgaylnJEIF0yGe+RMeMfPhlI6GYY7h8EG5zGwICUFJcmL4krXNmMSAVcqjJDZlOy/w6KQQlqD+spNOOaEE2xlI/oJJNvFonVyhvwUtqWqmuRJIY8mgQJhvSYLDiFLBIOfKDmT3g06a5QL4PBKMn5NDqXJeZcBeumdkKdbgk1xGMXdxHmhSgUjFGKrl61VUma2gSSUnJwFWmM3TEVQLNO7JDZ3GqQlIsKoqipUb9mMM4j7n9L9ZaOnpEdwbwb+z6apjr2XBc0Iwqf0YM+nb0DZugy5Ris0RGDI9UtuR9LH8OOrLTZqqu2aua8veUf1/U3nb3jJHQ8WfyWaaxqPwaFCffgCDP3C92B5hqRt9SxelXKRklhm7Wfw/pC6TNexbvU6BExg4Wmfy14Mpp2UYaG9vRXvvvUmZ4JSPSnzZlPMVVqdKh0IQpz2QeI/peWVWojz1osdULmL4pZqDLvahzYT1464lMaSmXQUDWZoHOkPoWxGk+m9aeex24rRaz8b1gYIbo1cUGmoVfcXQGD5SQx+1DlXdHmT7xnzEiV0KRQHgZRoL7HcR+dHoQQynef9tCYxUeQciHDnOrsXxnoUkOPTfkcS+h5qtMOsiBFqtwJDowY8UYS2fYTm1StRMtQLX9tGGI2fwKW0IWIGYRg0r9lwZRXC7dYQ9Y2Aa9opUMfPg1owFnATAYuHrSaNegWwjCK3u5PZMBWwTDGXGcxv+hUYvCs2r1uL+qpKzjSXKlHsJ0eGgcNtm/Zsyf3PuQiZvWxvBSDej7r/0cHnkUgBnoFGkk8V+0KAR+F6jqkHXju6P/tMbFnIHS/5PwFn+qqol0NgTqjBWwp+xa3V1diwYQPOOftspkN2nnP5KKnETJJfxEQpu1Pa3mJ+HSrPjQaAQCtUhDlUzD0P4mJ8EEc+yLdybJvey23rH5Z1JL1VwFMILWu47T8kr3l6siRqLd5XZy35ePJerF4jAMJxBBAc5aSD/Mb93k6xmNR9bz4mo17aIu0dbVj51luYOnUqSktLGH1TViqrY7tLFiPiWJxZ5CPIAy8M1MRhcK+yFEMTjsgMTurevNJn+B06LuxOykAr0tuSOy0jmaepnLQTNU2u8U4FPihGJ39Of2eXWhpXtBBc1FCGoneJ88+d/lJ8pLs+cWUP9h4NKURzrE25eG96HxKQ0urkYgHq9wMNPk2FFQ3ACAcBswNWsAZq9VvoXPcOPEYAuS4DqtEOywwhTLdwexDxDodRMAn+UVPhm7AAKD0CcFGfBMq6t+eWHkCgm/eMAC3yPMXWI92x2MuTPvjHQmjMLRs2YFvlJixcuFAkcMa0kPPv8fBjuuGTvBD/y+wjPJkpJi2h/ErMrjRWMro339j/C+QAACAASURBVNNk8Cg9B2JEsgNjnHxKnrtYN8LMhi5kI/NjDw5MoPer3rIFDdu349hjj+UQAD+iD7nA5g2BIIdQoremkk+qIBChUQcwcsxp7K/p9muGczGYlyXL2MQhKqKraUwCkiwU1STkUUhMqO9rVNxAvE+AYG8T6LqBjRs2Qnf7cNTxJ33+AcK7b/4HUyZPYQ8CbRIOMciP3XlMMGnR/CZu6tSWwX8/QBCtdDMSOQkAQZTM9XG6VAUujwdRw+A4ZgyExb5jcSyN26m63fD7fGnBAYs2GyAQ41cyRKNOZMmjEZZGCoHdhwdhMA/5vt1L+DwSfQhEZCIFgYi9it87PQiAx7Tgo/57nY0wOmoQaPoUkba1yN6zDlqgFUbYgseVB9Xl5e6BJGvIEa5OOxWYehaUIWMB/3Aoqp/zGKRSEaqFnplY0SMTKoUlmsFbZ7bVMrjRIFximcz7v+7jj5Cfn5/gVGeHcEyLxL1F/XkQYpZ1r6HJl+49Qb28W328Vhy4ZPoNcSPRHyLxI6BP4lhkx8JM7u70IAzCKgh9RHF600R7Wxs3Rxo+vNwGM6kMt1gmkh2SEaV9AvrYLb5sWmW7eTf7zWUfo/hcHrx2nhMk9JZrBMzpJFLapFdUC1EoixsKc8PxDJYlHZgQeRPUErts9DjMXUj8GM4wfQaPGKRLBs2D8M5//sNMV8Sf7fG4EzwCIutVbDbyVHMcLl3yFPuze0u0vqzVQZqPz+w2rDrt2uB0D42JFK4OEe1OCYSl/GgKtzhtbWtDdU0NZs6cyQKYknyIw5w+VBP8+uuvIzc3F8cdfzxnXUtBwYKNkkNj6yOOCCUhiv+xXzFBxLGzNGmphBKNhxniY3VSjaZ78wPzewkRhJeA3pWoUMV8017mLocxD4LwormsCLx6B1y7N8Gqfx/6tjdhBWrh9hoM1rojKqyIggK3BsVVCpSMg1JQANOTDe3wM4CyeTBcudAVH8+txq5ZIXCEM9r2EzjML0EmK/LZP1cAwZa63e3taN61i7vwCakgPoKyNr6hYsAgA2dnKpzEnoUU8mYgeIkBmn3+0u1K5xh6K5g4QIg9ny1xoTDZfhIbzY5H936aDEOkG0emv5c5HryPPT6Yhs55RrZQ6HUbmbgotl0czAnLmOsNeL4NaLAogdDuQhrbw/KOyTQ38ueDmD+V6RzEHt3XmOwLhOEThql2c5WQQvlDII8J5QUR2VEmHp1ED0JKCEvhSkVDXlExhpaP+JwCBPZBGWhvb8OK11/HpEmTUF4+DC6X2y4zkYk9Al/KiSCklQlASK4XFSfIjt0NdOUPsus5/yBDa9oJEAgcUOggQoi/uYVLfLjMx7KYkYw6ovWEgvjH0n/ijjvvwr/+uSRGAqK53FyS+vvf/x4PPvQQfD4/zvrSmewKpLU77bTTkJWVxQDE66WMYId444PjUFQJh7zX0ReA0I7PJ0/94BRn7a8FFd4DCv8YPH5S0nT4CSBQHZIOjcqQNMo3sODWe6CEdkLd/SHUXZVQdlTDbKmFaXRA0YJcz2C6fehx5UHPGgl/XgW8I2dBGTUCemMVIihC1tQTAH8ZLC7JIouERDVVIoh6Hjm7UnHYkpuBSsYAYSDacH9NrUMBiL/G1KFD/EpwkDxgh796wONLfs6AbxAfboYeP7EySfCgrzXIRKfEhryfFpJkOYECSoA1qbzcDr+kNOSc7xaT6nbIzd6V/D1HS+j9NOy9XMmBfS1Zgyt0NgnUCorkeMbIQKz8FPsj4XxQWaUoAqAyy5T7aWBvsVdX74MHgWZNuJTaW1ux/LXXMGnSRJSXD+dSHUqqir2vHWKQ6Q6ZA4TeJWcic/u/45PoMrZlUIrwgRMgkCuQvAGPPf4YPnj/fS7tyc3NQ3PzHjz6s59h/MSJiOpRvPzXpbjm6iuwuWoTK336TncghH/87S/cnWzkyFHcCrWubjvqGxpw0w3X4ZxzzuFr/VlZfRikvZNEhQgUXgW5MgIcCPGfQswftIsn3oWLtRgc6JQnw5na9vuwgRRhb4FfjcIXaAJ2VSG4bQXU+jfhszqBUJTdjlHNxW5Ctl6zi9GqlaDg6K/CP+4EKDkliOxej67Kd+AefRxyxs5m9ySRsXCVAp2XpGxvqWqEES1mNWOAcLAJ51RmfgwwCKMj4cPX9/mlz3A/DWQikypM4suWerwZvZ7z+alO12c1FakUoRyPBGNOBRivdvisRrg3z8loCRKAmvMbTtK+dE8fQF8FzjORR35gI0w3ikx+P7gAYeJEDB8+HB4ig0nOQZBlPuzuy9SD8P8fQOAEQlVhHglKVKFkIZ0SPu06XmL+ogTQV19dijfe+A/TiVKs6o9//CMuvexSFJWUIBgKYs3a9fjLX/+Ke++9C+PHj8ecOXPx4EOP4Ne/+iXXdJ944okoLh2G9959F3X1DfjSmaexF2La1Mm49LLLEQmHHADPuTHjAC3u6rRzEBx7WRY1JIuxfnBzJvv1s7lGIWIUcheK7ENVCUOzglCtCBQzDLO7GWZbPbRty6HWfwQ3OqAGdxHzEYwwkZ3kQsspgOItgJU3Gt0F47G9uwBj5n0JucOGw4w2oWntazAiPSid+TW48sbY4TThD2C6XQe4Sp6zZE972mjdQPTa/p7htDJOGh7OQaf90v4etX3/TCfSXse+QM0+oWapgDPPXxrcyZG7cWBr0ldVxuCObd/utm+yyelJ6W+fyL0xkLH2E28ayG324tpBAAgW2ltbhAfhEEAY0BI4PQjsXWFCD3HwP/zwQ6xfv4HndPUnn6CnqwfzF8zHKSefDM2lYcvmzbj4fy/DZZf8FA0NO7hf+pixoxEMh1E0dChq6uqxdv0mnHTCMTjllFNw7rnn4tLLr8KWzZvQ2dHB/97ZuBv/WPJPXHTht5GTk4Nnf/k8TjxuAZ55ZjG/B7O62fkJ8RdL9OAIkGDnMCTJdCnqkyfl4PMBCaEryJ5EpTp9iOaYWi0rRHljdcPsrIfVUoVw7UfQm7dCCTRC0QNwu1R41SAUPQzFXQDDPw164SR4RkyDUjIRTYEI1lZtxxFzT0BhaSEC9SvQsXML8kbOQO6ouVBclKRHH1tEscct7oAfmCjOOO91QHt10C7O6GWSYaVUipkq6EEbbdKNBvJ88qr1s9OT8U9G80LDyVQR7a85kPs0EcT297QD6esYyCz0BxD6Bw/OxZRQKObzSxrCXgCsgWy7gbxwBtcOGkBY9tq/UTFxEsrJg+ARdJixD5OO2C7nffIg9I51Z/COB+0lKUMMlBvr8eLhRx7B/Q8swpRJEzFi+AhU19Qi2NONJ594DCeedBJCoTAuu+JKrF29GmUlxSgcWoQ77rgDf1+yBOd+5VwsffWfuP2OO7Bp00Zej66uLs5Qpo5z1JVs9JhxaO/o4OYkxxw9h5nJPli1Fl867WQ88cTj7LlgpZkAEMjv7fAgxNSa2PS9ExV78yAkwQvH2uyfUxDLpE5dZ8GZ16LEjNOQ2YtCfAMuJQSX2QUr2g0l2ASzaTPaK9+H3rQRha52aJFmpgcO6Qp8/ny4PQWw3AXQRs2CUj4LKJoIZA+DZShobNqKT9aswrz5c+E1WtBcsxrFIyYjZ+wCwF0EyB4BMlPZDmvIyclYd8gv7J+pHJxzlNHLpFIp9MUDbYcOZGIpPt3Py35uAUJcwQ1E8Q9k5gZno+3dXeTbpfJfpd+60qvjhBN9+VDT343f4ABP3L4BBK7zpfKYViz717+4ioFCDG5qukEUlrYvlJSMmCZRvsFu1HR193Za4z554/Zuj3yG30oSeNQPPEp8724sevBB3PfQz/DT71+Im2+5GW+//TZuvOkWjB8/lhU8zQuBg4su+gHa2ltw+223Y9phh+F/vvVt3H3PXVypcM8992DdunVczkhhCmo488477+Cvf/0bXnvjbQZxF3zrfIwZNRovvfQi2ju78eCi+3HmGadziSStYbyOW7jGkjkQnJZvKoCQaofHr4sfpEwTNgeyOGLvCN74ZKBA4IwodDXi/udGQXbVhW4xXa7L2AWlays6G6ug7FwPX9Nm6IEOaEoEHpcOiwiQlCxETS+yh4yEa8R8mCXzYZRMhuklxkMPFM0PzYygtXULtqz/EBWj8qG3V0HJH4mCCSfAXTBRMPnJOKMECIyi4qWWcVHy+RAqadco7WukEqpp7/oZXDAQaZ1kc6b7ato5cb5eupvt76kY0GAPBj2X8YQk2/37500HcNcDvNT7CBBEKSIBhOX//hdnwhNAIE5tpweBiHgE+5zTLeWcpN4T1r9LJ+P1PmgvFERQTnpXe6jEf66pePzxJ3D7/Q9h8ROP4LzzzkPNthpceNGPEI2G8M9XX8XQsmHYUVeL2267Hf9Y8nfcduutOPvss3HFFVfio48/wkUXfR+//e1v8eHHHzJ3eCQSxtVXX4NXX30Vhqmiu6cHkYiOMSPKUFJUiM1Vm3H66afhrrvuQnl5OfOVC150YVVzNj1VkHCb2eT16sOVyh0M+7Mz5H3oz8ztkf4MM6cRTWVH9BFPSaykMRTAaxkgdntDccOirGSjiznQ1UADULcMat3biDTXwhUNAqobES5pCsGlmoi68xApmYpoyRTkjjoSWv5kwD8K4QA13GmHW82GpXphqlG0d9SidtWryDdaMGTkGBQfeTpM9xioqqj/Zzpg3vCU8+BM9UzevhmeigMsVDI6dCllpBx4It9DPIP78/Biafw+fb3CAHSGeMKBmoveAz1QI8lonw3gogEvQcp7p5uNAT4l3e0G8H57c+mgAIQ2AgjkQagQIQZq3xmjWiaq4CSAwNs7lqWdQujJDpB780afk++wPc4AwUkrK6xGTVPxxBNP4vb7FuGJRx/EeV//OrbV1eLCi76PiG7g7TffYLf4v197DddedwOysvzI9vvwu9//Hqs+/hj/+Mc/MGLkSLz4wotYveZTeDxemJaJP738J/zhhRcQCUewuaoK7e3d8HlUTBw/Hm3NLbj++utw/vnfgM/vh0GNTBz0qFxqE2talAogJP/MLpuSHPf2uvQNBTPnwMscIIjkSVG3rTB3vEQMukKd6gxk6zoUKusKN8Lq2gqzqRJW7acwd62DB81QzACo91EUWTB8xVC8xTCHjEW0uAKecYdDKxkN1V8MxchHuMcAqOOfpkNzZ7O+N6ONaGt6B3u2forSkpEoqJgLpaACllIMxfLaIIzCHFQiISmU+wJLfQGEpFk9wEIloyPYayPIQe+jSzajhx+66NAMfI5m4ACe530ECOIwt1GSog0QyIPALlvm6xfxXf637UGQ2DdeBicsO6ctyfbeIHONH2zbQfS9T00IQ4Dqyaeewu133IOvn3currr2aqxZvx5XX3sjzjrrNNx5513YtGkTrr/+ei5L/OlPL8Y111zLHoQbbrgBnV2dWLJkKW668VbU1GyGx+tBKBjClVddgzffWsZ9WFyqhXAwwt3U5s+bg9EjR2LJP5bgqSefxIyZM5Cfl8/5B1RRwR5wYgljyrdUJU69f8blfTEAFN/hvVWc+MlASHIzAQhin9nE3IRVmOWMKhJEaIH8I+5IN3yhViC0G8FtHyC6ZTmygnXQoj0w9SBMy4DLq8NS89DhGoasoknwVJwIa9hshP2l6HG5YGk6fIqCLMOHYE8EquqF2+OH220BoUZ07XgPexrfQTBkYexRX0V26URYaiEU5AGW207poK5ztOHlPEolmSrAlsoCSfLgHECBkvE5SwkQ+vMgHHyprRm/66ELD83AvszAATzPgwoQJlVMwggbIJDFKiiBRevMeGvQeF25EOKSnzxm3MWS3TJ0qO7L1B+w73JyHCvQ+EfmbBCzIQGEW+++H1+YPgU9oQDCUQNTD5uGO++4nRXJt775P1BUNxY//RTKh5fjqaeeQpY/C+d/43yufnjrrWVYunQJ3nv3nRj19S9++Qv85S9/58S8Pbub8OMf/wj/XLoUJSUluPP2O3DrzbfhreXLceZpp+LRRx/lplsM1tjyFnF80VPDLmtMYFt0CHCbelUARLt7mXzNXkxlYpW5oDWjZhNU8Zn+xIicg/iYDB6zDi8C8Fo9MLvaYbVUQ2l4H1bdShgd9fB6TCjeLHQFqNUr4PNacGX5EBoyHdERxyNrxDREs0bAchUwk2LYDUSMHniMHviI+yCgwZc1FIpqAJ3V6Kpfho4966Fkj0Rzdx4qFp6D3KHlsDRqie4Rza+YTdNOlLT7lgj3caoytr5OxCGAcMAO8qEHH5qB/T0D6cXdfhvB4AGEf1OIYTIrKwIEVK4nLDYBEKSLIFW7ZuH6lZHiuCaheRlgxGa/TdTg35g7qie8oQQINGdP/vwp3Hf/w1j888cxcvQopk8eO24cyspKuRnKu++8g8KiIkw/7DCuUKCcgYKCAuzZswfnnvsV7N7dglNOOQGPPPIwrwHlIFx62WX49NPV+PKXz8E7K1YyH8Kepkbcd++9OPfL56C7qwfPP/88VzT89OKfcKjIJleOUX3KPvC8LgkAIXGl2K1v63x5mdjnvamuSJnr6RqY2AsQbyGdwg1P3o0YeBCtkYXqJOZ0HT6zA+7ITphNG2BuWAmrvR5WcAdc4Z1w6dSgWYXlzYHlGYaIbzR6socjZ+rRcJdOgukfiig8iMDH3RWpBNLrUWBGe2AEuxHVw9DcXrisHrgCO9BRvw6hUBcKR05A0BqFLVVtmLrwJOSWDIVBnhkicGbqXvs/mX8Qm0YJEpw7r6/TcAggDP75PHTHQzNwkMzAfwdA+DemTJ6MMmr0oarQLYN7gJNLmmLqMhbMhYqOF455EHqFUZ0x6QM4Q/tzjzCVb/zFJdc7ufV//vOnsWjRI/jd737N/RLIiqfKhOysbOiGzsqdqh2YipN4zw2DKZeJSvlf//43xo8bxwRJTsKqXbt2cb7C0OISvPLKK1i/dh1OOuVkzJ49W+SJGAZ7IUKBgFgvzQWNudRFG1qbeZ29Qf0BBIZ7XDJI3c8c72cDBOdPWD3S+O3214l13qkmXwak4gCB7idyDAi+GPYzvfAoKlwIQyOOgkgTrKb16Pr0Neg71yM3vJvpUnsiAeRkaVBMP1R3AYLuAnjKZ0IbewyswmkI5Y1lVkTFCkKzdOaGMOEWTVn0HujBDrhcCrzeKPSeekRaqtGysw6q6kLZpFnwD52KPTsDqNrQgMOPPRF5JcUwKZ2Dck3sttmxuWSQkOBTyiAZLcmr8Hk5KimxjpONToLnRE/Q/jyOh+59aAYOuhk4wOd5UDwIkihp8uQKTlIkgBCxDG45TN4DcpkTRNCo4Q91/ktSGuSy5nmIGdRC+AvlcaBrn/fHlhHvRM2Aktc/EokwD8L7H7yPFcuX4xvnn4+hQ4tZsZOy1zhZ0IJOPnDL4r4XBBjo7wQQ6BomW7It6b72F8tnm6CLriHF5+yWp5E1rpIHgTL3ad1EzkQsY4R1mS3l2X2faMVyhaRo3dlrAsW6ih9LNc8x+Ni/+hi1fQ13lGQ+Brt40RIhrIgWhmqFuKuiamnwGl1QAjvQU/8plLqV8LZuADp3cncFg/Q75SH4sjhvQMkeA6VsLiLDZkIfcSQsbwnnCCgmvSV5w8jHERVNmiw35zQo6ITbFYQZ6UDPzg3A7jWIRsNQy+fAXzQKfn8RNMuHXXt2oqqyFl9YeBryi4bZuQb21MhXleGFfXWZHWCBsm+nJUWYSXYx2rcbH/r2oRk4NAN7MQP7CBBEq08GCK+/hskVFSgfMZxb2UZNA1G7rwApNerC6DJdLLiFahGSMJ6DICWjDQ7slqEDKX/bi/c/AF8RQpD+Z6gGqx7nh3gQ/H4/JxYSvbJlmOwVEJMl/k2AiysMElriinwPkRgolHO6hljC8rZvzZZxIrGRqXi4uyAUP1yWCbelw20Rd4BdNGjHDrh/gNMTwq2GTAZA5BmQQCD+p2iZLD8EPFTTYEVsQ8U+1kXsDQEOyKoXTZE1S+Nkv6BGHRDDyDaDcAV2QdnxBqK1y6DXVsLr8kJXu6FZndB66OsaQmoO9vhGY+j/Y+874KyqrvW/U26bzhSmUUVUBAQBBQSlqS/Js0VjEmPyf0l8mqgxNqx5djTRxMSeWFIsqWqsIE2kxRhROiICAkOd3ufOLeec/2+tvc+95965M3OHGUTxnPwIOHPuKWvvu9e3v7XWt074GgKDpwAZAxHx+BD2FCBiZsIyVU5n9KINXrMdUQoxaB6EFGLHmpGL3TCq1qN57ycItgThzytHwZAxsDIIJOfCMjw8BpVVFfj0k09w0tRZyCvoL5q82MmejKGkLkhnKQbpztIvNDiQsyNVW9AjONCY7tC657kWOBwW6B1AkM6NAMKKxSS1fAwGDhwY3/1z9rtU42NgIByJsyWmLWATo9rtnaQlHMbhq/c9FMMhMvRoN05/W+wU46s6uWdd07ixEjEB1NMiGgrz+ZQPQGEA+sOHbD0rQIK4BoGuhKCF02Eosi2wODF22Jt8LriUpafC6kJKKKIGEFL8yLLa4EEUBjy2IHBSS+jEwIHFtf3iKnZMSbp3oa1gE0aUvM+d5MQjdb2Bpk/RiXIuWRSa8EGnPhVmKxRSOKz/GNGqzWja9h8oVauRYVRBMaIIBj1QvAZ8GTpUswSe0lGI9BsKz7CJiBaMRIuRx/3dfT4dhqnDNDTW8tC9gGa2wGNR9zYPLM1CJFKNUOtOhPauhdlcC3jzkFd+AjIKjkZYDSBiKPDoubCoSsEyUdewD1s3f4Rxk6cir6BICoXJZj4MdkRogf7Joo7d2iFpbn7hgYH9Pi6DcChWHfeargUO1gK9BwgklFRXh38vXcJ9A0qLi+HTPbzblbnuwhlQnwHapfICGHMPDoU7+QrsISjDnyh0+nPkhRi4xwFR16ZIqhNsCu34NS4r5HI3+jmrUZItRJ6BENKxuXnpFWQPB+FZZGYgm9f2uHQtWWMf27KncMOO7ouiSoCqUICIoiGsqsg2KpmaD+r9RPzdeTiSTPm5RY8j2ezVTsZ0al/EeQKucmEHKRwl5SN0DgrjAIFeibQagpEotGgzsiJVaPh0JawdK5DZsh2q2QwvtcZWgUbLhF8t5HJbb2E51LJToQ49FUp2GQw9AxHFC4PaLJsqdEuHYrTDNKgrI4BIC6A2wxsQ8zJctw91FRvQXLcd/QM+ZA06EVrJeISUfrBMDR41ClWj98mEZeg8nvUN+7D5448xauIUySDY7yuTEWTuAX03HFIN6X+nXYCQvq3cM10LuBZI2wK9Awiyjp8AwryXX0QwGEQm0eO6B2aURGPEXpQ5A5Po4yg07nOfSinNsYtgjQAJEHqgsJf2Wx+2EwWHzGyJ6ge8WTB52yhYAQIDJG9MyZ18pkLRGtFKmd1mLOvdju/LvzncILadBD50VePPxcM4oglUhNQR7dBEktS1sz0zgRFqCMWMhRJFwGxEQXQfLEVDDQphQJQ/xo84N24/h2Lp8GgBGSES7XudJa12HgLlLnABpUrhAZobdC6BiuTDZkcMDitQWIIkkQPmLmRalcg0WuCPNHE4RolGkB1thWHpiHqIBdER1Y5CgzYUdb4StPlzEIYXquURYRwrDFOJsAH9loosqwke04RhZcBEK6BVwqNWwacY8Ci5MD15CKsetIcsBI1MtCmZMK0QVydQXwUvgz8/LCmE1G60QAtkY9o5FyK3kEIMkj3gqgsxbmx/FyB0LHV1cxAO22rl3ti1QC8AAuUfCEffWF+HpfPmIS83B/3y+sWoZ6bSOaNdyAqT06c/icoHKQaBEhOFyq90nEfGQLGT542+iLZHLZLsIfcYDxE4HWMsf41SAIlZIObBST/HEgEdYQqLo/PYsnkzhgwdioCfyvKknyZq3xlekN0VBMMdp/2JQYhrDUThNVuRabUywxHWsoVgkhjZ2JPzfzkaO9E7Up8BwR7JvIjYMMaz9ZlBoNwJlVgOkYOgIQKFkjBNghT0ewp/ePh+3mgdPKH90FsqEKn8CN7obvisWnh0oKXNQiTYDp+mIEMJwPCXIpI7GGrhMQh5ylCvFCEYKESYQAj1XIAKP5UqsmyS6NzoMZuRo7dAa2+AEmxFa1s1gmoUUZ8fXm8mdL0ABoEkNRsaNSXjugmyR5jhjQUdOlEBFIpRKcQA1DZUo765DZPP+CryCCCw+SQwdAAEKvelX3UuCSSZtwTGQM6IdJIbP/dMQydaGF11RTwylgb3LVwLfC4t0DuAQAyBYqGxvh4rFsxHeWkZ+hcVMUXOdKndwtF2anQ+7YKdGfAdzCKEdZhqtgV5Ppem691DOcsbE/biNlsg/G88iTDmkru+L/kJn6LhnbffxsSTJyInJ0e6P8EiEDuRkCAoXHDM0bMr7+BsBISxgR0lSiYCBIqfU5+GuGsjpoL5I5mQ2flTC5dIsEAEW4g9IqaJwIJgSDyGAcUMQ482Qq9dj/Du96E17YDXbIBXaYcSbYJltaNRKWb2yu/zw8wcAhQdD7NwNNozj0JU9SOiEX9FybJ0H6HxoCmkYhgFTGIe6uGJ7EOotQoNdZVQIq1QvRrMzDKY2UPhyyiCrmVBRRYs08/siqJE+JlJiMkOnDEnInNv6Pnr6uqwa/ceTJo2Hf0KCxMBAsFDLvEkW0nlRxu4CXgsUbJd9eAILdlGjSkwdrRyHGTK332uQUIXYlkuSOjdguN+2rXAQVig9wABFhobGrBiwVsxgGBJgOAsmxOpBQIg8L+76OYofiXj7gfxUkfaRzjyns4OUfqQgKJhyaLFmDhxInJyc2MAIUoAwdElUFq5Q9lpX9hPKCMKxqKrLBIOL1CLZc5ZkdtpSb2T9gDCDfC0tcCq/gi++g8QqFsPrbkO8GcgGCVQQfkFQWga0O4/ClbRCFj5R8MqHomgvxgRPRORCAEM4mpM6JYFL01D+VR61IAVrocRqYQVOgBvsBIR00LQm49wdjmUrBKoei4UBKBpXqiKlysoOOWTQ0H0pnbZqrQovXRMTrguTgAAIABJREFUploAhIrdexkg5BcVCKfv6LvAV2AwKKCaKBp15mI4vLr9T6eaZCcAwQYsNubjKeQChL6Y3u41XAt8KSxwyAACdcuLq9rJ/aZdny+rGzqzsF2e112Z3pdihOSablcYdPfOZHY/MQgSIOQ6AALpUqQCCF16cMcNaTycoK/TZ7GT7iinIg35ZCqbpEoGcuAEFHQSJAoH4WnZCW/VfxCq2Q5Pex08wSqoof2IRE2EqJ2yP4CINwtBLRs5A0ZD7T8eVt4wGL4iRJRsmIpflJMa7fAoQfjUIPxWO/dasNr3obVpN8LBdoTCCjyBfHj8eVDVDJieAMxANiJ6FkxKNqRQAe/uqYJDZGAylGG2J16HYoM4KunlcBCJT0kGYTcxCNNnSIAgATIzLlTvIVid1AAhyaOnCRCc4MAFCN19a9zfuxZwLZDKAocEILCSogsQ+mzG2QxCOpu/zwdAEOWtQmy7+5o9kmUOUAKg0Q4tWAutoQJq425o9VugtWxCQ2sNfLqKQGsT1IwAImommhCAlVUEb9mxUEpGQsk9GiGrEJbpgU55LkYIVrQVKiUv6gZC7TUItRFTEEI0EoaihKBqJjQ9A7qvCJq/GJa3CFE1DyHVyw6b+AnV1GCoCiIkXcBhiXgogfJq7H2+c2wI8BBDQNUMAiDUY/eevQwQ+lEIzmbQZMWGCxDsr4obYuizRcO9kGuBPrBAnwOEIpmDwIuenaTIGyYFFikryryErtgBl0FIHNlDCxCSikq6mFQ9YRA4sTCJz7bLOXn/zekKlO1vIoAw8tAKpWEXzAObgQOr4WnbCyVci7DZhipKJ9RMFHoteLV+MPz9ES4YBhQcA7PoOLR5chGKKghYXnja24C2arQH9yMSqoMXQXjMIOcKRElxUc2Alt0fUX8JTF8xFD0XKrykK83KkSyGJOPdxGbQfCUWJMoJlMQgUOKlYAa4DFcGcGzuXlRYUIQhDhDq6xtRsWcvJjJAoCoGm0EQ8KJvAELynElVB/JFCDHQeyRDYVni0QcLnnsJ1wKuBdK3QJ8DhMKiIiiaKvowOA8WwxHEJ1OzXeYgiMXt8xBiIEcQiUbg0YUq3uE4DjlAsIFcV+9H5YD2y3NBRfe2EIl3cYvFow00AWj3bXJ5YkbdVngrP4RSvxVmy14o7ZWwFAPBMBBsN5GTm8NJgJ78Elg5pVAzCwE/lRpmoUnxIEgxfDMMtDdDj7TCwzLRmTDVHOjeftD0TCjUt8Ljhar7Yak+RLQsRJQMElsWDcUUm++QqZhUeWEa0GS4RCRQanEGgfABcSQJLbtFfo1mUnmqAk0TUl91dQIgTJoxA3kMEJyaFn0BEFKNRaImZeyMdGiowzHJY/dM9YDdz7XD+sjuzV0LHKEW6HOAUEAAQRVxWbtULvb1/owAQlcyw2nvgsUGF5qmoaG+gZUNqVvi4TgOFUCIOw2xKHfl9EmDIdZtUuu8EI8vJHs8sBx0ApgQSYg0O3TTgDfaBL1qPbw73oa/cSO0aBWAdoRNE1HLD483D4bpgdevQfHlwMwdhLbMQrRFFYQNhRUew1oOFE8W96HQEERWQIPfnwHF0w+Gmse5CFHLh4hClTV24qtouESVE7aKoSjJFRLYcvaKJESFqjNkKaGjAJHHhCACvWMMOFGypcldGnX6HIUYANQSQNi7D5Omz/wMAYL9zEkz9nMPEA7HN8y9p2sB1wKpLHDEAQRa0KmfAR1E85JjZ8lcjw5N0zlx0u5wSD+nZDKPrrPzow6J9DMCBV4vZasDbW1teOXV1zB0yGCMHz8eui5Egug8ug59jn5Gf9JK4DuIedjXAKHDI6TBIMTezS406IJBYDEmeRMqfxRHPG2OlCH9ZhTZoSq0rHkR2XVLETD3c3dF2nKHfP2g+spgWlnQM3OgFhYgYnlhankwvXmIegP8x/Jkw1QLYSn5JHEETWmnKAGPKYkWRSwFUVOoM7KUdOzF6ZlIV8EGOtSMKt5JUHAIEjSlqKbh/AqaRxIkON+P9u0kskRiiiRWRaatoRDDXspBmOUChIOY/+5HXAu4Fjg8FjhkAIGdqHQU9l7GVgI8lCEGWryrqquw9J2lyMjMwJ49e7i3QXlZOc444wx2/B98+CEaGxuwa+cuDBkyBKeffjo++PADbNiwEaZhQNU0TD9tGo46+ijMnz8ff/37ixg4YADGjR2DM888E9Rx8e0lS1BdXc3VmsXFxTjrrLOQlZl1SEBCXwEEKnMURXl2YyfpxrsBCNzAkGmBeMiguxBDcha9mN6mYBQswG8ayI3UILjxNfj2zoeG/UTXQNHzoReeCCN/JIKBEnhzihDxBRCmHsmmBg06DN0DgzpNck8Hygnw8t8sAM3O23bgYp8v3tpmQOhnotlTgiSRbECVqPconjrVu9oMQuKGXFRiUCklPQuJW9HvGSBwDsIsmYMgvxFSk7rrMsfkUJ2Ntxw/j4Ew5yLiMgiHZ0l17+pa4MixQO8BgmWxs13JQkmloByEWDMeR7dB6V94J8kiwJ3sQJ3hge6cUPIwcGMoRcH2Tz/FnffMwaBBA3Hu2WcxC/Dqq69i7NgTccEF5+PlV17FwgUL8b2Lv4Phw4cj2B7EE48/gRkzZ2DMCSdg9Zq1eOONN3DLLbcgEgnj2Rf+gtGjRmH8iWP4/Oefex779u/D2WefzY+wePFiBg033Xgjt2ru66OnAIF0EKjM8eSJE5FHZY52oh2VHTp0EITCoUy4SyPEILxl504z+b2T9Q9ESp6I01NXSI/RCk/tR4hsXYhw+x74igYhq3QsdG8pWvQiNCqZ8GfmsjOn6JRpkVZhhMGBqWhM5wsdArHn12NOX5V0gSizpDyBxDenJ2WqIc4pSH9LIl2duNaE17MDEonvHJcVpygMMwgUYqhvxK7dBBBmoh8rKSYCBNnSiksp7e9HXAfBBQh9/X1yr+dawLVAehboQ4CwAGWlJQwQKGZrU9K8vEkmwV7q2JGn83xpnxeTtGfWorKyErffcSfOPfdcnH/+eWhpbsHy5cuxYMFC3H7bbXj9zTexatUq3HvvHH62Z37/e7S0tGD27NnIzs7G7ooKPPTwIxgx4jicc9ZZeOYPf8SkSRMxZcoUvvYVP/kJrr7qKsyaNQuh9nZ89NFHuOOOO/DYo4+hrLQ0nTfr0TndiQ05L0YldhmqgncWLsbJkyYi26GDwBLKDnVGcpycjM+ylz16pPROTgKBdkmgwBkiwS/DCsLXVAHLaEDYlwczo5zbgkeod6Tq4TCRh6oPLKoXiMBUqG+C6GUgHplgiAAIxC9QGSL9TuWkShHq4NbTHZp+yS6KSW8icxLTMkdiSElABn4SykPQKElRNGMigLBz9z5MnEYAgcoc7SRF/nIIECN/Ru8knixVAaUjwT9BKCnV4LkMQnqT1D3LtYBrgc4s0HuAABONjY1YsUAAhP6FRYL6tZsC8RoulmqTFN9UCQ66yYK3l0enU+luGKmMku67d+9e/OY3D+Gb37oQp5xyClpb27Bt2zb84Q9/wM0334wVK1Zg3759uPTSS/lZf/WrX6KkpBSXXXYZ36K5pRmPP/YEsrKycfHF38bTTz/D1yGAsHXrVlx17fV4+MFf4rgRx8E0TNTU1OCKK67AbbfdhtGjR4vH5JbOh8Lrdm4FzqC3LGQDWLp4ESZMnIjMvBxEuJeBTB6ULaF5WCjkYFH5qdyHd5VXINtL23cX3SU7PosII4mDO1OmOqScdFReQDcjUKnYj3MFdNGdQjan5IZVHEawmzWJng3CxvL/eL7Rv+OulbMLZEiEW0UlV9V0N5nS+H2iBpQMqvAPTVHFoGt827r6ZuyyAQK3e7ZpGBkAETE32WtDQJy4/FI6DEJqsBO3URov457iWsC1gGuBJAv0DiAYhujFQCGGhQtRVlLKvRjYFxFAkFUL9k6LAIKdtJZu+ICzyCmWS7vfJCflfBcup2MFWwUVu3bh/vvvx9e//nXMnDULRtTA+vXr8fzzL+C222/D8mXLUF1TjR/84Ad83ccffxzt7e0cIqDluLmpGQ/++kEcffRwnHfuOfjdk08yODhl8mTOO7j2uuvxox9dhqlTpzJbsmfvXlx5xVX4za9/hWHDhiWYONV7cnLkISjjtAFCDiwsX7SQAYK/Xy63PBb7bOGY2IVRkh1XJigwKZGPH6iL70eSn+r0XOd53VxPAAKSLBa3drSLkg8i+3YQg2CDjtgbJD+Q2L/H31J84FBCtJQAgSehyfNC1albo5ICIMRfhoMfMQPQCNkAwR6LbgACv3IipEh4545mchdB1wKuBVwLpGWBPgAIYIDwLwYIJQIgsEoOtxoU1K7sDmhqWo8AAl2GKGaqPiCnSnH+5EqB2E5W7n7pvysqKjBnzhyMOG4EzvivM7kF8Lx5b6G4pBgXf+dizHvrLTQ1N+EH3/8+Vy4QYKBkRApJUAfEtWvW4G9//zuuveYaHH/88fjd736H/sXFmD5tGrKysvDYY49BVTV84xvfYHe7ePHb2L79U9w35x74fB1zEJJ7S9A9bYYhXaCUzmjaACHXsrBssQAIASdAcHhZcqZRbo2hMvDqFiCk8wA9Okc8DAEU4dBsStzeiffoYp2fHAMffXQ9x2VIEMkGXAKdCvbAhioCIFCZYxMqdu8XSYrMIMQBAgUXDNKEcDAIicGB9ACCXXdhg4MYSHABQt8PvHtF1wJfEgv0HiBQsyYCCIsWxQAC5yAkAwQOMfQMILDbUJRYCaG983aOjWj6KFsGWxZC4RB27NyJh379G+Tni9bTwWA7SkpLcdG3v4WMzEysW7eOGYPp06bz75uamrBi5UqsWvU+/5wqHaadNg1Tp0xBdk4OVq5cgbnz5mH40cNx7nnnsi7Ca6+9htraWmiaiqzsXFxw/nkYNHAgvB5RHuks9RPvQUlrrNcrSi8NUzx3H4rbpQ0QWMBIQZTZA7HLNUgV8FBut+WgSVgQ95CxfwlnKrBCV+2dev7NtB15zz/Z+SfYidudN9luEtgIfkZEDIj5MgVA2L33QKcAwaT3dWg0JKpMdA8QRHKj4F9cgNCXo+xey7XAl9sCvQMITJVTN8d6DjGUl5WKHITYekkUtkyEo2VTVfgP/74H8XnKLaDkQCpZtDUOYpswFqRRWQ2PzqMSxYxAAH969lmcfdZZDAzIMefkZCO/oIAdd1tbK4cdCCyIRDIL4UiE79Hc3IyiwkIUFBQIhT1NZQaCwggkxlNSUszLcENDA+pq69gJ5PfLR35BPvbv38+ggZ5DgACOfguygNohE32safB4dGRn52Do0CFCXNKRONib6Uh2pRK7nBQMQiwOL2PxtOM0KP/AosQ+KgtMFkbuzZOId0rl5tmNxrh50h+wuQMRahBH3wGEQ4V5BBgTTxt34SK8wAwCO3wCgxZq6xqwZ98BTJoxC3kFUmqZGQfxrpwfInM67D6Oceu7AKGXM9H9uGsB1wIHaYFeAAROf+c/BBBWLFyAgWXlKCwsjPVbcCaGcZoit7iVSdw92K6S89r6yVasXbeW2YDkw16MFUVFwO9HeXk5lyleeOGFHCKgMAUfMmRhl0MKqh/w+bwwKGHPEI6dAAYdLLQknX0kGoXP62XZZY4UkxiPacLv9yEcCrMQ0wcffMDJkEKMyeSwSMwGnNNH+RSqBBolnNcgnqvv3JhIUrSw1BFiiChC1Ce5k6NBPQNYW4Cq9wVSsZ+kK2Y6+WmTzxUgQJLtSSfbDIJs+h3LGlAthXsYxLMk+o4b7zvrxmeezSAka0py62dGOgIk0DyorqvHnn37MXnGTORRiCHpgSgHwRliSNBncMCPBDRiJ11ymwKXQTjI9c/9mGsB1wJdWKD3AIGqGOrrsWLBfAwqH4iCgnzJttouQDge+n8KPcQo9T50ivb7ifwEC62trVi3bj2OOWY4+vXLFwuylM1lKtfhBkWxge2WRGIl7fBFciSFLmiRF4qJFKsnp09gh9QXCVBQVQZrN9Au3DQcNHlXVhfPECv37ANb2D6HAEKGYmEpJSlOEjkIVMUQBTUcEqEPGy0Re6FbCnRTjakNOp862UV35Wid5zLJLvvrpMMFMHA6RADhUIADiTVFU6akYRYzULIIKkDiVDV1dajYtxeTZ8xAv8JCASC4IRTXawhgJmIScm46sxBcBsFdwV0LuBY4PBboPUCwGYQFCzCwvByFBQUiXyspg5wBgvwZL3l94BRtk9khDSH8Iw5ST/RQPgDdR9LndmgjITHQWY7JO3yFcwNI5EYwDVSDL9gAbkBFXpWYCFbxk1iIQIOsTEhnGO3dom2DvkpUpPdTJUBYsnABTp48SQKEOINglwZyUhs7ZQUahRqSXB2XGSa9jL1rTn7HVOfaI8H0ebeHeI74nLEt2+0H0zohrUdI60rxk8jH250bk0GVJXMoaOoRQKiqr8Gn+3Zj6kxq1lTAok0EEOh/DFBJwUHReK7FvzmdcDn2oLgMQg9HzD3dtYBrgZ5aoHcAgXfMpINASooLUFLcHyXFJZwnYO/TY4uzQsugHWvtuyU7GYjYpY5CuTHeYChmGPbxosJCHPYOjh8uFo6wwxKs6SCvI1r8ik/ZP7cv4WjZk94YxFiL9E5P5yyOi5PocDiMFUuXYOyECQjkZTODwG8pmQ5hGTooaVIU1ikKj07MIs4ujM57p0r4SwUQ2EZ2yKCL4RbPITsoJj5BOq982M4RYEz8ST5sgMCyz7BQ09CAHXsqMGXGdOQXl4j5J2UkBOlFDaFUBqYuQDhsQ+re2LWAa4EkC/QeIBhRLhl85803YUSjyMnJ4eQ82g3FnLddghj3x31aod4BJHQzzHaXSfs023/11U4+nVnWt3tkcUd2WuT629qwZ+en6F9WCsXvYx0EbkrFUCBOilukS8F5IQJaOA87j8D5s8S6f8dvktkGS1wtnoDYtUXskASpCdo5Cj1IUUnH3H1+DluMAUJHhEBVCZyoykJU1ATMQHt7IyZPnYCi0mLomiraT2teWNRyWvUBig6FOjzF1EPtcXJDDH0+eO4FXQu4FkjLAn0AEAw0NTVi2by5vKvul18AgxL5nKBAas+LHgx2omLfsghpva1sWRwh5iNJ8Y+FbWTVQlrX6oOT+i4NzwEQyGG1teKjjRsw9Oij4ckMgJIUoarQDbt1sSRCKHxCu1ZySlSC6Tg6e7ZOf+4YTjvZMJ502L2xKBTBcsMdAhvdf/ZwnaFzL4jkQzTDYtBDvzctRIKtCDbtwsBiFfmZJgK6BUXXEdZzkVF+MgL9R8DSAjxGikrSUR0CcvGbuCGGwzXc7n1dC3zpLNB7gGAKgPD+O+9wI6PSsjJYVN7HrW5j+0FB3/PS13fAoK9G64vllrp+a057i4Tw1tw3MW3aNGRkZ8HkUlAdiiWkf2PhAwZuTpcfHxuRJ9LxXqkAQqqfiXwFK+UOu6NL/SLBgkQYRe8YjzvZislkb5m8appoqK7G1k3vYXCZimjNavhDu+GHgTYUIGfK5fCXngRT8XGiqKoYLDstAnKieVOnyI3uzR0jBYcmgmVxsMj/6msU2ldfOvc6rgVcC3zuLdA7gEBJgWYUjbV1WLViOY499liUlJTwS7OUb5wwlpnaTDx/7o3yRX5AorxNI4I3X38Np8+ahYyMTNZgUDQPDFNFNKllM0O2TmMHHS0h8vO7HkYeYRYWjOdsdGvTL9y0IJVQZ6CI7CgTF1n9k0SSSAPERENVFT5ZvwqjTywDalcB+99HphFESCmEf8oV0PpPgqkFYBBAQBQaAwTqNmkfDuMkO3wO74hwhAsQup1l7gmuBVwL9MACfQAQDDTu34f3330XI44/HsUSIBA44Kx/edAuR+VEuHgbmh48p3tqmhbglMpoBG++QQDhdGRkZIgQgu5B1NQYIMTcDu9YbUq7+xvYeQnpbEp5T9tF74zu7/Z5P8NOgHUaVOzlqQKGFDZZJMw0UF9dhc1r38e4qaMRQBWaNi6BJ9KMiKkj65gZ8A+eCiWzHAY0El5mBkHlzpQuQPi8zwL3+VwLHMkWOHiAIHssMINQeQD/WbkSI0eOZIBAS2ZXACGd2vheGf1gYwYH+7lePWzffdgmmolBmPv6a5hlAwTJIMQAgvQ8lCeiUR+AHnQ6dLaL7urJOS+yGyRhh6D6Kjm0r6/X1fuJe4nuoXHAJfgx7uTIIQZRHltXXYmN61fjpKkT0S/Xj7ptG5GZ70WwbjeCjfUoHDIO3rKTYHr6SQ1Ji+FBSijtMgh994Vxr+RawLVAlxboJUAwASOKxqpKvLdiBUaNGvW5AAgsXCRbTtPbJzsgKmEUwkeySY40Uax0MTnsK50AaSTQ0QN/+plOvy8aQLClMLqyJ8tYSDGr5EZdbNzDBOpiAEHU04pH4QoEi7U0qFLBBgg1NZXYuGENTp56KvL7FSPaHoKW5QVCn+LAujehW34UjDoLau4wGBC9PKhc1QUIn+nXx72ZawHXAkkW6B1AYClhA41VVXhv+bLPBUBIdvy0SFPnRXsBJ3CgkwqiaTBAsFtI0+eoLwP9TcqJtooiOahIJMqfp14M3JmSnAADEAhlRUrGs+WcD+MU+6IABKE8KfpT2HLEyaCO7Em9MTIzM5CTk8vnsTS2POzxsoGgYdDvhMjVZ5HOwM24FBFmoP9xSacsURQMgh1iMLm1+IYNqzHptGno128gV/IYZgiqXovGHe9g//pVGDT2DGQOngJTy+OcAhcgHMYvkntr1wKuBYTPtJJFAdI1DCcofl4BAnUmVFkO2XYkJN5EOztqHU3OR4AD4dztnanu8bCGA3V0DAT8YiE3DCH8pCgIBALspAhcCMckAAK1ofb7/Ww5uocNOtI1ZV+d90UACAymdF3QApbFYI1UL+3+GATIwhHR9+L//u//MGnSRJx7zrm8SafzBBCjBEHwOZyip2rcxVMk9X8W8EB26+Su5jJR0QYI3LVT4T9ibpmorq7CunWrccr0mSgsLBcyy/yYIYSbdqH2wxfh9UWQN+FCKIHhAHxSOipFjMYNMfTV18W9jmsB1wLdWOCIAwjksKmxEi3c5EqCwTaWXM7ICEjZZBKuibLjt1kBn8/HDqqdHBUlVxomn0OAgH7e1tbGziwzK5OdEDkqYhtIGIq6QJITyMrKZueVkgb/jKbhFwEgkGMMRaJUnYdMf4DHKhQOM5gTzl5FsD3EAO1nt/4ME06agKlTpjJ7QzancSThIWIKvF5idATDT+NMY0Xttj8LNoeZqoTeFkKMiqpCmKWi7tUSQNbU1GDN2jWYMn0GiorLRKMKAc+BaCMiu9/Gvk+WI2/k6cgZcCosNddRuJg0eVyA8Bl9m9zbuBZwLXDEAQRy3hs3bsSWbdtQXFSEtatXIzcvF2eddRZKS8uYDaCOi++++y7q6uowZswYTJk6FYHMTLz3r3+x86e2zXv37sFJJ53MpZsrV67Erl07MX78BEydOhW6pqFidwWWLl2KxsYm5OTmcknh4MGDE2jwz3p6fSEAAoB33nmHGZdTp05FfUM93pw7DzOmT+cW2+R435w7F9OmnYYHf/UgysvL4PP5UV1VhcFDhuDcc8/l8aW23NOnT2dnHIpG8erLL+OUU07BgAEDRAvvQ3zYAMFJwNk5CFTFoEsGgdgkAgir16zF1BkzUVRcItgDytQlgBFpg9K6CVvefwW+7CIMGvt1KP4BUnY5xUu4AOEQj6x7edcCrgVsC/QOIHCYQeQg/NuRg0AXP1xVDLRgz58/H3fccTsuOP98HD3saCxYtBAlJaW4Z849aGxowO+efJJ3oUMGD8K8efNwwQUX4KyzzsavfvlLrFmzGhMnTub4+KpVq3DU0KHo378/71BXrFiJX/ziFxg2bBjmzJnDYGPM2DF8Hjm8u+68i1mHw3XYAMGK6SCIMkcrpoOgIeIolucqBtYvTKdwUbxVb6sYyKH/5S9/wbbt23HrLbcwGPvBJZfgOxddhAu/8Q188sknePLpp/Hz++7D3XffjV27dmHqlCnw+nx4+aWXcN9992Hf/n2Y/9Z8PPDAA2zvbdu34Z6778Ev7r8fQ4cM+UzM3xVA4CRFySZRd1BmEFavxZQZM1BUUpoAEJjpsqpRtWUugnu3YMCJX4eaezwUXZSndjhcgPCZjK97E9cCrgV6nYNAksUmGmtr8N7ypTj++JEslCQLwDrXQeB179DEiiPRCOYvWIj7H7gfjz36GI47jhiAf+HJp57EC8+/wDT01q2fIMMfgObx4B9//ztq62px80234P4HHsDOHTvxzDNPc27Bfb/4BcxoBD/72c9QX1+P+++/H7NmzeJkzNk3zMZNN92EQYMGYevWrbjm+tl47g9/wJgTTjhs88oGCIoRxZuvv4pZM2cxM8IAQdVhWkIHwW7VRCBItAf67AACDTslH95511248447sXrNarz+2mscZiCH/9STTyG3Xx4uvfQyXHP11RgwoBw333orIqEQrr/+ehxzzDG4+OKLcdVVP8UVl1+O8ePH4x//+Ae2b9+O66+7Drm5uZ+J/VMDBNkPQxW5KDzDTaC6uhrr1qzFZAoxlJSJ55NAjVQtFbQiVLsKB959EYVHTUbm8P8CPHmAo4FW7KWcQyW/Qq5Q0mcy5O5NXAt86Sxw8AwCrXDU04DKHJtb8N6SxRhx3HFCSVEmb9n0q1jTZB8GitKyJ+t7gMDAxDSxcOFCPP+Xv+B3TzyB7KwsbNiwET+7/Xb8/qknkZ2Tg7ffXoJ3li5FXW0dU9WlZaV44BcP4DcP/Ybp6VtuvoUTFQlUFBUV4dvf/jYzD48++igDguNGjMDlV1yBkydMYIrbo3vQ0NiA6667FqNHjUx/EqXvlzu9ptOKXINPO1IzijdfexUzZs6APyuLFfoUrtBQGLTZt6UkTM75F8gi8UjRztHu2pjOY9uthjpcVo7RNddcg4sv/i7mzpuLUSNH4oknn8JDv34Qd9xxB2684QZMnjwZN9xwI0497VSwEFNzAAAgAElEQVScf/75iEYi+PnPfw6/P4DLLvsRnn/+BRimgUt+eAnm3HM3Zs46HTNmTOfqgY4zK50nlq+f5qlkRYoSUOtmu0yTEiRFdQagcatwAQRqquuwbs0aTD5tGgr5+xETopBYIQqzbReqV/0DHs2H/LFfg5I5FFA83c4l8biie4MTdsdskOb7dHsj9wTXAq4FPv8WSOlWkxcB+d+xH9v/iDfys9vN9hIgRLnvQnNzE95b+g7H60tLSmIaBKYh2+9IQEA7HcEuxB2SrSNvb6oOegTkgkyULoUYXvzHP/DY448jKysLGzdswG23347HHnscW7dtwy9+8QA7mVOmTMFb8+Zh/fr1mHPvHDz88MPw+3wg50XVDE888QTrOnzzm99CS1MzHnroIQwdOhQjjj8O/3f77bjz9jv4+nT4fX6UlPaHP+BLK1Gxp/Ao+XxbhMjp26k5kocaBCkW5r7yMqbNmA5/tmz3TNn/SYID1OLZrranPgCJ0ygVakhf2l9UJThdlvCLIunfErb2+7Fs2TLce++9eO7Z5xCOhJmN+d3vfsfAbPb1sxnknHPOOVwp8ssHfsnz9uqfXouPt3yCp59+Ghd/52K8+OI/cMutt6KwqDCF7WMzLq2p5fyK2B9IJfhEYImaMZlU6uhwztwXiySXZfMveuDamjqsX7MGE0+dgoJi8f0QSIJVE4RjDzegbvtKNO36EOVjT4On/0RA9ceuTd+ZTvo7On7j9mJIa5Ddk1wLHIkW4IZ3qdZoew20Vyqx6vC6xj9yAITYxl1s5HsFECwzChgmmlqa8O+l7+C4Y45BWWkpL45cRtgDgBB71oMZOO6SK1woOfb5CxbgpRdfxKOPPcYMwsebP8bPbvs/PPLwo1i9eg0eefwJPPLwI8jJzsEDv3yAWQDKLfjVr34FqmggapvodwpRFBcX48JvXIi21lYGCEcNOwonnHACbr31Vtx8y82YcPLJ2LxxE/70pz/h1ltvRkFBv4N5gy4/Y4ODBLZAjmkyQPBSXohq4q2XX8apM6YjkJONiBrLiUu8DwMEmgiKVPCL38EJ3A7mhWwnmCxSxWWnqoolS97hPJFTTpnCoRrKPZg9ezbOO+9c/PjHlyMzMxOzZ1+PmTNnMUCgfI8H7r+fWyjffOvPEI2YuPXmW7Bz105uSvXDH/wQPr8vRQWD2Oene6SCRakAgqhgMGE4fsmfZY0H0slQoWoEyhTUVtdi49o1mDh1CvKLSxlBiAan9H8iyAMjiHD9R6hb9wbyBx4H77D/BjQBPm22wh6djmkIcVjTYa64DEK6Q++e51rgi20BCRA6rnaJAIFW+zhAcHpeuRbxjkXQn70CCCSSRDkIDU2NePftxRgxYgTKy8qYXqUywp4AhPSX8BRjyBsyUXdO912+YgXmz3+L6+izs7Oxc+dOPPLIo7jrrjsRDLbjwV8/jJaWVuTm5bHjHzhwIK659hq88MKf2Xl95zvfgdfvxfPPPo8hgwdj0sSJXOr47LPPcoLixIkT8dZbb2HdunVSkdHiev1zzj0bHqpvOwRHsuPqjEHwkjaFZmH+yy9hKgOErASAEHcyZDQCB6LDpuB6Di1AsEWNyHkSU3DvvXPwwx9eggknncSA8obZs/G9730PEyZMgKZreOqppzFy5PGYMet0GJEwnn32OR7f7333/8G0FDz37LN45NFH8eyfnmWZb477M3PhhFKHECCIAENSkyTxhRMMAs1KFTVVtdi0bq0ACJykqEJRTPkllA3MjDYguB1Nm9+C5clH7uhvAWpWbEjoPvbh/K6IUXMBwiH4yrmXdC3wxbJAmgCBNky86vBSZXMOtJLQhlFjjRkKk6qI9BIgSEKjob4OKxcvwqjjR6KsW4AQp7L5+cRWqgdpch3HTCR6CfEayiFobGxkcZoB5QNYiIfyCSgJTiSwKQgGw0KlLyuLQwPEIGRkZyLUHuIyRWIRvB6d8xM8mkcoKCpgkECLfnZ2DjuBuvp61NfVo6CwQFxHU6CqPVFVlIls3U5DsStNxSAw2JOfpxCDAAgqFrz8IqbMmNY9QBCV+7FxsB/Fpr67fbROTrBlq53OmqWqqfSfdChME62tLaySaAtWBYNBrkqwVSybm5qgahqDPApLUJhBUTV4dS8am5rxwgsvYP2Gjbjv3jnIzc3jJ7HVGeOP1TOAQBkMHcI/KXbhIrQg1RTlzeIQi/pbiFADMQg2QJh06qnIL3UCBHLsErWbbYCxF00fzUdrYxTFYy6Cml3Emkp2GMh+LhcgHOysdD/nWuAItoADICSyjWINpGXM9rYEBfgHToDAOU+k5UORgTbAbOglQKBVkNrZEkBYtIiTzYhBICfakUGglU7GvOXTi71WKlI3eRC75klJ8pYpEUVI3pIzYaE+cpZUcmkaDByErC/3lWRT6bqG1tY2BgQR6rwnY8ck70tuwohEWDSJYs2U0BfwBxAOtXPCHH3e7/exMiPFzllkibPX7XBH588sBkqBSqt/Wgc9sy0zLK4rCCDxD5tNoKt5OVhNAIEYhGnwJzEI8dsJBgHQBUAQ6YoxV9dJJ4C0npZdLA8r2S3+kZiIlClAlMfn5dCBx+fjahGCrlEjinAowiJIlHBI9o3S2ERJ0TLKtH5lZTUWLXob77+/Clf99CpOjiXUa49foodPjr91/gr03IrF/9/hpOTRFACBWID43j4+k2keiplN87C2qhYfrVuPiac5AYKE6fbu3woCVi2ilR9i++qP0H/EV5A3aBgMTYel+HmEJOmXAKbFPeN3dkMMaU1R9yTXAkeeBRw5CGJDSWIDLAQf+0OrvM0ZswehQgMrwi0TOBQbbQGa9iG6dyPCW//TBwABFurrarFy4UKMHjUqJYMgvBhV3IsdU8zFyRcSDILTPdHYOZPLOne2vDSygp28iky2I0dDl6AdJeUlkIOnH5D+Ae1kKT5MIRACD+SsSK6Xwgt8vmlB0TV2SgQy5EYw3qtB9mbwB0QSmVBmjPJbUBc/BihdTj+RnEZ0jv2mnZ8uXTVR0jFCW5xt3yPGIEiAoCq6AAjTpyGQK0IMNPyG2MDHQAAlKaqWBqplSGQMOoYc4p9yOPxOHpqeR1Vs2CFHWyYo2qyRHQog9kBIX4fh8WjMEkQjUXi8HlDCKY+NLlQrbUdIAOGTT7ZiwICBnBPCJYdRctZkqyTnLu3W9WogXK+wNAEmh5uVTIH4fByXCwBgcHDGhrnxM2xnLgBCVXUNNqzfhMmnzkABVzEQkrQBggQaVhgKWmC07ceW9xYjPz8XJcdNhukbACgEWAUGptkoZmT8SIYzAuKIn3aEOn2wLrp5DX1gRPcSrgX60gI2IyA9g0LtBkR/GuFn9Fj1lFgTZO5BtBVo3AHUfQxr30ewarZBbdiBaHMN0N7cNwChoa4WKxYuZH2AVDkI/JAEEGTWts0a2OsM/7cji17siOkFu85M4EXTopIyFbpN6cryM3LsVGZJjohzIbgunYxF1xQyy4JsoIVaXkfufCnsQWcw3UzsgUxzYylleV36PMXJmamhng58vsmOsbuDF3nq80AxH37vrpZx4YC4RZRCMe8Uh/w4+RyfCXgJILz0MgOEDMkgRKnpFNPVcVdPAEGzVGYyaGxsJ2hXm4j/TmQ57NdLUQUZu7INfaiigvCSs3pCJERK5yU7blLVhYUox+Vt1scen/jbirGUNbKs62AzEhzOICAnhjLpSCfEQONBFlYQVTzs9m0Qy+xUEhRjBE59JKwodGoGlqL+w35+moOV1bVYt2EzJp82k6sY2NNT/IEfVsxHfn9EYJkG9n40H3rzJhSPOhPIGgUFOVI3weKS1a7CP04uITUX0t3sTPP33U/zNC/knuZawLVA7y0g/RoxARQiiC2GBA6oZw31v5F+1WgXTEFwL6w9mxDdtRrtW1ci0LYHutIMqG1ybfL2EiDQ4kYhhoZ6/OvtxTh+xPGdAgTaNQnHyClcMXvEwgwJiWX0U97zJhVtiJ2e86Ddr07d78jRyTp0XpxN2WmPuy8mpt91VgzivK7YT3buuGMlezF/K4mctAGCcJQCNHUFEISFLMVgJybAQtwKdpiB/tYIIBiAX/FgwUv/xNTp02MAgdiDRHAhOh+Sw6X/iecQMXMB6Jy8RM+mL40uPQvtxWl6OsvzUoWU2DUrUQne0tn12rH7xOdK3QcjHYAgFCIFQCAgK+ZMR5AizEPggECBbhLfYPK7Og/naNIzHZAAYVJKgEDggEJW8o6WiaZdK9C0fTFKTjwTWv44WMinwhQoiiEBQudS0i5A6Nlcdc92LXBEWIAYA4Rh8Z8Is8KwCBRQfplHhF8pjNlaAWPvRgR3roGv4t+w6nfAjLZDtSLQiU2n62gmTC2AdjWrlwBBVjFQUuCKxQu5GqB/YaHsqCfcK9H25Lh1ivk7HIbt6oXDcAIGuVs2ozAR5R1VpwevxBqgeWGCjMCpF90cduiiV3UTKe4hnXeS1oA4McW9DBOq7CbZHQ0syuZtHkM6Lke4wBlq0CwFft2L1155DdNnzYQvNxsGSy1rHCKhHgGSOmEnR2EUjkNxZ066tgQIfJu4u+nOqgngipkKmpgUP++or+CkyHn0SZrYQ39LlkAyOxR+MKIG54CItsr2MwlgYx8cYqJr6CJvwT64qsWMwoiKhlrxa3R8Gw6yUJIrs0ZxIBa7FoM02/Y2gBLvllzKySEm2S2Ucij2VdVg85bt3M2xgMscZTdHvp4ACBbzFvTsJpoq3kXFqr9h6MSvIaP8VJhKPn1nmWERDIILEHoyH91zXQsc8RaILYdycy2S8IBwCGipQKThE7Tu2YBIxWr46rfC314Nj9EExaTNCa9ikun1AIF8oOBoWEMm9w4gCB0EA00tzZj7z5fRUF8Pr4dixyYn8tnuhf72qioydR0+QjJJoyWcSXwptnf4tMfuujsihQJURC0VIQOIMFrqzt3GQwx9OWnYVTBtnKzklwxZBH+iWSbT0xTCSKX9l/BsUnSHHIjdzthuCEjn2YwC76uJEVBVHNi/H9n9cmFQ/F5S8Ay2RKheRKYUC14CDZQM6Eh2ZC7EtmPaiZTxJ2YRIVWDQftrVYRRnKObyCKIlsjRSJCzZ+MwQJQrarqHnb+IA8UggWiZ7GBeGEwYBCjjyoYMrFRA16msUIKLTqYHgQJSofRQyIrDSg5AIsWQxEgKdoEzTigURXk+Nm6xOSdpXw6b8e81aB4/vnLOeQIgJIUYBEAQIJIez2jYxADB3/8YFI/8KhS9P48r27VDvkjiLHYZhL78VrvXci2QpgW6czvOywiqNunCnS1MKU5N9Ui84yZQQCGGEBCqgnlgI6IVm2BUf4TG2i2w2qrhD9cjC63wUBiCNjKKykxBs14AT/5AePIGw1s0At5h44CcIX0FEJqwdP589C8q4iTFUHs7J5VxkqBM/aI8ASqi0CmRjOLFCTHvxF0m53CJtIQkReZkIypcDx+1FERMARa6l3C2GYTuuYY0p0bMbdg71K5Ajc2XkHPWFcpZSK7b73hX0TbYEpn6kqHoEGYQXAp06p9lGvjg/fdx/Kjj4c/O4kAN912wVN4hiyOmoSiS+2QypviNiKqnCgek8z1g1oBDShosAgiOV4rnNzivRMwB0VuEXmKPZxMdKVghQrsdK0AEjojbk8JMQgy5CxZK3o4j+wwSyI523kfiWDBkkAQMhWSYCUnOCaDwA/3MEPnD9PvG5lbs3VeJKTPPEDkI9LkYvrHDaXYZkgVE9mD3B68iapoYNP6/ofkGA8yQibTIjhA7/pyfGUDoyZfDPde1wBfNAj1xDzazmMY78qmx0kK5c7e3BpxIb69/cjsiGVjKLxOhWCd1TKxvlIXxYsAgWIuWze+iYdsy6HVrkRmpgifaCNUIidCoqvNaQvlvYcuDNjUTzZkDkTf6q8g6ehJ8+ccAeoHYWdFm03L2q03jBeOnmNyHgV62sakRSxcuRGlJMcpKy2JJafRS9sFAgZIG+Q9LOIpfyRh8wnjY62cKb5SYQCcuQcDAYNGfdNxXbAR69LbdnywdrqSnuzufnBFnwPMc6WI2xqgVkb9h51M4AQKb0Y77s78JY+WKZTj5pJPh8ftkN0cdlqmS8GVsb8ySwJxYKYdCuuJ4iWOK/IgOIRSnzR3/5iRMsetNzgDpmGQnnWkKownomAptdxzrznI50lPZEE8l6jlSAwT7e8zf8Vi6Rorn4NQcM5bE2tDYhG2f7sQpM85AYakECDzm9mdtsRJpgGg9qj5agkjjVpSMmgotZxyg+hh0MQju4nABQnffPPf3rgXStEA6IEF+hTvLWXLeSXw3RR0Sr+S8ltq7YLHy0JopNivEUYJzoqLEHEt2gNhGD1eIkTNoB4xGmPUViO7ZCmPPRmhV66A370Y02oAoSDeGtmlhZkdNKwNBIx9WYCC8/YdDHTwGaulwqPklUDMKoHhImM3PAMLmtXsJEIjOMLlR0dKF81FeWpbQi4GXsoTto3MJj/8i2enHFrkOa6+gdTuOmzB7OuOZamok7/g7xJTlh5znpTontTPrYjJKKrujA+z4Gcd+nydOKpfJqga0azZCWL5sKU6ZOBFeAgg0B3UPDIMmW/zgUkPa5zMoFY7YGV7owCDwJE18NrYJb5SJxhe7d8GkdG4NcnTOo6txSzWqdH1SY6TcBE0l5S8afTk3UuSApA8b6bpdPXnSu6com5DSIJwkS1Uu9G5NjY3Yum0HMwiFJcUytSPuysVVbcBAdFEQ7XvXoXnbW+h39AnQyqZD0XJgckpk14cLENJc/N3TXAt0Z4F0HIqd0iUzzbpby3hDxoymSPAXBzHfnPbMYMAuaBd/i9XLR1l2ZjsUKksMNQChXbAqNyFauR3hvVsRrtkNT3sNAmYjAwLOUVQ8MBU/2lUfwno2/HlDoJSMhad8LLSCIUB2KeDPBXQfoBL/LFLKRRBerCR9BBDqsXThAq5gKJXNaHgRTwIIqah3W8QhOZFfbDxT7RKTi8q6G+Xuf0/xa35UWtQ1Labnz/tah8NhF0oaCZzoF0+o6/4Oqc+wbHGKg71A0udEboMACCuWLmGAQGJO5JAJIEQ7AQiCtYrT5/H2wSn0KZIcMNmDxKSE2qQCXdNZJIsBLtEVSYfYeacrENWZ3SxWyGSRJY9H6FbwkCSOV8/NKq6TXu8GOf5J7I9dFUnPpFMHTYCVPbdu/RRTZ8UBAgHdTqtkiDZs3Yma9/+EjLKh8B/1FaieIlgKJeN2zrbwV0a+tK2FkD446rm13E+4FjiiLdADgJBerZRgJyk7iyv07FADt3UXKfzEEIYdNXy0gvjNKDyRBiBaA6tyC/DJKqDyXVj1m2G2NojKA9rYqCLBn0CFoWbBUIsQ1gugFwxBYNhYqEedACV3EKDmAVomQOEGvrcd74zrFBFQYZ6idyEGm0Hoe4Ag8MFnAxB4HjgcH+kd0MqeLHdEQIIT5zRNOMFOnjHdL82hAgiWEcLKHgEE+aYxNCwceAy8xZxOxxJEcoTtwXaWTG4LtiEjkMGOmmwY4eqBJB2EPgAINA7UCZKksXNyc1gCm8bE7sVhA750xyF+ng0QUoU1OkId0ZAqcRUhJUaaO/QMBw0QKLM4uAc17/8Rnn7FyDnubCg+0k8QAMHWbkz+dthPIrG/Qy6p55ZwP+Fa4EtvgR4ABLuhmvhIalgumiTZIUzJIvD5lPXkcZT/k4sPwYq2Qg02wKrbg3DlZmD/Oug1m6A1VUAJVQNWuyAeNS+3ho8oOkK6F1pBGfSSsVALToRacCyQ1R+KNxPwZsDSA4DmZ2AgntL5kgIscJT6CwkQmL6WiWHOnX3Sbt6moHkvyDLJiQNG9LSgwePGqa2t5d4LVKrp9QoJYBZGsu9jAdXV1SyrXF5ezqZN+L0EC6nCFcmhiViiYS8YBPuNnMNrMwifJUBgISraLesedthEq1NpotjZiyoUOxTA7802FdNSKCjGwwTOBUn0chCxfOf4iZCGxT0ampqaeHdOHTepXwP9LhwKM3gjpUz7Gny+vJd9Dzq3IwD9nAAEAp/hKtSueRaW5kXhmPMBP805ig3G521nAEEsUU49xS/9Uu8awLVAzy2QJkAQW0lbx4VX4Viit+2C7SC4AAkU6LVDiuIME160Uwq5EYU/Wg0lvBPGphUI7loDq2U3wk1V8Bqt8Jlt0I0gVC5PpBJ/H1rCXnj6DYCn5BjgqPFQB44CMosBPRcWaxkEAIsYXpVUBWGyaKBd2SWTqXgxiTMIIivq88QgJA2fqGBwJr1RdzypSK8orMtP5W9OWrm5qRkkf+zRdW7qw9K07LyI9hYlcJrHw3FrKq2zGQE6cfmy5fj444/x3e9ezLvhYFubDCVQeEZQMJs2bcTevXtxxhlniko1VWOZZTvuziblWA7VwVMNvgEPx/4N6B5KEhThiVhIo48BAlmLQgyHEiCkwseLFi7Ca6+/yVUs1NeC5JK/+tWvYuyJYxlsEcNA0snsuEkBkYAbj4ug4Gk8SBqbVRSlPDYBgNhOmMcZXB1TW1eH3JwcbrRF40EdNc8662zZiIsAQkhWe5j8LHQfuigBFhorWwabwxKyuuNgGQSm9Tp4aZtBsEMMlgwx7Eg/xEDfzkgT6jb9A60N1Sg76Xxo2UNkJNJWV+96vbNlqd0QQ8/9gvsJ1wKdWqADaKAFi9gA6mdAjp98hU9Itif0RhC5B4kBcmLgwwApG4ZbEG2ph1m/A8b+tYjsfA+ZrfuhhGoAo4U1ZRSL1klSTPEi4i+CGSiBlpEPf8lw6OXHQik5FsgeBOg5soosKsroTQ0wpNQyqdWS3gyBC168pOico6qQN9aSQT7sIYauxHiSd3j036GIwbtUAgtU7y92sNQwqh7z3noLY044AUcddRQ7DOoYGAmHebdpO3HazfJnIbszaho7jzfffBPbt23Djy+/HD6/H8G2Vo6ne7xepoqJwqaukPUNDcjv14/vSQ4oxE2aqJeDkGGmf8dknmnP5/Eg2N4uGg8ReLAlGDlm7qSZev+lZNlpFj8KYeWyJZicdg5CeiGGzp7wzdffwPz5C3HjjTewzchWFALI65fHAInsxmOmqqJZlhK3F9masaum8u6fHDyNF4EBOnSPh0EGlQ7uqqjAK6+8gm9/61vol5+PcDiE1tZW5OcXsP5GJBpFO3WEzMjg8aZxI9vTWBFopLGkgzQ6bGBnJ1aKd5MOP0FeubO3pnNThyLsstTEEAMBhDNjSYpd5yDwQ6JlxxLs3PwuBp90OrJLxwFKpkwk7XxrEwcEyUmQvZ9f7hVcC7gWSM4QZzTPKoakjiLqoAMsb0zfcZK4pzMoiKDTOaQdxBsVUiyMAG01iO7ciPadq+GpWw2lrQJKuB6q0Spk6sm5U2WB6UFbuwozsxC+kmGIDj0NKDkBvpz+UP0FIqeA8sA00ZFRHMQ3RqHQJomFc7h8UFT7WcInCv8r5QFii0ecW/9CAQRO0Dct7Nu3D5s3b0ZVVRUGDByI8ePG4V/v/gt//MMfMXHiRIyfMAETJkzA2jVrcMoppwhHo+tYu3Yt8vPzUdS/iGnwf7/3b+yu2I3ikhIWFqJY9llnnYUdO3diivwcMRTrN6xnCpucH1HaI0eOxKoPViE7Kxu7d+9Gxe4KHHPMMThl8incrpgc0s6dO7F69WoGCESBUyvjE088EXl5oi2xEK46MgDCP196Ge+++288+uij7KCZPFMUrFu7DoWFhRg0eBA3YKqvr+exGz16DCoqKlBXV8f2/PTTTzm0M378eA7fVNdUs+127dzFTv3EsWMZ8L3++mtYunQZzjr7LEw8eSL8gQD28/VGMyChOUF/qOx20MBBGDNmDDIyMtj2mzZtQr9+/bBlyxYGDSdNmIAhQ4YwyIsfnxOAwFjFQmjfWlRsmI/+w0cid+jpgJrRJUBIZAtcgOA6M9cCvbVAylBkAj4n7RYSOgtJoEA+mNaUAEwuUZRpAiAp41bAbAbaD8Cq3IbIzk1o2/8p9KYD8Bn10EOVUMKNsgeRAovZVg8ULRtW7mBEi06ANvAkaEVHA7klsDJyOZ9AofAB/RF16wnrmUymk3XZ4sFFZQRVnNkKvalEc2U2Ra+TFCHLHBfMP6gqhnQZBBHLthCORPHXv/8D0XAYRUVF2LxlC772la/gwIEDePrpp3H6GWdg3LgTMWDAADz91NO49tprkZmZiWCwDX/407OYOmUKN5V64YUXsLuigp02AYNFixdj7Nix+OpXvoIX/vxnXHnllXz9pqZG/ObXv8G0adPQFgxi//79uOjb38Yf//QnfLx5M04++WTOS/jggw9w/vnn47RTT8OuXbvw5JNPYsJJJyErK5Od0ger1+Cxhx9GQUHBEQcQXvz7i3j77bdx00038c6cmAJy+M899zyOP/54tjmFF959911s/vhj/OD7P8TcuXMxf/58TJ48mUHTsmXLMHXqVHznOxdh6bLleOutt3DySSeBckM+/PBD/PCSS7ByxQq+BtmZwAQBuYULFuCGG25gkPHyyy9jzNixyM7MxMdbtnDOyNVXX833vueeexjEDR48GFs++QRV1dW49pprMHjQIEc08PMEEACjZhsqP54Hf79s9Bt+DhQfzZ10EiglAu0kWaq3i6b7edcCR7oFbGBA6xkxoglsdhJAoD45YYS5NQBJEFFbAcHl+jn5kPQK1KYdUKhjYsMOYP9aWAc+RrChCh6N6hdMqOFWWOFW9nGmpx8sXym03AEw80qgFA6ANugEKIUjAF8pgExmIEgAzk4Ip5C66BJLQkgpAovymZOrwGNnxsuf5NCKdab3DAIBhIaDr2JIFyDQU1PIoLGpGY8+8QQmT5qEU6dOQX19A++26Hd33XkXLv/xjzFq9GjerT708EO49ZZbkJWVjfqGejz59DOYOWM6ysvKcc999+Km62dj4EBqp6vggV89yGGAH/3v/+KRRx/FpImTMHPWLGzcsAFPPfUkbnjCLDsAACAASURBVLzxRmzYtIl3wP/zvf+H3/72t9i/fx/mzJnDjMEzzzwDvz+A/730Uvz973/jneytt9zKr0efufr66/HUE79Fcf/+hxwgwBFiIB0Eln/ussyxdyGGF//xIp7947M4fuTxzBRkZmXi5ptvxp9f+AtGjR7FY0U5GO+8/Q7WrF2Dn/zkpxzSoT/33nsvq2+++uqr2PzxZv7c448/jrKycpz13//NuSIbN25iFmLd2rWYO3cefyaQEcCCBQvw1rx57Pwf/PWvUVhQiO9977vM4uzduw8/ve5a3HbLrXz96667Ft///g/wX/91Jnbu2sXA8e677+aQVGISqS1c1V2G0iEMMfBkN4DmSlRueROmFkT/Ed+ElkmLQ3dKCPbS7TIIR7oTc9/vYCzgrPXp/PN2grUdguzYb8XBOyomgtxTxYAfUWjUFIlzCyxYLc2o3fI+jIpVyGncDF/Lbqjh/ax1Al1hBiAaURAOReHLzILl64dQ1tHwjvwK9PJxUHJKAH8GoGVLESPqIKzwtYXcMOVthWRrZxmO6EJMjZsX22DBCSU6AAQp/d4nDAIBhAULMKC8HCXFxTHLpdZBSF54O1vIBAViHyKua3Kcedny5VixcgVT/MOHD8eUqVMQCUdw51134cc/ugyjR5/AuQIPPfQwbr3lZg4P0E70yd//AdNPOxW6quK555/Hww8/xBsyzkGYO5d3+ldecQXnMsybvwBz7r4Lf/vbX3lH/KPLfoS58+bhQGUlfvj97+P3v/89SktLcO5553G++Lx58/DJ1m248oor8czvn+GEvfPPv4Afn4Sk7rlnDjslshEfhyrEQNn5Zhj/WrYEE08+GV6/nzs1KhpVFZAQBx2SPpJCSRRLt0vn4uLY4iETGit1olRJDMLiRYtx2223sbPNys5ipuS3v/0d0/82QFiy5B0O+9gAgRI+/+d//gcZgQCHcd54803ccvNNuOuuu3D2OWdzGIEQNeUPUO7IkiVLGCDcc/fdPKbzJUCYfcMN+Nldd+Hcr30Np8+cyQCBJg/lk5x79jkYM+YE3DNnDmZffz2OOeZYNDY14Morf4JrrrkG406k2L5tEptBEERcbKBSriOdAQSRUGkjex7/hkZs29aTHAS6QAQINaJ62wIYrZUoGvlNaFkEZuPj1/Xy6AKEg3Ef7meOZAvYvodrqBwvmuyTTESCLairrEJuUQn8AdIMcDYUtL+GtvqByd1UFEShm+0w6/cgeGAXUPEhPFUfwGquBCJtUKJt8BitUIygcOyUPO/J4zJEK6MUWsEIKANGwiwYAjV3COAvIoU7GXKgv4kdkN//mMIuPTvla4WlpgHlP3TezC0ZINhGiKUjxD2ucFO9AggsMGSioa4WyxYt5PhxSf/OAULqNstdLGQJUIcAg8gBFVT/AWzfvp2dBoUMppwyBXfdfReuufpqBggUCnjkscdx3bVXcw5AXW0tfv6rB3HhBRcgw+fDo489joce+g0ikTA7oOXLV+DjLR8zA0HU9e133Y3vXnQR3nhzLm6+aTaGHTUMb7zxBvZXVuL7/+97+MMf/8iUNeUqUCLd24vfxubNW3DZZT/CX//2N/h9XnzjGxciIzMDe3bvwR133In7778fOTk5cb9DQhkdZJa727kmfoETyCTZaEgzDKxcvhQnTRgPPcMvejFo1ESLHG0ibKRJTV0CY0BMlreIcv4uWlE7Wmu//uprWLZsOR64/wGO6XOlhmHi6Wee5t37mWecyaEHssuBmhrMvvoavP7GG5y8+PWvfx1+nw+f7tiOf/7zFcyefT3uu+8+zJgxHdOmnYZo1OBrEkhbtGgh/vnPV/Hz++5FVnY2Fi9+G2+8/hp++tOf4q77foFxJ4zGpf97KQIZfk54vPSyy/DNb16IE08cg/vuvR8333wjM0Z19fW44sqrcNVPruRcFY2qJBLMmgrEdlw4k4psYoCCS3G5okWUyTJA2LodU09PN0lRNlyJtKBm+2K0VW5H2diLoFMlg2ZnHzufJxWr4AKEI9nVue/WUws4mQPHIsice1BKHvtghCk5sBmRT9fiwPp16D/jW/CR6iAfKiKKSEf0s6xRCIiSqmEz0FIHo7ICRu0e4MA2tNfsgie4F/7oHijUipUYQU5MVNEe8kHJKoUnvxxm2UhoJSOg0D1oA+DLAzwZgOoX4QJ+Pl7BJQCwQ4w2YKH/pm0fnUM/oyTFbmqXunIxSQ6lFwDB7hxloaG2Bkup3fOAAehf1D+mMpjIIBC3kaQ5HxvjVMp6ybFWIeNbXVOHpctXYMSI45CVmYU///kFeDxefPPCC5l6pgS26dOnM5i4+96fY+KEcRzbpgqFXz/0EH76k5+gfMAADhHMmD6dExr37d2Lf772OqsO3nDdtWhpbcNf//pXvL/qQwwbNgS33fYzTr57a/4CVFZW4Qf/8z08+9xzzF5MnzGD7z/vzbn49NOduPzyKzifYdGiRbji8is4e3/Hjh146OFH8cLzL/BuWUAz+r9UC3u6MWYZnHEMNke+qErDsPCvZcswfsI4aJkBRClzlSabQdGxpFQ2hTJwjViMTUaemHUQWLUT1UMHQHj1lVexcsVKPPDAA0JRUSYpvvLqa/jPf/6D/73kh5wkSszAsKOHY/Z1szkHgQDC+Recz90WKYfgpZdfwtU/vQp//dtfmRE677xzUVdXj4ULF+Db376Ix+mpPz2HW2Zfh9LSUixd+g5ee+113DtnDl56+WVs3LgRP/7x5SgsyMeatWvxzDO/x5w5dyM3Nwf33vcL3DD7WgwcNAhUDvvjn1yNn1z+I0w5ZRK/OwERCmek/nKldraxDpEJglmCQaBr2nLQDfUN2LaNAEI6SoqSPSAGwWxF447lqN+2FmUnfgPewhGsi9BRv8EFCD11F+75XyYLOD1ijC6UzehMKET386KlwWrbC3PnvxFasxhGUxuyzrsRSskJ0kHrsh9OFFq0AUrjNoSrScBoK6J7dkBtqoYeqodKvzPboNB3mMq3VS9CVNXgyYK/aCDMouOBsrHQCocAgSIgUAj4cgFVaBWICicnALDXJefa7fy37TN6uClINkuKKdEHAAFoqK3G0kULODEtBhBiYi2OvWmnACHVi6VwlFTmGIrgry++hE+3fsLlb+R4Zs2axaWNL774Isf+Tz31NFz4jQvw6quvMQ1NzoSy6RsaGnhnSolzK1euZCdFmex0DSqXIwbkoosu4k6UW7dtw89uuxPXX3sVx63p9wsWLuJqh0su+SFe+PMLOPaYYzFp0iSutV+yZCkqKnbjkksuYa2EV/75Cvbs3YPcnDymu9es24DfPf6ErNc/tABBN0ysXLYcJ44/EVpWAFEShqSyFsvTCUBI6NAg9b4o1NWRQYg5JwdAWLFsOVcxzJ49O6EqgJziw488gqyMDK4cISbA6/Xh/33vfzgJkQHC+V9nFmXXrp14/fVXmQ0gsEBJpHQvr9eD4v7FuPjii1lX4o4772YAcOaZZ/Dnly9fjiuuuBItLc1cAkliV7Rzb2kLYsL48fjvr34FbcFWPPjgr3HZZZfyGFNVw4033YTLLr0Uo0aNZsZDtIm2dxbJCLwzgBA/L+607QxhIVREoRHKk9neY4BAlGEQ7bvfQ/WG91A8+qvwlo2DpQVcgPBl8m3uu/aRBRIZBEchHwkTA2YYsFpgbJiHtlUvQanfAyVrEDLPuxkoGSVlkTWgvQFW/Q4E928C9q5CpHIdjKa98KkqfIYJnTQNiFlQaE31wlSyYQZK0VZ+ItQhpyBQMgJq/hDAkwtL8XFYgtcO1s9JlWBIz50q3CnWmVTCfH1kMIGZDj7EQDsd0XCivq6GcxAGDRrEsXdbtpjUBuJLaFcMQvoAgbI1q6truEyONAgIlFC1ATkFKpmj3TpVLRx77LH8+61bt7IjoaoGAgI0GNlZWZzUSOeS46cSOiqHI2PTeaTQt379OvzzlVdw4w03oLy8DKFwiMsqKQnv6KOPxtatnyArKwtFRf05N6KqqgbtwRCOHj6cHRztZikW7vX4oOk6/vD7P+Le+36OosLCQ88gRA2sXLYM48afCD0785AABOcutqmhEbU1dQzShKiUPCxgx84dqKysZElkSg5tbm5FSUkplydSdcGAgQN4jrS0NqKq6gCGDz+G21VTYieFibKzs1BePoBtTQeNJ40PjROVNlKVSWlpGY8tjT9VkNC4UzkrzUdbq2L79m0YPHgQjwmFOz766COuaKCQT1zoyqZ2DidAINqGRFdokQnCrF2P6g9XIHPARGQdMxWWnuUChL5cAd1rfcksIDae8c2zBTPcBtVqQuSTpQi/92d4KjdCVw1ECofD/5WrYOUMgNV4ANHq/YhUb4ZavYn/Wws1w4MQjGg7KxoaloooRY19fuhZefAUDYNSOhpWv6FA0bFQ84bBsqhjIvXHEYJqHDRnoSV6IrsvgnNIbIDQcU1K0ZcuZXuC3gxwHwAEA/V1tQwQqGSMnLUNEDRn72o2RGchhjQBAqtCCs39gzm4VNI0Y82YnE7O/nltTQ2WvLMU/3n/PcyaOQMzZ56OQMCP9hDpXgtFPlIADIXC/BzkmOgQAkAKVzJs27aNE/SGDh2KQCATn366nYEElfcReBFP31koIfXPxSsnTpLkJFDa75MghxqJMoNA5Z6e3CxEqYlHDxkE8YSiQ6LzSGYQxG/jktQd6e/EkaK0FbGzlpLJnPxDDZ9I0ErIL/f0SC2bHL8KAQ7OX2HZbZFAyO9nieZcifMp1Vw8eAaBWA8CLiIHIZ0QA88mKbzSDjR/gv2r3oY371gUjDqdVdJi/bljr+iGGHo6Z9zzv5wWcK69Yu2KwmqrRNvHi6GsewOeA6s5kZAFhQoKED7qNBhRDaj9FEZjDbRQFXxGHbdfViydkxcNxYc2qxjRrDJY+aXwFg9CRvlQqP0GAlnlgC8HUAgYkI4JaRvEc57srjdx6eVU+QPS3zlJkBTsAXuIThLJD3a0+wgg1GHpgvmSQSiM9X9IBgiUK98x7t7J4iu7CyZjKTJup13w0rBCfILEr2Iblf4mloDq8EtL+mP8+HHwMAOgyd4MIg9CI11/CTbYPbLiBPElogUx0dUffPghduzchabGZgwdMgQjR47inbNwgLK5ckqgkwogdBJbEg0YYwcDBGqBHI7gX8uXYey4cfDm5sCgpEHW1U6+DoEaauwpmnvGQIEUBBW2ciTwOeSvE0Q2RG/RNKxvY8ekc/k/iZITDjzx6P66Iubf+e0FgBBvZwMDHnP5wY4AIflaErQk4VK+hrwvl0PFrCiVyeiNDANNTc2cgzBl1unpKSnKhqus0NZegd3vzYOeWYTSMV8B9IKEjGrxpC5ASGvyuSd9yS0gWp3ZZUtE7yPahKYPX0F09T+R0bIdvnAdFKL6VQvQW9CEbKiaBxlo4twuUIda3uX4YOo+hD0+hLx50MrOgH/IJOiDjgNyioVwEakXerzy+xoPIVBlmP0Udh/FbgcmeU/s2Og4P/s5AggUXhCJivX1BBAWYNDAAehfWCTcCiVpxddkuTiLVjMdj46re3zBTzxfKuh3a890T3De2S5No14CxBJwy2JTZKNTLwenLK+ziZPwC9JByNg8tUCmg/72+vys3Ejn0LViyW3soJKf1H5fOx5uVxPEd76xTyQlKNKldCsKPRrEymXvYNy4k1mKM6J4YbDEJsXHEp0Jk1oJQEWwBjbKTbC+sz+GU4WrA/DoyvqdgB2O2SU7OnnuwRFGSTijI/CKgSJuE93zZ3Z+GQVIFPNA1LCK8aJQVmtrG+cgTJ6ZLkCwvzgG0L4fez6YC9ULlI35KuAdkFjGxPd0AUK633f3vC+xBaw2UbGgeBFub4Nm1KNl/UJY615GZuNW6BaVIJIiIgkOabC8BswoNe2jr3QUpuWHFfFB07KgFA2DVXoCjP7HwcgZAE+/o6FmFgD+TL6+CBfEt13xEIJYW50AIZFN7nwzmHLkktetnhOwXU6IXjAIIv+AbEBljkvnz+cSsi4BgpJqh5i6goHfW/QKTnqBTgzY5/Neds2TI2mZdqmJvFFKh2JrN9jJI/YE+f/snQecFdXZ/78zc+v2vgvL0jtLtwCKIGAUscaSaIwmMYmpmuKb8iZv2j9NY+yamKbGxC7FjgbEQpHekd7ZXu/d22fm/zlnZpa7ywJLWYF4Jx8C7s6cOfOc8vzOU36P87dVO0KYuy3vS/tiP8n3H4yod6ofSrP8ES5ZdsPUUeItfPDuAsaMORtvdoEsAyrArGImku0BsiVR3Em4JQ5eirzXSXE8RPoOcksCC+oJAwTxlkQHKZ9i+E/GjE9iB+lAfqKI1pGvw1i5kswWB60JQngHi4gJgCiCIrdt38G4C6faFgQB1tpG6HS8+EWFqnr2r3kVk3pKh09H8fVPyoe2n0pKU00ex6OmO530NZNqMCWB01kCLYD4o2FGamle/RqJ1XPICWyWWQkSaMu4OrvqrKagGHFMVSPuyyWeOxh3Rh88hf2geBDkDIDMXpjeLMt62OawJ/7DsQ+08Q10kCmVvP8cxhTa0RbV0c9OxnaZrA1OKEjRViyiUNKCN1+nsCCf/Nw82bwQmMgvd/S7ZTkQSlZq/jYKqf1G1noQO+Req+WPZ+MTp0q7LrFQ5ccV95DcVwsYtF5SuTjtOz9tOzmkcd82Jcl/yzS8w1/ybaJKpaB+XvohQ4eX48nKkLm7YrJ6Okpz7MDtY6U4HrQiJL8x+dR8UD8ey6zsyKgmvqujuhQnc6w7ApsdTMfDireDb0warjZZDAIg2GMr0idj8Th79+1nwpSpFAgiMTGmwpJ0pHxlp7uxZio2vkk8upMe5dNR04emAMLprINSfTt9JSAZDoMY0Xqa1rxOYtVsMgPb8NFsZzHY+7HDT2Nz1BiZJRj9pqAMvAQ1vxzFVwQuP2iCkM1tlUU+ZB919rn2Cv8wAOBoUjtzAYJCS7CZJQveQUSzS9O8NNlaYnP0oHVetmMQ2tutD9koLaeyBRS62IbSqYE5gnI5usq27zio7Kwvsr/rCIdXayqZqIqB20zIyIC25UIPfbkACEoiRmNdHQVFRcRcgtzDUvYe41AehIRiFSF1gJv8UmnekCaCDo3+Hbz1GEDb4ZT+4VwMRxugY/n90SwFh2urE0Cldd3bskvCHjIY0uXl3EmTyBW1OMR4aJ0FCAEadiygqWGdBAiuzOEpgHAsQ566NyUBWwJGvAklvJum1W8QX/cKOcEtuMyQjMOSJEatlkTnYGvv1CXDUSZ9FbPsEnAXowh/X+uBV9yTbPl19or2f5/gMJyZAMESTiIepb6ygngsaoUliJxywyquZNvSJVuf8OVYp+JkFNXODG+DC6moRMBfhy6GExR2px93Bvlw2RdHayh5kki0Y9lWZNCcIvPvjxRU4gAEhzZDUCIfGX+KyNoEXrOZ2o2rKegzADOniITqlmYy1TiUZcuCPrY1ozW3IkkhdgrwiiDFo8nC+X1HytZJ9TmcL72zbR9JwR8vyDs4bp3uRQduEWE9yikotEpOy7znI4AOR5bi73iI5j0LaahcTPfy6bizR6cAQqcHInVjSgIOOjDQA7toXjebyOqXyQttxZNolHlfFkAQ7lcH1dv/spQZpJdhDLsCZfh1kN8fRWQlSMbC9ntKR+DA2T9OcCTOZIAg604bNmu/EzcgPyg5cMtOc+xQkXSghZwocynXTmufExyFZCWWPLCdLZDT/vXtgZDz38fwPRJMCQUs0dXhL6dJJUpi/1L2LZ5DYd++pI+6HLRsi6ELUYY0mYzDqSfgyLi1kcNYBJLRcnJXOoUi7AcOAxCkreIY5NKhJA4Cnba/dn5+vO13woLQ5oVJ8khW9s56SLY2dPQdzjPS4BYnVLGUmm1vUFx+Eb6CcdKs2XodVvTH2ueTtHRSzaQkcBpKwEzEadixlODmt0lr3Iw/Wo2qx4iZLtRYAC0RlocrcShVDQPNSKCaUVQjDu5Mglo3fOUXoZ1zNaqIPcBnA3UHJCTvnccCCjq5d3Z26+pkc50dohMIUuxIcTvCsjfk9h/V6c47CK7TD3T2e4/jvhM5eR7ldZ3+PMfkf7j2DjZk6gHq3/sLkYq3cXuh6PwfQtFwK+XG9MjqYW0Klcjo+0525Ij5hO3aOFruYfKnHA53HMdodfxIZ1fXyepIsiwsvoc2sTPy14d5VzKgkFPPIFa3ln2rn6Jw6IVklk22Ty/JYDY5Yjr5550c15Mm51RDKQmcjhIQ6Yk66EGINUGiBaItmPEoiViYaHMVZiSAEQ+jx2OoehRXtBl3qAZ3LCDTGgUJUgw/jLgS/7AZqC5RK8FZdx1ZEpLX4QnKpKPt62Na2icIENp/eDJA6AhAdFZQp9vp53gtCJ393hO8L0nBR+r3UP3u3fiDy/B4VLSe00kfPgPDW4qqZEv6TwcgKCLXtw1AOJmz7mQp2xOUzSl/3F7dHfFEdCTu9gBBeBmaNrL/w8fIG3IBWb2m2WlUzoeJ+JGOGNhOtzV0ygci1YFPrAQc1l8R5ySypeyAaLnWxN6eEIQlNi+K+KEhXXuEGiAWsjMbIB4X7oZStKzeqB4RoHikipDHYkU4fQfmJAOEI3+oVSGwc5fc3jp7c+eaPL3usmXRmU9s3eoPd7PkazAkYVPN7nW0rH0EX+MqfF4/kZwhZI68EiV/NB4z1yIBseeuhQ3sOAiprE4mQDi9xH3G9MbBVTbWlvkdwS0cWPQwuf0nkNn3YhRpBXLcJimAcMaMbaqjp04CIghRUpiLP7qtXMQaEkH1FgetiNNSZHaRuMT9MdBFMTsr7dEqtyzuF5Svws13LNlbp+7TT+TNKYBwItI7kWeFUu/k80cFCGI6C0IPTaO5dg+u5neIbnkbt57AM/xyErmjMNJ7ka5kYAo2MKFeZJCcRQLVqmw662roZL9Ttx2HBJJBoEjJFueb0FYqFj1Mdq+zyeh3CZonPQUQjkO0qUc+qRJIsiAIpS8AgtTtBxW+obgkn6wwCliOA/GMuFcACiewXpDn2dY6CRb++w9UKYBwqtbMyQQIIvPD5mpQRfnm6C4iH72MWbMb/+Qfg1pADA234AEXGSYpgHCqRr1z701yM4igKT28naoP/0Ja8XAy+l+C25eZtDelLAidE2rqrk+uBJw4oITMVmhbHdFZPzYBfmuVWosSv+3lUKh/ctx3KYBwqlbNSQQIVlqpIS0IEtRGQgQ3z6Rpy38oveL34CkkGk/gFpkQIrCmlRY4ZUE4VcN/xPcmB0QbCYzwDmpW/BM1uz85Ay/F7c+0Ni8nwyUVg3BaDmOqU6eLBGx/nSSasysnttLcO8pegAjbIiDXlb1PtmOe+e+3GbQdsxRAOFVz+GQBBDFjBeeEU6VSuA4MiOx9n+rlj1M29dsoWX2t4ERdVDQUxMoWB0PKxXCqBv8o720FCMLHIKrN7aRh7XNEvWXkD7kUl6B2VS0uDctWmgpSPE1HMtWt00oCNpXyIZYBseCEdUCsI+eyoED7/IT//qiDFEA4PabsyQIIchZbdFLJ1QX1mtVULvoThWddi6doBKhZFkCQlRdSAOH0mASH6YVThkMUsBI+0JZdNG2cQ0ArplAChExUARBk/EgKIJzWY5nq3GkmAZtOucMI+I7Vf7KjIWVB6MLhTGUxtAWoJzNIsbVlJwq+aSPbF/yJzN5jKBpyEWhFmIYIvbHImlMWhC6c6CfadDJAECWfW3bRvOllmiiiaMgMXL4MaUGwAkxTAOFExZ16PiWBlAQ6lkDKxXCqZsbJtCAkf4PIUhBILL6TLQv+JlPiBlzwOVC7kcBlnzodbiShZJLIPlJZDKdqNrR97yEAYTfNm16hycyjeNgMNG+2lXXVmoHiAIXkZj45gVSnx6ClenF6SeAUsgudXoI4od58rABBBNB19tQsjT2dIQk4oc8/hQ+fTB6E5M9IiCAcofSr2bXkOcymffSZfAO4e5NQ0lAkIDgYJq+qTgGn9jUyTqFsPumvdoZHFS4GHcJ7adowm4CeTvHwy3D5CqW/tLU6aIccFimA8EmfRp+M73eiBJLcA5K51Kkc7DgFbNQt0xOP7UqOGT62J8/8uz92gHBMIvtvBghCEMfi0OqsLERFMkGrrLQQ2b+EhuVPUjLhCpSC80mouZiSx99qTEQuuFBl1U15pSwIxzQ9u/pmUxFVUXWU6H4C62fSHFYoHnUF7vRSDMUjy0Vb2CA5lMohUEoBhK4en1T7XSOB9oGByW9JVtayRq1IWxTZCaqIrXLJnU0yuxgRe08TgEAEJ8bsQERRQ+HIoYZtkoiSjlMdFarvGgmcPq1+vADh9Pnu/96eiNkt6x4JJrB9VL/+v2T1H4Ov/AZ08jFwyyqbchGYJm5FRWuT3vPfK5oz7cskSZJpoMUrCKx/iUBTiOKxV+LO6mcBBGH0SQGEM21YT05/O3NgOJYDyMnp1Qm34oCDw4EEJ8TKOl+ZaEbUshYobrkmxNYnw7CNgJ2VIArUiUNTxE7vFhTJHdUuOdj1g++w9kmnorB6tIJ5J/z1p18DKYBw+o3JifUoeeMw66hfcj8JVaVo3E0YShk6HgynjLYJbkVLAYQTk/jJfzppY0+IKqmJagIbXqKxuobu467BkzUQFK9tCDIOY4lKWRBO/sCcRi3+FwOEztZ1VTDQ9IBFfqRlYCoeqcxVMwyJJtC8oKTZ9MiCMllYVkW59SMDBGuUbYgiazS0AFHQ8m32xdNoHnRxV1IAoYsF/LE3b5kGrMWgBgnsfI2tK//DmOk3YqSdg44fQ5TnlrXOhQXBhSaQcSvxzsfe49QL20sgCSCImFNFryawcSb1ByooHX+tBAiidLd1WwogfCIn0GkOEMT+YvF0HNvVagDtxGMKcbTmregNdajdR2O60lERxZWaMQ5sR83vAb4iUPyWG0LaF2R071H8uw6hkg6xGEbDJvRIBa5uF6J4RMG7T86VAgj/bWNtqfkszQAAIABJREFUK34ZT6DGCAc2su2Dp+jXqz/+oTdgko5uiqVlgQIPGi7pYkgFKZ42UyEZIIitTK+heYMACAcoHX8d3qwBSQDB1hTymWStkbIgnDbjedwdsQLrzKRgpUOGWdYMOEz80LHrZ3lwOFSxJxv2D37Mofe2pt90+os7ep9uf7HVfVkVofVy3mAFsUcwtr7FjlXLKL3wVtScHnhpIL57CRXbdlJ67kW4cntjKH47NkHELIh97mh0R3bVRwEotm+lcsWL7G/YwNCr/h/+oiGHfV4euoR7ozVo+Gjv6bSYTtmNKYBwykTfhS+2V5SpmuixBvau/AueRJjSc78IrlwMw0sUn4xl9CrgcqwOx4H4u/ArPrlN2xu7FYNgoul1NG18ibr9lZRNuAZvVj/Aqehoi6lNoKK1sR5bFOwnV9yn55cLxS8i8YVZ3Mk8SjJ7i5+JP4JpMx4DVdCfiSJEHlCF391RrpaCFX802R7ohsWh0ZoFc9DmSMIATRyy5Y1xu4qhqN/ikgRrFteggamL0kbiZs2qhIiCio6pqxbHimR4dQJoHaRi90TuM4L9VZfxUJoInJbMrtYl+4AuU3nFid+Q1RZtqOTUSpBNBWj64AnCwSAFF95G2Mwiw6ygYv4/SO8xkqzhE1G0dHTFK/snYxNMHVNxYZoiwFf81OprG+ZlmQEhghpNaGkmuOo59q2aRe8rf4uv9Fybrl7IpDW825KKkIkYB0VYaEV2mCVI8RYROy7PbK1w5zjQ2ymYqCmAcAqE3tWvbI3ClXMwRtP22VRuWUTZ8EtJ6z4a9AzpatAVazOwFn3KgtDV49Lp9pP2jpgu/Ky1NG94ifrqOnqcezXe7N5AGqYN6CQ2SAGETov3zLjRAQj22ArlngiDZNcUGtSLqfrlsJuRGmpX/YdMJYzvrE+Bu0TUf5cayTR9tKhWal9Gotl2PXrsbCa71PtB4zuRuI5P3K5HQG8Bt8h68hBS0ogrCt5oCNUI4jYTKJoJHje6kksMN37RR0MDzaIIx3CDLgIIDXRDQxSSU0TqrmKVWxZZOnHFhdtME7dgKDoxQQyW8OIVylwV3+kWjgTEmd4lXKK2QpffF97Dllf+TO+R56INuJSY4cUX2MjGOX9gwIxv4ykealtX7MqLIpZAWB3UHFm6WYAT63AkXy77qLgVVMFeKoIfBWgJ1hJd+SyBlbPJuf4+tMKRVr+IE9NE2rgLtxG3ZK3HbeuB6HeaNQZmnITiJibyxVQFr5CbXN+diYM49TM1BRBO/Ric3B4oBzOAxfpFiWMEVrJ96Ryy87pTVH4FhtaDmKHitsucW2suBRBO7kCcQGtJACGi67hEkOL6l2hsCFF61mV4skpBlO5WxMkN1BRAOAFhn46PigEVwXHijxxhme5KaC+hLR8QDtaSm1+Clj8UCntirniC2Efz8eQWovQeB1llEAliREMo3cYRzx9MY8VO0uvWyZNs5ogLQMmRJ3/LnWBAogX0BvS96zHcOm6PAfUHrM2kz0TCvn643V5c+h6o3kTT9u2IkEB/UTZ0P5dERj9cwuKQaIQdqyBNBU8pRm0liXADnj4DICcP9myDcC14IpBXRjynHy58KJEIZnM1ZqgONRyCwt6QWQqudOKqj4TqksWZXQL3SINKgsieRdSufoeSSZehZQ+XmQzhHe9Su3IWpZd+By2jlyxi53yjWbUGDiwDw4WRWQbFfWnZtZX05t2oaQUkCobiKixCqVxHvKkKo2Q43vx8Yh8+RcuSF8j63D1oWgbUbwYliplfDundMGp2o4SqUQWM8WRAtyHgTidevZNE/V58RQPQ8/qT8KTLREwLGqQsCKfjyvsE9ElGtUmToOWvFGlA1VStf41YzQ5Kx30VI60/YQPShUVStYgXW91mnwAJnfaf2M6CoCYqCa6bSSAYp2TMdNzpReI8iKmKk6BjtmwftZZyMZz243zYDkrnEoiTqVyZKma4loZls0iPH8DTvz/htaupiebQa/K1sO7vxNe9hat7f8K5o3APHoO2dz3N6xfiK78a3/irady0jrrFz5FIJBh0wx2QKXzpHrsHJkZgLzs/+DfqgcXkZ0FzzIUZCxFpbCS3/HIKLrhV2NAxdv+HfQtfo2jYWfgKexFc/hb64Mlkj5ghfQOJFXOoXvIy+YMGUNWUQSwWx9Wyj+xclezeY9i6eS9eM4Avug3PsHPJO/dqzJjO/oUfkJYwyMz0k9i9Cl1XSJ92A0reSAwtWwIEcbnFXiVcD0aUxuUvEmtuoHDiFSjeQmkFrV75Ckr1NvKnfAVV/kxYUURcBVCxlODc+/FH9qNN+hx0G0vLR8tJvPNnMvuNQj3/G5DXA3a8Q/PGJagjriGj/1D0D5+iccFTNA+6hspwhG76DvyBKjInfI603udjVO2n4sOnSQtVkTvqQhh+GbjctGxcQPO21RQNn4za+zxifqs/4kuOFiZ5uszdlAXhdBmJk9aPZN+liqlEMBIBiO1ky/wnKOp7CdlDriBsQrqhSCtaCiCcNOGfnIaSAIKIQVCiBwism0k4plA48hJcfpFulZ4CCCdH2qdnK4YwxUctbWjoJCqXUjv3HxSdfTZq78kkmvexdf0Whkz7PEbDempfeJC8vgNwTf6KTIFNHPiQ5lceJu+c62DsDAgHCC55jpot2+jzue9D1nBMxdeaCWMaEaI732bnq/dRkKVScNFt8pRbsehVIrVN9Lr6DtTsEqqWzKF2w0qG3vB9lJzehOY9Sk1zhJ5XfUsYK4nv+YC9858jO7uQrHGfw1Xck5YVs0ms/Re+8mvQBs3A5ddoevdB6iIt9Ln88wQPVLBv+UYGnjMFV3EP2LeU2PynUTJLcF9xN3h7oGsKccHEq4BHMdFijdS//Xf8A0eTNvA8SYRkhHax/52XKRg5Dn8PESuQkRSHY0K0kvjSZzBWP4dn4o0o/adD8ACRWT/GXdwLbcqPSfh7Etv6LrE9a8k677OoWXkkFj9JaPFzGOO/hnfIRNyhnex78wnM7MGUTv0q7vRcomueIrJ8FlmjJqKOvBF8XoJr5mIYIbKGXYDp7kFcy5JzzQEIp+fEa9urFEA4E0bpWPtoR9MK+2BCSWAaOm6zkr3rZ1G9L8DIC76IntYbjyIClVqTIlMxbccq5666v02ao6zdTWDtS8SNDPJGXoLmzZVBiobqluDOcjSkLAhdNRwfe7tyOIWfXsQcuCxfdv0qEq/dgyvRiHn2LSgDx5GIe3GlZZJo3sTe5x6i56BhaBcIgOBD37uA8Mt/wHf2zbjOvhZiQZoXPcO+rdsYeuN3IHOAlf4nIwlFXIOJGfmIXY98j5L+Zfgv+z95cogufprgmnlkX/RFXAMno9dWYIQSuEu6QXA3ibn30BCEglv+H4qSD9p+dv/lVxSNOg//GKEo8zF3vEvTnN+QcfGPcPW9FNQQifm/ob5qJwVTZlC/bgl7li+ld79htMQ0XNFmvC31aLl9yfr0XSiefAzNRVhTSKiQpoC7Zit75z9N6bRrUQsGAmES+9+lYsVyeoy/CiV/IKji+5IyCfRmqF2F8fpvoHs56vibQIsSevp7xCIR/NN/iKdwNPuWf0B+aSFpfcaDVyW+8B8EPniGrBv+iKvsfMzG/TTOe5Qmw0W36V/Dldkdo3YzLW/eg8sMkzb9dtS0NCoXvkPu0PF4S0eii/UqrQcJ271wZtgQUgDhY1/9H8MLpa4QG4xOQrKKmWhmiJaa9exb/joFZcPIH3QxePJAKBm7S51KYuhM/vXH8In/1a+wS9GacvPWMcN7aV7xPPhKyRp2CaonUxhbpfKQ1p9DAhSFdFIuhjN2jjhZRUJxSwQvYgSqia94EX3ze3xU1UhW2VDKJnwad7cBxIMb2PvCw/QaPArt/NvkyVnfs4DQy3+Es75A+rgbUBNNBBb8mT3btzHs5jvB3x+UTNAFOIhZAKFlLbv/+mOKB/TDf8UvIapgrH0Zff1M3JO/gdFtEiottOxZS7ChASXeQkHlG4TqA6Rf9yMUXz9w7WTv335LwbAJ+M/7MmiZmAeWUfncL8i/6ld4elwIegD9vbto2b+VzOlXEVj4Ci5vNv5zpmMqGSgig8DrB1cJpqsfquKWWQdRl4agbPGaIepWvkW0dh+l46ajZHWHWA2RDXNoaopSfN5N4C2w1kfSJFAk3XIjkXcfoWHzGgqnX4vZ0kLLqnkEqnaTd/aFqD3Oon5rFUVjJuLO6QdaHH3x32he+AKZ192Lq2wcZrCS+vkPEGwJ0n3GN1CzB6JGmwgv/AvNm94i56Jb8Lqzqd68h4IJ16Fml0pwIC5NBEDKjfbYa0KcivmcAginQupd+U4nUdoU6kW4GwxUEZkkkHQiRGj1UzTU76Z43NW4MsslA5khJmwnYmakykkBhC4cPRE/IrjgxP8EOIihmgZGeD9NS57BXTCMjIEiSl2ww7kO1s7osLJZCiB04UB1fdN2UVZFgAOhVAhDuA69ZiPNi54nsn897h5jKZhxB4nIDg7MfJjSwaPRJn5LAoTE3vdpfPl+1NGfIWvCDWh6A+F5v+fAzm30/+IvML0jUMiyKIhFxoGYcw1L2fnUzyjsP5DMGT+FqIvQitcwNjxH+sU/RS+dQnDjWxz44C/0nvZZ/CVjSSx8kPpdmyi68QcoaUMhtoE9T95FwdBxpE38Cpg+zL1L2PfaXZRc+hPc3aZAIoC+6H6a92wn+5IrCS96mWA4jcIpX0bNGwi+GLgU9JhGKOYiPT0XxVSsEjOmjhrYxeZ5z1M4cDQ5fcegur3QcoD6BU/iKxtG2uhrMbW0Vrta69YmYxESxPcs5sDbj9Gtu49I3IOv/0SCmxbjql2Bt+9Y9PyzSS8XcQTZoEaILnqU5iWzyb32PgkgiOyh7j/3o9fXUTj1NpTu58ggb2P7azS8/zco6o6qluAvOxf/sMlyj7Wu1qPYGZOCnAIIXb/UP943tObQmzKNR1yqbqIIM6VLREJv58Cyl0n3eMke+RnwF2OICo+dMB+kAEJXD6UDEAS0E3nmMVmMxgjsoWHJM/j7XUBa72kyWttCdPaGkwIIXT0wp6R9yfsn0wWbiDRX0LRrO8XlwzCr9hBaMYeqijpKL70NlzdG9YuPUDR4CNqk20DzENv3AXWv3E/msE+RMfFaqZSj8+6jetcOym69B1znyNoFZmA7hKulOd9s2sSOp39HQd9+ZM/4H8kuXLv4ZZTNc8i9+E4oGMmB2XcTCeym35d/hRLPITz3t1RW7KX3TT9C8ZRCYg8HnvwjuUNG4b/wy6B7MPctYvcrd1N6+S9wF9sAYfF91O89QP7Vt9Kycg71a9+n+4TLcY/+rHSpmC11bP/wfXqPn4KSN4Swko4oT+bSoyT2LWPdW88x/PIv4SkcBGqc2M5l7PvwLXpeeCWuklEYgjFWxG+ITC0HIViZnxCqpuGVX8PuRbjKp5N53s1Ed7xH47sPkFE8kLQLv4vabZydihijZeFD1C+bRcmnf4dZNg5XrILQW/dg7q8k46o7iRWMlmmfamQ7tQv/CbuXYfgHkXvRN3CXDLbXaxtbRgognJIVlXppqyXA8UqLCF5xCpUAQRW5xzHCu99l/+LXKSi/hNzBk8CVJU3VRzMOpABCV0+wZIAgfJUxFCOB3ryTpg+fxz9wCv5eUyz3QvKJJAUQunpgTk37khVVmP+biDbvpvrtWZSOH4eanoe+bRm7PtpBzxlfR9V8VMy8m9zsMMaQ6fhySlA9ARpmP4zbm4Fn4BgikWYyKpZRX1lJ3tTbcPe+Bry5NKx6htDuxRSO/Swef4w9z99Lfv9+pE++WWY51M17Bv+O+aR96jsynbFx7sOEKjdSePYlhCkguHkeRksNpeM/hVI0BmihbtbfyRxejueCG+VcNda8Su2SpymY9C3Usk+BmkB//36CO3aSddVXCNcfoGbRM/g9Ot6ykaiuNOprgnjy+1F87lUY/lLJI6CpKq5EmOZN82j6aDFll3wZLb0bGEEOLH2NprpmBk69Cs2Xh6EIJgVhZTtoHBWWVAkQ9AjxD/9B/dJXSZt4K5kjZ6DXr2H/2/eQVjCA/PO/hpLey7Ks6FWEFj5GaNM75E75KmrfaSixBmJv34W6fz+uGXdidL9A7q+K0kKs4kOa5j6Ap8cFZF3wNZQM4epob549c6x7KQvCqVn6XffWJAuCBAmSIsxAM6x8Rl2LocZ3sX/B8xiNIXqMuw6lqBzT7bJyHu1LmMwODXtTUi6Grhs5m6zKci9YFoQ4ih5Hb9hC08qZpA+ehrd0snUikQaElAWhS4fjVDcu6weIGIEQscZd7HntKTI8wkCQiRaPkTXkHFzlF0NcpW7xk1Rteg1Xj7H0POtCfAWF6MtmEdm+gZaESnZZKZoapHl/BTmjp6P2mITpKaR2yb9o2vk+ZWM/Q3XFDoJbF5Hpd2H2PIvsnn2oX/IavqYdVOWNZcjUzxPfu4KKxbNIT88hb/hE9Aw/wfUL8LrcpA2+mNqde2jcvprcwiwiPUeTU5BD5YrXMeo/Qis8h4zSCWSl+6ld+SJ+I45RNJCCc6YRq95A7erX8QRr0P2ZpPUfT96oK0ik90dV0lE04WIwUeJhApvfwxepxDd8GniLofkA29+fQ0bv0RQNOgtF1SRHiG5TwDn6WR6UpKU/AXXL2b/obYon3owrU4CBGvavmU16Zi+y+0xAcWVJbojKta9Tu/510qK15JWUkzHwQhoa6ohtmg3NITLLLydz7JUo/mx0LYES20bgjT/gG3IF3kFXynRHy4yRTLucAgineml9ct9vxyDYEQi2P1twkLsFGyuKKiqTNaHX7iC8ZC7hjN64hkwlI68Y1WNxlosmnMh4p+CpRe1hkyZ8cqXb9V8uaFolRDAk8YoiTKpV62nc+CpZgy/C002Q3KQAQtcPxKl9g4AG4hJ0xooRxzTj6KEgxMIoegxFS0P15kB6hkUEGKkk1ngAM7cHmi8TjQhay37M5jCmLwfVJ5j9whimKoNc454cIrjxBetQ9BBmWgFmIoCqN6CoOqarGFVzY4RqweUljhu3LxszFiFevx+v3yMpkk2/FyNYg+JzobiKSSRUEkYMjxYjYmbj8SiYkQoUJWhXQ8y2KJ7DNXI/ibrS8aWJfUeFSAM0VqO701Ays3F7fcQNE0PNQNWEg8FEjUdQGneAP4GSVgZqJrRUE67ahbtkIC5/ni01i9Q4+ZAjYxgEQ4zZjGI2ogdDaOllVqaIiE2INBI3s9C8GdJaIVyzZqwaw2hCScRREy5UT44IG4ZEENNMQ9XSUb1pkpLWFERTzeuoXzOXwrOuRckaYZeYFmQl7fPJOxH0dWqnoDX/TMdRfRp0JtWFE5RA0pyzAt1sQ7Qs3Gid/hVBd6pYiie+ay17N39AWkEuBcMuw0gvlX47wfQlWBgPYl6LLlX+xLSImVNXF0pABioKCjtR6jlE4+YF6HUryS2/FDVrrMw8SVkQulD+p7jpVveg3Q8nIc7KftQtKmBpPrdM6JYajGEYcXRTRXGpElxKFakLy6DHukWyoom/hW1K2CZMvLoAogoJWY9ARzNiCE4iQ5ZJtvYAYcuyCihZfkg9HsWnyfQZq6ySKSiURf0BDzExNw0Dr1C4grFQKs44XlWY9y3KY8OIym8wNR8xXcWtCFplQaIsGjeIx3XQFDTJvxzHVDUMSQqmoeoJXILXRdLApls8EdEWSw4u8d+WTCQXpQzOPmjhlyBE1H4gLPdAkRIhyZsl25hCQo+hm15Ul0vqc7FfqmItir4mdLkFyjoTsliFqIMhYrcs2VO5EbxBKrasIC0rm+x+F4Kru83q5LDUOpYDS3ZnwpUCCGfCKHW2j60pBgcLtMjtw6rs3IoWLOpRE2IiZekd6ra+izu/P92GX4LiL0BXfbIEtDWFFUyxgO1/H8xiOPMrlXVWrB/7fXKDk1scSqKJ6jWvocZ2U1B+OfjLkTt4ysXwsQ/Lx/XC9idfR1Fba9lWeq1pR5YLUZoRRCEiXdRIsBWRVMgijbnV72jpM8G9JH4q/OYyW0Z4H+09wwES9vFAPOlYM+zdQBZZ0hRpT7T2kdZKRxoRRYAT8MjMCIWYYtVRSGsN4Bf9DNlp2F5MUf9AdtcpSKVgJMSBxNqjFFHvXFjUVA1ddckyDpJLQBozxbMmRjyGqblRpBlfkL9Z9lNDAgSn/qOAB6oEA7KoVfJlgybxXbLolCraFSRzFiGyOENbsVxCdqI9q+JlJBzCpbnZv3kZgdVzUBMN+AvK6HH2JbjzB8jYLllzoVU+zkimAMLHtZZS70mWQGs+vAMQrFVp7SmCctT6W/6/tBAYEK+lqXI5gS3z8fgyKOg/HqW4HEUTJCOigpvwoUkWdIv0VaZdiQbODKKPM3KCCMY4y7yHoldyYMVMXEqYIgEQPP1TAOGMHNTj77Tj9uu4BUcJiroNFm+GdQklJNatqJhw0NQulZwEBMLtaCk763YLVFiw9PDg37IZWJBD3t168rCUX0yQr1mhiWAkMFVxSldRZUl58ZAdVyH7KZSn8y7n99YpX/ZZ/C1jq0VwtazvKHsmn7DXiLWdGdLy6Zx7XIqM3JCWDAEGrJYtC4gi33coBHPwi9VHYSFw4M/BKEfrSQuMiW9PxGPSKBOo2krLriUYsQgFvUfjKxpm8ThoAvQI602bEbDHJmVBOP4VkXry+CRwGIDgkOa0sSTYyl4GwplBWnavoGbLu2RoCdILeqIVDUXLLEL1ZVqVyZQ0lFbft50WKRqUvrWDwOP4Op56KlkCTkaJKJ9LYhu7lz5Lmq+IwiGXg6ubtfGkLAipSdMqAcsdZZWHdpS+tLnLTIRW9ZTkNpQAQT7TFiDI07IN/tsozdZ3CXV/OICgoCuiqLJ4szj9CybIMGY4jOnJRtW8sjaDx+uUKu/AVuIoZvlyE0OXjgFZ4kioZXlIsbCILDwlrASWQc1S3aYghZOgRP5Hq4XkWACCfKOwHigyAsSBWzZ8stx/4nAl/iVBlhGTsSGmeJ/LZ5Xbli4Y6axN4rK3Oy7B2ycFILSaTzqeTqlV/DFLQNZ/dQq6t9r1LLxvH/5bDw32aUPqmkQLestuYhVraanYTktLgrSMTHLzc4n7/OiaFy29BFdGD9yZRSiKz3pP6yssk2Kbid96OviYZfCxvq6DTe6Q9zu+x052zPErm3HiTQupWPcyucXjyew1FUSpWukDtYvYtyZ6t19/x/jOTnYtddvHKYGk9XtEM4L4pfCpC4CQZEEQykmAeotu0ypa5JynHYBwcAG3WsKt2ixC4QqI2laRWQraMtdbi98u7SwVnviNS/ZAWCpUM4DZtIcDG1dLAqO8HkOJJQy8gthIvsQGNW2UZXLlOFVWY7Quae+0EgIcO6ggETMjKEqMQMVefOlpNNc1ktO9J5oIyhQwJckSYIVZd2xBaAPQ5XnHCSq0rCrWEcghMBOSsde9PHWJfgk5i7tEoII9WNLlYd9nW2icw9onBCBYTH2Ox9QRcuuU6ggkpXDE8e0wnZWb42R0lIyDfx0Tn73IbIhtLVRxCbucNAsGSQS2ExNlX+v2SDrVcCRAxIwR8+ShZA6g24ByvFmlKFoBGB5JVIJqF5aRi8JewobrYPtH++ozA1C3/YrWgIwOBsf5kdwr7BJ0zr+PJgv5e0GQE6Rp5xya9y2lZNA1uAvOFt7cJIBgb56SCSYFEDol1jPmJlv5yog7G/A77IodfYMZhngYNLckShKKulWpyRg58d9xKzDPUK3Dbau1wbpTl6YrQ+JPkQoo3IvCIiACCi3lKPzymp3l5CxYHVHoSaQWSouFLk7WVpqhSoiWPatZMPtZSkacz4hJVxCOQmaaT9K/ixO3HQloB0DasRT2G+Q+4uBg+5ulPrZfLWmLzVoiB7YSqKoht29/qrdsJR4NUzpiDC5RilkTtOQi6FL0T7WlkrxW2q0bGSDsuGFF/JUFECTcltYVx8XQbsnJw5Bj2UsaICc+xAYqDtT4LwcINmqSPihdBmvs2L6NaDRiJcOJQBVhommlsLIELNVGZxXdGbOQu76jMvtA/Gn3qo5kKRaPyBcWKT1tHpCr6lAtLCa93B7sqF3rBBLFFGk8wmymxzDNBIoZwQw1Em6qwe+Lk57XjbSiAYQClsENt4uE6iEhIo5R0UwPmuFFFfwLDiix+9++F3IrlEFHXTE5ugZ5yJ7KzaTdxyVvZKaI7DYRcVaZufmUlpXh8fmPzkglm4xIkpaajXMI1uyix9ibcaeLAjvCfJlsQWhbj+bgFElZELp+ZXblG8TMErkGdrS8Pc9MRZeKyorAV6WLT9APJ2q3oAZrUHsMJ+7KJqFYylBBUCmbsp6BSgDT8BOJgd8nfOMHww/FTI6aLulTl04JU0fHJeLz8RsBqyaI6iaGB1URKYd2mXEzgZ5owe32yIyJ4OblZGTnQFFvDLcPM9pAzbYNZBT3xZPfXZYq8hmg6zFcLhcJWW1MQcAO6VITQEd8szh4mAqmahAT1g5RxVF8s4itVlQSikJaIkJ823yqd20hb/RlkNMNV0stwY3z8NJIWvlFxLx9cbs8xDW39IZKmRyM2Lb19aGcL60n/SQcYK0oJ+7icIC8XfxGm4OaM186R23flbOrs22fQBaDZT0wElHqa6qZ+8breDxecnNz0GQUaCt+tZEsaCLgpLM9S93XKgFhrnPZIKGNWJxAnXaySqg2QDhEhh0oSwk8rMku3uPcIZR1koETjxInTY3iU0O49EZi0QZC0UZisSiejN7gKiSqphHS3OiqG81w4dU9uAzHqGl1RgKXdpd4jy5BTVcBhK4ACeI04djOOrYgiKhoIdDmlgj1jU1ccvmVFHXvbn19R5/qGALkxt2CEdpGzZpX0NDIG3UDqq/soBun1cVgpa0deqUAwpm8hVjn2KgNEGzmTCMsWRWlz1tLl3UOEMHELbsIfTgLrxlHO/caDG83K11ZFXwJmuXHF36iOLkFAAAgAElEQVRxfT+m4SWh5EilaR2NWyedVLoiCFlNWKDC1Lwyc8BlttinaI90OWhCiYu5bdqeeFOkJKpE926nesFT9DhrDMrA8zH9PVDMKGa4DkPLJuAWtQ00UQECJRaW89aQFgvBFmnFS8j8agEQEgmIhyRgMIR1UnWjqlnS8RHQVbyCLKpuE9ULniO7fCzufhcRMNLIMIN4GlfT+N4zZI78FK4+kzHVNKIijVKCn/bHJAfiH7ogrZ0r2cXgrNuOFm+rneHo064rtqOjv/W47jgxgCDMTkaCusr9vDtvHsNHDKesrKeUYkIMcJIchUzE2J9BsjkugXbFQ471oL3sdBGt24FAj1fOHZ3sJcwTJxCHuEfRMXQdvWUfTfuXkYhVk1M4HH/eEOKuTGLuTBJ2mqRbVpF0rE2WZGSfOwDZIlLZiY4+nAzbxFN1WtBdoSidgkq2pu8A2MjNRaRXu91UVteyfMUqJk6dRqEok+tcHR1CxM+k6TVEvH45VStfJ7uwD5mDLgdvib2p25HWTvxPhwFPXfHdnRZ66sYTkICcAg6TpjjzSlddnEjlBqJNOwkGgqSJs3hGN7J7j6Rh2QuwaT7pWZmE+06D/AG44kGU+m24ug/DUzKYcHMTatVK4oZKZv+zIa3Q4keQpm+xMQvLYTOJpgPogQg1u3bjTfeS0b0UX14PEq4ctESUWM0Wmqt3Q1wnw9Rw5ebiKRmAGdNpXDgT1+55+PsOoql0IrlDzpN1DxI1W9HIxOg9gXCLoCPehB6oIrdbKbGWFtSmfWjZhXh7jICMUumiUML70Zu2Ety9B/QoejxCRkkpRm4xurcb/vQ8oiuepGnXbgovvRUlYxCBmIc0LYZb30/TO0+h6y5yxl+JmtWHiAi0FpUgO7CjWvK2/t+5rNVzmOPsiZxjzjAFeGIAwY6ab6g8wPvvzGfEiOF069YNVVWJx0Wp0oOrRAKElAXhuLYNaYLvoFaCULbiT/J8FVYAj2kD8eN6W8cPCYUn0L4uTimqH7cSwwjuo6l6A4HmEAVlA9BdmaiZPW2/nyBcEhkSxkG3kt3f9n0W08grCEzapEwd2o9ki0bnP62rFKUDEjoy7YiDmYKmCUuaxoGqGlauWcP4yRdSUFR8eIAg0Zjz6zCR3W+wf927FA+ZKClq0XJl0JX098pEcBtxpwBC56fDGXCnNbOEwhbAXJymwYxWUfHhS+QU+NAyy4juXkN1U4z+U28itvsDmuc9QW7P3kQHXIGrpD/UbaT5zcfJmvB5PMOmYEQaCL3/Typqqhlww7fB00NmJskUALmDRDFrF1Oz5DU8PUYSMxRa9m8k3lzNwItuxSwYhR6oYOtrf6S49zlk9R1B44r30MOVFE/8NKTlE1rwONGNc8kafRGhfpeTVtQHY+NbBFa8SkavUXjOv4GmXeupWvk0rngjOX3PIkw27rrtxELNdL/4JtTukzEMN+aW12le/gL+QZNATaNx1Vv4w1sxBk9GG3gpWaW9CD/3XbRe5+A5+yZpwQzFPXg8wtoaILjuDWo+fIuy6dfhKhlP1J1tlYpu73m158MxAYQzYA6drC6eHIBQVcEH78xn+PBySkpKJNGEtCAkXY4F4VS7GGSIiUx/EbESbc3fJ0uoye1I87lY6Kog6XBycTvyeR3+7Y6lINk875xQrVxh25colJLwPeoCgx//JZSbIB1JblvkD4vAJ0MECygiv1mYGBMkIk001K8mFKwkJ6cnGUUjiavZMgdbkVHKSTrPzm9uH6AjSFdchlWWWlWtaOv2MpQGPOFvdaKWjgIm2kDT5ADN4xdL2z5JSmRxJdPIJL1VFQBByEDhQGUNK9euYdykKRQWHwUgSJAgrC4thNb+m8bqXRSMuQJP5iAg3XInCEdxCiCcpJE8/Zpxyn1LY7tg60tEidd+xO65j1E2sj/eAVPRgw3s3byX3uddQaJxLZVP30W3YSPRzv0KeLMxKxcSm3Mf6tm3oo6+CDVWS/S9v7F/50f0+/ydkDZKKl4r51/ExDYQXPggsX1ryJr2FYy0DBLb3qNh4etkDbmIzPO/RLw5yKaZ9zBoyo14+wwjtOQVguteIe/Cm3D1PZuWD54ivvYtsi/4HJTfgqn6UauWU/nCXWT2HET61C+BXk/NvPsJ7N1B2ae+ibv3FKKb3uLA4pfocd5luEd+HtN0E33/PlpWzSLvpntRvL2IrZ5NdO2/ybz0e1A2TZZ3jjx3O97zb0TpfyUoGcQUP4pbk+wtsZ0LqH/zLxSOHIdrzOeJ+/KlS1DWQU06uDo7jeNocGaDdaw4w477XTCVTwJAMGhoBQiOBUEjHhcBNm2vDl2lXfBRh21S5M2KuAmhjITClgDBngTHOBc6Y+62eAcsX7U4TVrBQiJwINlEfXQBSGoR21IgU5WEr9D5Y0I8FpPKSKgsl3iPJAg5vksCOVVDdWmS0UwAPcu7JshORP6yT6YWxYmhqxpul5tEdBv7t8/HFw9T2O88dG8ZuHIOAYhW7JOOW/Q1qY9uj0dWLZTyUVX5Oyk3uWot+YlLfKOUn81sJk7SekLw1B/J5tdVFgSHga5jgCCAmiZkaEJFZTWr1qxjwuQLKSwuOSiXDl2ZYm4kUOI1NC37J6bmIXvk1SjubnYNBuF+aLfLtYmQbrvFHd8sSD11qiXgsBlIl3wigt64k/0fPEmiaQfd+4/F03skiewBePxFJGpXs/PFB+kzbBSucbeBNwNz/38Iz7oL9eyv4B4zHVWvJfr+Y1RvWUXPz/0Qss+TAMHJSqBlG/Vv3k0mIep7TiVsqGQYdZg1O1D9xeSfd6NU3JE9y3DnFBEKxwitexfvRy+RddntaH0mEV4zm9CyV8mbdCPxwTdieHLwhXew5S8/orBvP3IvEuWfAxx47V4StVWUXfcLyDkLc9dCKt95FF+vweRO+T6RSAvm0j8TWf0KuZ+9F6VwNJEt71D3zqOUXPpDtLIJULOO0EvfxTftayh9r7KyFES9BpcIxgTjwHIir96Pr9dA1InfRvfly3XjkEw645vsWEi2ULbdNZy7umovOdWz7fDvPzGAYOd8HnQxjLBdDB0DhI4C1D420Ui9Iug3rVOtPMNLMgwLKHTJJeN/LOIOPaGjGwaaW8Tr2oEvR/RlOUEvlk3s4K0Hc5kdsBGLizQkcbBUcLlFDLKlXI+sOK0vll9ugw7539I0LmSiogvqUZvP3GrLg2KKwioiJSouCwoJgKBqCWLVS6n56BX8xX1I7zYeJa2fbOsgNaxwASoWl7yqEg1H8Hq9ltvCMMnIyZRyicUiFkCwQZTz4XoigcftkQAoIcCE6Kvmku0dzJXuaBTtfOaTPcAyfclhVju0cTEWErSZJhUV1axes5YLLpx6dIAg11QUI7CT6kXP4i/qR/bwq0DJtIMRLdPzQR4EOx7h0ByXDrNWTrYYUu11jQQsy6Mdt5WIQqKGYNVKqhc+T3rNDtKKh+EafSX+PqNJRPey45l76TP8LNxnf02Ou7H/TQKzfo92ztfIGHsZ6I1E3nuUps1rKb75fyFnHKh+DLGmxYquWUzd64+SX9QNLrgV05svwa2WCEMshOnNRdG8tOx5n8YNC3HndcPd3ED6qifwXPVDGHoNoWXPEFnyIrkXXAtDrsf05KAGtvDRYz+jaPAg8qbcIl0Z+195AOpr6X7tj1CyRmHuW83eN/+Ar/cACi/+AVFcuLe9Qv1bj5E15mq8oy4mvHMDTavnUXTp7ShZfTH2LiP66o/wTrkDo9+nZZiG22XVlRAHJL3yI8Kz/kDaoGEo530bfMI9Zy+hpO0+Gd47MMDhWbBuaxub4GQ3fFLCEE4aQHhv/jxGjhxpAQRNIx471IIg/ehdpIuPtkwdEBCJRtm8ZQs7tu8gKzuLSZMmWcrGZs46xLwtzeLiZG7lFVsnW+sUL0FG0kyRJ3tR9EMU9mgFHdY9ixYtJhAIcNGnptlc3/b0a3f6tdpQ0W1FKk7wlrXDZg2zTf+Ochdt7tmzh7q6erKyMulZVkZufn4b5Xwk2YheCOUr3iH+HLwUVq1eza6dO7nyqiutgiaS192LqgoLgHCcGHhcGoqo7x7ZTd2e9whXb6Ok/yS0vLPQRVSyUPu2LCQwknXTFaKRCAsXLSIajZKRkUFlTTXTL51OVmaG7E/7Kxhskd9ZU10lgUQ0FmPokCH0KC09CsDrKtTvbC32ib5dh50YBF03pAVhzZp1XDBlGkVHtCAIxS/WTZCGnSsIbF5EyeAJeHpOBEFMJQGnkE0KIBxtvZ/pv29VVvIfYYx4BfFwA2ZzI/Gty2nZtBh/Xl+yJt+AnhFh77/vpmzYaFzjvyczAvSq+TTN/AXq2JvJOfsKWf8g/M5jNG/dSvEt/wtZI2XKrMWXEEepWUrl6w+R7vOTOeV7mJl9LKqkRD2JQDWu7HwS9QcIv/8E9Cgnc8QFsH8LsTf+gHv6d1CGXE9g1bPEPvgneZOvQRl4HbgyoXktWx//OXkDR5I/9YsyfbfqlUegvpKia36Mkl6OUbmWyrfvxdu7PzkX/Q9RLR9f3VKibz9ATPHi6z2aiJ6Bv6A3Wt8JMrhSqV1L8IUf4594C9qAyzE9XjQRgCWZDSPE9q6l5Y2/kDVyAoy9RTI5yqBhkRlqT472qv8gJVMyDGgPBY4WSn30mXeKVODRO9bBHScGEOQpypQuhvfnzWPEiBF06356AgR5KgXWrV/PbV//Jvn5eUy+YCJ33nmnVL6aME8pIvsijsvtJiGCLIV1T7eyMfx+vzzZOopbAgl5QhanXcM+LYLH7ZJAYOvWrZIPov+A/oTDYe6//3527drFPx5/XJ66LZIQkS1kUXaKe53L7XYTCoXw+XzyWRnspirSCiFyh6UVRPQtkeCxxx5jzpw51Dc0yyIlM2bM4Oe/+Lk0vdfW1rFt2zbGT5iA22UBHCutyCUrliXiUan4o5Gw9X7beiC+LRaL8bOf/4oXnp/JqlUfSiWuaT4Mw4XL7ZWcF6IfaX6PXJBxJUhLeDe1y2dSkN+TgsHTiScywe2nJRJhw4YNjBo5Svbf7fWyYsVyvvWt27n4UxcxYEB/fvf7u/n+9+7ghhs+2wpUHDAmRD1z1izuvfdeRo4YTu9evXjltTe54Pzz+MmPf0RWlkicOtx1KgGCAHqmBAirV69l0pSLKCo5kovBBghGNQfWvk2wrp6+Yy/Fld3P4nSXAMGm001Oc+ywLkZXffdx7TOph45BAsl+cbkrGC1EWvZQv30b3QeNw4wGiC99nIZdu8ic+lW8BV4qnv0t3fr0QptwB2g56I0rqJn5K7KGnkfauZdJEqXYvCcI7DlA/hd/CRljJfufEarDCFThcoeof/9RzNqd5J1zM0qv8aDpJKo201hbQ8Hg0dQumYt/0+ukX/MDKBhKdNVrJBY/hW/6N9CGXknz2tcJL3icoolXoQz7rBXjEFjN9n//jtx+o8mb9mUwQlS/+ghqXSX51/4vincwZtUqauY/iqdXf7KnfgdDy8PYPhdjyV9xj52AktcX0spQvD2JKQW43D7U0G7qnv0JaUPPwz/qavDk2hUW46A3ENr2PtXvzKH0wmtgwKXornQZlyVDeGzb2vEAhKPnWh15oB1wcKaAhBMECJaIG0UMwnw7SFEABPXwLoZTYUGQrgXdINjSwj+f+hcPPPxnfnDn7UybNo2S4hKisSjp6RlSIQs3QHNTI36fXwKHQDAoTdvidB2JRhDKW9wnAIMAAgIwCCXu96XhTxMFjmDP7t38v1//mpKSYu78/p1k52SzbNkywqEwF06ZYp+AIwSDwdZo97y8PPlvEbvR0NCI35+Gx+Oirq5OKlXx+3gibuc0i9O+wkcfbeYLX/gCpaXdufVLt7Ji5Sreemsef3rsEfr06sWLL7zACy/N5JFHHqJ7STfpMmhubiY7J5f0jAxMQ+fA3n1kZKSTlpaOy+Mj2NRIJCryreEnP/sls2fNYeOG1WRn58haDA2NAcnKJmQivleEPOixGDUtdXizo0S2/ofo/t30HTgeT/7Z1EdVPly5nPvuv5/f/Oa39OvXT37P//3s/1i3fiOPPPQgBYUFfPOb36ChoYE//elRujtcAdJtohEKtfDzn/+SBQsW8MAD90sryb+e+hfPPf8izz/7bwYMGHAKAYK9zbRb8Y6rJiEAQkWVtCB0CiCgYwQ3U7FmNmFfL3oP/xQut9j8rFx4Kz/e4lc4yKPfSj6bJIcUQDgGnXxa3doGIMjpFZEAYct78+g3aDSe7Hyi6+fQUFlJ0ZTbcLtNql7/Iz4aiA28hqwew/G4m6h6+8+oiTDp/ccQbQmReWANwaYInvE3kTHkKhS3n/plbxDctoIe50/DDK2ncdHzuPDjKSmnRVWIRQPkDhuHv/dIAmuX0LDgCdSB55Ne2BO9YiPariUogyej9L8Ajxqies5DlAw9h1jfi/HldUOJ72HXzEdJK+5P/rQv4iJM7Rt/QW2uJuuS7+LJGk7D7vcILn4aV7de5E37Or6sHoTffQTvltmEykYQExTv/gIMssnsVo5W0FcQKVA//08yFqLbtM+jpfcWlE7SPYdRQXDpc9Tt2kX36V/FyC1HV73SVmLxKdrLpz0Zoj0LnJXTtiau9csUQOj0UnHSuwyaqitZNG8+w8qHSSIYRRM+97Y8CBII27SVnX7FSbxRnLZfffU1HnzoYXbt3cfkiedx/WeukwF5y5av4LOfuZ5evXqzZ+9enn/uWa677jr8aWk8++xzZGdlEmgJsXbtWvr16cP111/HoMGD2bd3H6+/8Tpr166hoKCIqVOnMHTIUO666/c899Js8nOyuGzGDH76k5/w3AvPs23rVn75y1/S2NjI3Llzef+DhfILCwoKuXT6xdJFIwDCgw89xMCBg6itq2fThnVkZmby2RtuYOjQcmLRsIxjEFP8g/c/4Jvf/Cbnnz+RP97zB2l1ECfV/gP6sW7tWu66+x72VVRz1RWXctWVV0hw89LsOXz9q1+hV6+eNDY1c89dd/PlW29laPkwVq5YyaxZs6moOEDPnj1ZsWoNSxYvZu2qleQXFLB06Qpef3Ou9KkP6D+Qyy+/TCr83bv28ejfH2T0+F7s27SKcl+QC4eXkzH6et5evIkn//UsCxYtYuqUC7nq6isZM2YsV155JV+/7WvceuuXpIXk3fff5au3fYP777uHadOmSiuLy+2S4yPkdef3f0BzoIlHH32E7KxsPnjvfW79yld44fnnKS8v78BX6EyerlKU7YMT28ZDC4uPiOXotAXBcR8k4rRUL2fn2pnkDJpBcc/xuFXhXrDyUqz8F+GmSa6z09F5pKu++yQuylRTHUqg1ajtZAAJttrmSjYtnUue3yBTBFsnImT1Ho6r17mooSjBDTOJ16wmUjCe/CHj8HjjhPeuo2LdSjKyS8ksLoNoBU0NYTJ6n0ta9xGobg+BdW8T3reewrHTUfKyie1aRmD7EsyQTszjJ7ffQPw9R4OviEQkwL4PZ6EHqyjuPQRfYXeiW5fRpGeTO2giviw3DQv+gcvjweg1nozC7jTvXU9830aCugdf73PJSncT3vQmaqyZRPEkCoZewo71b5LZuA4jMw/PwKkUlA4nsfJZXFtnEVIUya0SNzwoYR1PRiEZ51yJ1n0oLbtWsPX9uQyccDFpvcdbNOSCdCm+h4a3/4Q3vwz/2dcR85RiKm4JDqydM4kQ7gicZR3FIKQAQmcXbWvlQAEQqlgyb55UMvndRbS1tGW3Y4tTJLtXa23yDqnkOvvyY78vHo/x1tvzeOSRR9i+YzvTL5nOtdd8WvrBn3txJk89/neGDB3CO/MX8P3/+R8eeuB+CguLuOnmW+T3DBkyhEQ8zooVK/nm12/j1ltv5d577+Oll17i3HHnUFfXIN0A995zDw8/8ogECGXdiplx6aV8+9vf4jvfv5NVK1ewcOEHPPP0M/zhj/fRr29f+vbpw9oNG4iEwzz4wL307duPy2dchuZy4fWl0b2kiPcXLuTKyy/jt3f/AbdQPG7LXbB39x5uv/12du/dz9VXXsGo0aM4b8J4qUAXvPsuP/3pz6ioqZXg45abbmT5ihX87Fe/481XZzN61CjWr1/HVVd9mn/87a+MPWssn/v8F9i1YyeXXXYpjY1NLFmymH3VdWxZv4aWYAtf+tKX8PrTGTNmDHPf+g8D+/fn4YcfZvPm7Xzh1s/RvSyLXmX9GVXo5qKz+pLWtzv7qt3c/+AzLNmwkeuuuY7JkyZLOf7617+SbpdJF1wgA/mEy+LiS6YzbeoUaXVJS/dLt4ew0Ahg+aUv3SqR/33330d+Xp4EQNdf/1keeOA+GUfi9fkx9MRhAjO7wqDX3kApIXBraVcRmCqAjwxSrKxi9ap1nC9iEISLIcmtKWvWtDYVwUw0ULf1A6qrN9Bj5DVk5g6zStTan+AkyLYFCBZ0aHulAMKx7xKnzxNyNFsBggmJENAEehDCEfDngDuLhJop2UpJVEH0APhKwJ0JIrhQuBVjUYirkJ4N4Vpwp4FLuOTcdjnEeog2g7/YYmWMB0BthIhgOhTshqKwkh/DlSbdky5XBCJV4MsCU/xOnNg94MkHPQThvWCIgguFkLApYEWNCFm/PBM8XohXS+InKAJPERjVkGgEj0+SQhmRII0LZ5NT7EEt6m4xRoo1EA7StH0jnl5j8Q++ECMUYO/i1/BgUHTOxWieIkw1RGjHUiIV28kdPBalaAgJUeBMcVkFpNqxHB8p2PDgrnFwrVu1LI//+uS4GOSuZhWuaKqqYum8+QwpH0puaTd0EbkvXOztqnRZxT4skNCR+eb4xX6kJx0caNLU3Mzvf38Xb859iwfvv4+zzj6LB+5/gGdnzuTfjz8uAcK8/8zjW3d8h7//9TFycnK48fO30KtHKb/5zW+IRaN857vfo1u3Yh566CGuu+56GZV+7x/uorGpidWrVnHV1VezceNGfvDDHzHu3HP4v5/+nwQOt3/ne6xeuYK5c9/kttu+xs69+7jnd7+VcRtvzJ3LT3/xS2753I18947bufTSGaiayj/+8bhMYfzSl79CUWE+f/3rX+lW0s1KmZRBi4Z0Xfz730+zZs0aIvE4I8vL+cXPf05JaSk3fuYzfLRtB/968nEGDx7En//8Z/7vV7/h7ddeZfToUWz6aBOXXXYZTz7xhIy7uPmWLzL1wsn87ve/IxgI8JXbvs7adevYsG4tc2bP5te//R1f/tKt0lLy4MOP8O477/DGG29IN8yNN93Ipy6axs9+9jPWLf2QQN1HDB4eZfSIy3jwgVd58vlZvDj7ZYpLynjsT4/x4ovPc99990qwIawmYpRuvvlmcnNzueuuu2VcgZg+oUiYDz9cyv/+9Cdcefnl3HHH7aSlp7N/716u/+wNEmDdcfvtjBg5CsGn8LHlLstp1RYkyHKvdu13YT1wCQuCYVAp0hxXr+f8KVMpFABBhBHY+lu63BwiO0Gv3LKFPesWoGVm0X3wp9A8pRbvvnRGW6Bbrh8Jwm3cIHa+FEDomu3jdGhVlmEVMVFOpUDnHCy4SkQtBrsyoghwlfeJ6SBpPK0iJw7XgVNl0Jl8MkPJadO6T7gdRSyWvOQcF7FPUrvLH2kumUR48B1y3llGezn/JYeHoE52gmmtihDWpBeAI5mhxS6FjAA/4v3CNNJEYuNbHFixgO7njMdVMhhU4Q41iYYDHNi2g/y+I8kqGy7dxnrTburXfIAnJ5ecAWMJ1h6gcetqioaNw1tQhi4AjuBjEPT/SQHTxzusHa20Y2nrkwMQZH66BRAClVUsmzefweVDyerRjYRh4JZorW1UvFXl68SjQI9lQJyJLiZHcyDAPX/4A2+++SZ/+tOfGDVqFHfddRfPzZzFvx5/nMFDBjF/3ny+eccdPPH3v5GVlc0Nn7+ZaZP+P3vfAR5HdX1/ZrapS5ZsS7Jky70XwL3QbCD8EwjFGAgJhEACoYT2C6GGZggtoUOAUAMEEkIL3WDTTHcHbNxlWbK6ZHVpy8z/u/fN251draRdSe5v8inI2ilvzpude9695957GO5/4AGUlZXhoov/gLraGtz/4IM441e/wpwZM9nQcQYApe+1tmLd2rW4/IrLMWvmLDaYFN64/Ir/Yw/Cq6++il+deSaL/p568kkMyM9nYnHyqafhsDlz8Ne77sTPjz+eQxiPPfoompqa8Otf/xqtra0scJSqfZlxQO68nbW12FZYiH/960W8+NKLOP2003HHHbfj+OOPR0VFBZ5/4QX0zcrCs88+i+tvWYjF777D4Yy169bhqKOOxssv/weVFRX4w6WX4baFt+A3vzkHzS3N+MMll+LNt9/GmhXLcf311+N/77yLIQWDkODx8DxSquIdt/+FycUvz/o1bvrzn3HRJX/A8s+/wAN/vRq/PXciDjp4Lp5+9AP8/fn/4e33P0D2gAImTcu++Rr3338/Y97a2sbnPO+881BaWop//vOfTBToy0hixt+ddz4LQR9/7FFMnjyFsSa9wu23344X6H4XnIpbFi5EclLSrktZjfLQRZJcO0HglFOHzh6EsopKrCQPgkxztMul6S5pBUgdnQJ18Jd9jOKtK5A+bAoy8mcBWh+uxij6VIhWdkGCIJt4KYIQ9yth3zrAMthy6Rpc2gbdSpZBtzUSku2KO6nzEkxBjiHNW2ZuxYab7PIr63VY8TCLcNhKpwU9biJmRh1Ma2EWfoaqr9+By1sHR1Y/aI5kBEwXmtxpcAw/CmkDJ0J3eniR6TJaYNQXonrVZ0gfMQGVxeXoN3gYXOk50N0por9DsMWz1VU1tpuIupciCDGDF04Qli1eglHjxyE1PwcB04DLEMV8QhtN554hCCKFUUdDYwMr4UmL8MjDD2Pq1Cm459578fhTT+O+u+/i1SwZ4aeefgZPPP4Y0tLT2fAdPfdI3HnHnSxmPP/3v0fpjlI8+OADOPucczBy+Ag88cQ/WEy4aq1krUMAACAASURBVNVqTJ8+jbUJF154AaZOnYq77robTc1NuPrqq7Hs22/x8ssv8znafD488dhjGDZiBK/EL73sck4nvPbaa3H8ccdh1KjRePihB9ng/fKXv0RFZSWeeeYZFuhJev/dd2s4xHHy/PkYO3YsZyz88syzMHjgQPznP//Gqaeehs2FW/Hi8y9g2LCheP75F/B/116Lpx/9Ow4/4gi8/tpr+NM11+Df/3qR4/yXXH4ZLjz/fFz8hz+gtqYGl152GZZ98y2+XbYMDz30IF586SVcfNFFmDlzJo+HwiIzZsxARUUVFpx+Gm6/9Vb8+uxfY/lXn+OCc8/EJRfNwbw5U/HqG9/gkX9+itffIpHVSNx9150soLz/vns5tNHa0gaX24UzzjiDNQckVMxIT+coVVVVFV59/TU8+/QzmH/KKbjw97+HO8HDaaq/+91vMXBQAYd7Dj/8sG4Xh4r5kY/YsT1BMLm0NJfItROE8kqsXBWFINBiylrEmQEDWqAcdRteQV1NKXImnQBX+kir2p3TKlYluvhxHVDL88BrPOp2pzwI3Z1GddzeggAXS2uFGahDW/H3aKspgh5og+ZM4jTFpLwRMNKGwHQmWl0VqfCRBr2tDvDVAw6qq+KEnpAMOpXuosLKspusLEvekxqz7asixAvdAepBKIMgCOP3SoJA7iWK3TY1NuK+Bx7Ay/99BY898ggOOeRgds8vvP0vOOLQQzFp4iS88b83UFxaikceeICFeb/89dnsQSBPQ1V1NS67/HLUVFXhhRdewPU33Mi1Ai664PfYsH4DVq1ZjccffYyJxG/OPRfJCQn401VXYdLEibju+uvx9VdfY+nSz7Bw4UL899VXcf5552PGjOl48V//wmdffon7/vY3HHzwwTj11FORlz8Q/3zmaY6pk+u9qGQHnn3qSRQUFARXyZ988gkuvPAiTJs+DT877jgUFW7D3x97FAtvvgXz55+MK6+8Em+9/Tau/OMfcfzxP8eXX36JS/7vChx56KGYM2cO3nv3XXy9bDmeeOxRjBo1CgtO/wX69+uLiy+8COXlZbjrr39DU1MjExvyUJx97rmYNWMGTl2wAIsXL8H6Detx3733coz9F2eeiXvvvhsL5p+M71Yvw+9+cyYOm5mLM0+Zjo2bq/Dn2xfh95dcg+NOPAEbN67F1X+6EnfdfTfmzpvLBIHSS4859lgWL15y8cWcKUIhFG4JGwjgrF+fjeTkJNx9551ITUtjDcJpp52ORx97FPOOPgYmZXjIktPxfmu7uX90giDWGO0JwveYc6RVSdHmQaC9RbSuDb66H7BjzctITO+P/uMWAK4M7n4n4p5UAka4ZKMRBBF4sG9Kg9DNaVWH7SEEOPWbWleb1NLaB92gNGyf5UFLgM+ZIArCcRdbCmkQQXBA99O/DC4Pz2ESJsvUB4W8czYxMX8lFEGIZ3p7mOZIOfwGGkrLsWzxYuFBGEgaBAoxUHHevcODIAlCS3Mznn7mGXz15Ve48cYbMGz4cKz/cT3uuedvWPfjj+jfP5sbTm3YsAHXXH0Nq+hvuuUWTJs8mbMFKC3xjjvvBJ3nr3/9K5avWIGHH3oI27cXM5k45uijce5vf8uVE//2t7+xcc7J7s+u9KeeeoprIzz55JPsRifPxbp161BbU8tGf+7cI/lYyv4gw04u9htvuok1CFdddTVaWprZjZ6VlcXzS272+ro6PPHEk1i8ZDEqqqqQkpyMKZOn4Jabb4Lb7WZ9AqVbknv+9NN/gSOPPAJ3//Wv+O6779gA/+SYY/DVV1/xvc2cOYu9G+SyRyDABX3oPjZs2Yz//vvfLAx85JFH8OZbb8Pv83Lmxc+O+xl7NzZu2MihlIv/cDGmT5uG4qIi3Hj9HzFpfD8sOHoAGuq9ePj59dha3IaTT1mAkxccj5/+9P/hT3+6ijNCqOjRli1bcPovzsBNN97AHhS6P+7nQamfXh+uuuYaNDTU46477uCUzxUrVuDss3+Dl//7MhM7LtwUc3+GeL4iHe8bjSAIYZkgCKRDoDGVBT0IVi8GG0Hw0UuO5tNbjdrCRSjb9BUGH3Q0EnMOAyh7gcMH9EJ0iu5yTBBsXXotD4IiCL0zp+osexABS2tBFVqpdHKAjbkOF9MB6llFFiXA/6LfWdVAOkhbdoJowS6CGNS6OpgKzK42RRDind0eEgSxWqovLcU3H3yAMRPHI23gAJ44V7sCc3s2xMAvWcNAZWUlV++jplLMOE2gurqK6wOQ0SRhYk1NDVeEJIFZRXk51zwgg03iQNIhUFw5Pz+fiymRC7y+vg5JSUlsuDyeBDYMVCOB9qUVcMGgQRyCIEOYn5fPokX6nMZCNRTS09PRr18/vj4ZlO3bt/O1snNyuLVycXExG0wSKNKYScAowzeU2kg6g+aWFi6GlJ2dzQI/GjsZ2NIdO1gESGNLz8hgvQLF7+n8OTm5qKysYNJB90jX3rFjBxdJojGRvaV7Gzx4MF+X9BV0T/Q5aSioXgHdH+kjKOyS1TeLyyeTQS8vLUJqahNSWr5BXXUV0OdI+BzDkJKShuRUNy659FJU19bi0Uf/zuO6/JJLmGhRKCMvL48xpvlyJySwOHThzTfjiy+/wq0Lb8Gw4SPw4ov/wtNPP816BQqvUAlmWVgp3i9Bd/cP6hStEwiCInQ5RK5onuhPZRUVWLVytaVByBbV3gTLA+m/uK5B/UbsXPMaTHcS+kz4KRwJg1h5LdwLmujiyA2zLEF4RIhBEYTuzqI6bu9BwHq6Der/osHUHfRNCqt8SFaEQo8GizCDX49g6qKUaVBgYVcQBMKqJ1kMkqfsPZh3PpJeIQh1pTvwzQcfMkFIHyRe7kQQwrc9RxB4Umx9AXhcmiaqIlollqPBRPchN3Z3U/aANAYdVLqnYyguZn+IbO9yq0VvbGl38vqSDFDZXnKfkfHpqDS0vFciCGyDbDqQzoRGXYmQaCzhmpL2iNGYuMw0twcwoGs74S9dhKrijcgc+hNk5B4Gf8CF1kATPvn4E/zfVVfh3LPPxrChQ3DttdfhN785GxdfcglnAhDedE1PQgKnRZJm4aaFt+LIww9jQvPG629g1mwhAu3frx8Tnt1OECLeFHaCQF4rkeZooJxFiqsw58i56E/dHLkaoljN+Pw0ny1oKfkajWs/Qp8xs+HOmwEgRayLOIRKL0tSq4vHhzSNkRoERRD2lVeuGmfnCEiBo5U5wV4Em6/O8tDZ38OyPaP0HEgjzHogu1exFzwIB9rs9Q5B2EEEQXgQ0gvyOyUIlNMepmLdQ4iL2K9V076TMUQa+q6G25Wh7epz+/llOWdJJ+JRHXc1zsjPOyUPtLOtoVNn5w65+YkotQE1n2PHxq+RljsBmYPmoaHNjdSMdNRUV+PjTz9hXciA3FwO6xx99NEYMnw4/G1eUcKaiIJ13eamZixdupS9IlQRktIwJ0+ezIWaqAAUeVj2DoIQ0iCIZk2SIKxkDwITBMMiCNwW3QenWYMdq9+Dw1uP/hPmQUseyrnfnMLGvlKRtcZEUxGEeB9ttf8+iUC7lI0od2ExZs6AsD62u/WsRnPBAxVBiPtJ6HWCkFGQz3UQonkQKK4kpFSxraDjvht1wB5HgGfWMEEZsC6Nmr1sQdmWJXDpQJ9Rx6PZ7A+3M4HDHhSnF4RCcP9oXTXtugL750wGrLt10OqaxElWI63dBYJMFw+uZoL3ItqJy26O5RUVWLlyJQ7lNEe7B4EsfwuM8lUoXbcUqYPGIm3IbJjIgGaI+6FwFH1dZK0k7tIpv0IWACJvXYkUd9e8q+vsTQhEb7fOI1QEoccT1TsEobQUXy9ahHETxyNzkCAI1Mc8UlVNSmyqpsjGoItIjnj3iTPQ+29/oBT8Gg8y3JBhZDxY1Bk9ukWmMJ5W2aRri4ZXNG8IJ+XFAW6nhYisC3D8z6AYYABOTwMaSz5DXdka9B19ElqdBdCpYhuNkVb9PMP0ZMQ5x1Y7a250ZYVcxDuhpxHCOL5TfCnbk2x1/pQaBFlJsby8AqtXrsKsuUeJds/ccpwAMGC01mLnmjcAXzVSxx8DPW0END1FFL/hYmPtPQjWZUMLI0UQ4pg0tev+hYAiCLtyPnuBIBgsUvxi0SIMHzECmQNyQY2AyX0vDTuXdrG8+aE8UGkgQ0QgdKNCryBzWOU7XyhTdyUcvX9uSQqCw+Zqf1bDHVYUiNUzGUj7ajnSwWZqcs/IMYasuyRVojWz3MTvQbRtH8mqf3RuXa5+g59HUjjrAy7pZzUL6gAuJigcSjSgu7wwdi5HQ8XXSOx/BIzEETD1BGik56CVvxQXmyRGirUOoqwoKFyMtMqmolziHqkdd+/PY7QzihkJXUx4MOiGSH/hgMPpYAyqqmrw49ofMe2Y/4esnFxLx0gkoQ1NpStRs/Jt9Bs+HO4RR8HU+nLnRlJqk+aDvCM8f1a1ZdY3WqAFvxeqDsLumXB1lb0QgfDvYNgA270Iel4oaS8EYJcOqVcIQl1pKRa9+hrHht3JSfBbLZBJgS86QhtwapT6aMCtUcKWbPRkvzfLW8ACN6sGuOZiokB58HRuMjpUobGda9cWgtqlaHXj5PT4Bmh8VNBD1+B2ULpagEuaUuUwwypJKrwEVHxK2A9pdoQa10qdo+qUTC9ETz9pKeS+0kNDRfmqqndyB0aKz8tzSm8BH20QKfDDYQR4pe+gMqkWXZFEI5xn8EgsBEhl3C5NRXwWHIwGk4plmX6kekrQL60C5dX9EXDmo83U4DUCXHGTqg06SaGvJUDXXZyyFO5LsIek5MuA/tvJyiE4T5E0q6sJFGStq01yKcMQWglRf8HGSlhEaJEWS0cRMByYc+qv0Cc3T5w+EOCa9pXfPgsXvEib9P+gp44GAlSl0gGDc7rFM2OvNxaN+0QvW65CeV3No/p8f0Eg1hVB19/t/QWR3rqPnhEEbk5DvRjK8Ol773GKXVa/LLDaXsaDpXEjV7BJSStC5R+s9y3vJOg3NbnuthHQEGAbRC9JhyhlTNkBrNQKv/14XOS9BVys5+HXNI9XtJwmYsCxZUpVdAgDYLerZJ949R00VeSPIYJERplW7vZ1q/BFBD0HHKpwwKE78dmnn2HKIVO4EyRtFKLgHwkfi/8MCvowYdGoOElYdwHC2u4+J72AFQzvyjgTkZH9OAw/nIFCBJpWwuvLRlLWJPg9mfBynwJyAAQ4tEIaAvoJb6YSaeTkxItUwj21haQG1ByKnvX2YxH7UG16SmltRMWOckw5bgEycvPFsH0tMMu+R/36d5E0ZCRcBXMAZAmMqfIypzhSW+/waiJ2yiOfEUUQ9tSToK6rENi/Eeg5QaA6CEQQ3n+Pc/ypPgClD0p3eUhMJkRo7Exn13JHbM4KT1hhCiITwoLSCluDzzKQkdMS29rPOpV1cCx8Mp41aLR96Rpuudi27oWMB5ljoccIRd+ldiAUSjFh6gYCWgDU/cqkH51SHSVHsggC34jQMTipVr/Xh8XvLcLs6TO56iCvt20EQcBpMNkS3ggqPhIS/QU9CJx/L8CiimVEPsQfOlYM0Kc0Z+Qt8pg+OEhb4duOpqovuR1rSs5UNDvy0KK7uf0AFTgSdQG80BiAyFmJthKWBCHWlUMvf4lZPkCkRjyXRGjbb/S5xrUtqqtqsH39Rkw99ufok0PNl/ww64vQsv4zGIEmJI+bCS1xCEwtFRo13NEMBODmNEgpzJSoKILQy3OpTqcQUAh0iECvEYTPP/gAA/PzkZ2TLdLTDIrHih+rOr1VCpNiz9SNMLp5ZpNniAqN5GXgYhfWRita4a6P8jqOMQ1PGEfx8o5li0w17PQYS1lvPzddxSVj09bbXZbONTUKtkjRZjC0zNZfOvMp7GCwwfCD/p9+p02iItuPCjNqwmmaHMJZ/P57mD1jJpJTqGGJ2J+xk6JEMmoUt9c0IfaVPCyoh7fWpZZbQafgBq3yu5ATSt2JE364jWY4TTdc/ho0VH2BpsYK9B00A17PaLTpyfBT4R9L2KfBK2hPWIMvQXzau/2JcVmpgp1OSKRZ7Wzn2PcV90jPqQVOZMzLqrtBGgLy8OysrUPRxs2YdcyxyMrOhhnYicb1i1G/+Rv0HX0oPAUzYeqZFiFoY4LAOgTuwifGFf60ygkLUbn2dxYNt1ieeLWPQkAhoBAQCPQ6QeA8b1qTyjBDUHyns1udfQi0MupgBkKrWiICUsQnX4QyHr/vTJ9cvdvXmOw/4a58Oksxxe+C+ESuRUXkRdQDCK3xpejQogXSTrEhEXqPD95/B7NnCYIgtQfkgZHXoOZAPA88F1bLWBmusDrBhWdOhOYgFvc+dw+g8IGpw2U0oKnyGzTvXI3swTPhc0+GDx72CAnPBwU6KJRC9jCyVrq9I6g0lUQOYgkxWMDE9LjEThCCWRfBfMP2YxEaBI31CbV1Ndi0dTPmzDsGffv1hb+hEDuWvYzMPkDKyJ/DTBwNPzwcXnGQB4HvjbQjIsxDm0RBzAJ3YwgqUaLfniIIMU272kkhoBDoEIFdQhBoVUhhBnZgBy2eJnK6rT4CnYnBgkbMcoHL0bP7Opq+sbcnuBO7wrYzDs823YtcudvvQyw6ScQXGnzwvu1LRl6tWobUllIXGQbgPXhfAw7Thw8WvYcZM6cjKS1VFP/lHUIhA/LwOLiMqSBt9LtM2RNGya5vEEZJ/nDMvQsHDBMjOq+pwWM2w1vzPdrKP0ZW3mS0ps6Cn70n4kaJIJAJtAsvLf5qgSMvJv9LWowYCIIUrMTiLLLmo50CNtqzxR4eCoVZ+gC7N8O6F4KQQiaG4UPdzips3LIJM488All9klH+4ydoa9iOAROmwZU+DgH0RYC60GmAU5fkR3Q+pTkLH75UkXR1U4og9PZrQZ1PIXCgIbALCEJ/dhsLD4IQKwqXOxEEy2Vqvfg6BZvff3FY4lhnzsqfl2Ql1sNE3npXL+WYzya86fIObR4AaadCdy5rJAhjKsvhRNMJUNqi0zSgB7z4ePGHmDJ9KhLSUxGggkTW0LnkNNt7WuGLsAF9KLw6drkbaSQiHNtcIli49u0pmdHumkgRXddhmkgwvTDqNsPcvggpOePRnDULPhLhBWdYh246Q+UC7WGF4CrddhUmBzEQhDimI75dZQqvNN72cAfpNFwiUKOTiLEVDTsrsX1bIaYcOh1oLkXl1hXIGXkwUoccBsCDgOEEDOEj0LWAKAsutTr2msq8RzSCEO25VAQhvjlVeysEFAKRCPQeQfiQNAgDuekQ19G3ddcTBEEHHOTSDsVVO58OsQYVGgCxpyyny4aFRGJk+CyBGBt8SwNAfwtGaa3lPuWk0x8jDRs11KHxUYYBb1aKmtRP8Njpxzon5bXLPgjSUEoSxPn4uh5sO8zZGNb+1NRIjpHDBVLYZn+327QAIWwEQZAO5SBBsI6TGgRJH1yUOhjwMUGYSgQhIy1IEIKnt2oU8MqdG1ZR9oDQQgQ1CqKBatgUCbW+0JV0tXF4SCcpZgBOIhZ1O+DY9jY8/Uagqd8cmLqHsebrkR+DGxFFGjrpWLeHGcRzsUvIY1c3FfxcPCuhfqV2NxB5YoggkAfBxwShqbYSO7ZvwfhJw7BzyzKkZReg39iZ0JP6AqYTAYOeGRl2E88Qt3bmFMcId5Y1B/xMBkmrIggxT53aUSGgEIgZgV4jCF98+CEGDsxHVlbfIDkI7x1ABEGkbvHLs8vVuBAqUqiCyAZVpZM198mqtHnbuJMgZ0xYxtYf8Itugj7qIS5etNS5kZobOV2uYOZEZVUlt1XOyc3l89IP1fjnNEQS+jmdwtAHDDQ2NaKwsBBjRo8Jii65AA5lInA7YhECoJr7dL9MBDS6biu3XKbz0rlIzS73C/jpngTRkISk4xkTqsywiHPQsMpQQCgtkjwICQE/lix6D9NmzkBCn/SQOFEwGr4UhRg4vMDVDC1PguWxoeRHSRbs45JVCmMhCCwi5B8/iya1+jLom9+Eq+9QNGcfCjhkrwERZxc6DHtxJvsKOFKHIMJXe2yjwkTB0E/kKKQHQRKEZjTVlaJ220bkpAAJaU5kjZsLV8ZAkbVhumAQSbBcPFIIyuqUWAiCYCJRoFAehD32fKgLKwT2EwR6ThCsOghfLlmMQQMHIjOTcrlp5Rxyu7LXwGrfGQ9BoDgzmQHqotjY2AiH04n6unp4PG643R64XNQMx+S2y6KgjPjx+fzBz6gVMbVBTklN5QY/1G3w3//5D/IGDMARRx7BbZzrdu7kc1PrZSIbdF46D5GPTz/9FN8sW4YrLr+c/52UkIiERCrq4+B7JELQ0toaJB9k+Ok8RCLc3ETIgYQEDx9LbZLp+rQSl+2Vu36OohAEmYnQTidA/dENJBoBfPjuO5g+exYSM9NZ/sdrbosccD1/q+gSexC4D0LIyAjPQSicIcdoT13taNzCbJP1FDoBE34OMziaK2FsfB2evkPhzT0Chua2qg6KEoHxEARujxwlxNDeA9E1ut3aIwpBkGt4rgDKIQaC0AsTLWjYWYSmrcvR12Ng4JRD4cqbBsORCl3zAqYbBos0pUOA/BLkTbDSgbvyICiC0K0pVAcpBBQCXSPQMUHoKtzOVkbEgusryvDlkiVMEPr0yeTVcbsmO7xatoRXXSnc+KVHQjjhzt5RWoq333oLLrcb2woLmQDk5ObgpJNOwoABA/DFF1/gx3Xr0ECdAQfkYs6cQ/HDDz/gm2++4VK3dNzUqVMxc+ZMfLRkCZ54+hlkZ/fH1MmTceIJJ6CpuQnvvPMuysvKGLGUlDScdvqpKCoqwpNPPY0d5ZX46dFzMXLkSGwrKsI555zDNrCpqRFff/0NezbS0tLwzbffor6+jj0YRAamTpmMuXPnMTn55utv8L+33obf28pejtNPPx1jxwivROebcBeEPAgi7h3KKSCtQNCEi5i/YeDD997BjNkzkUweBFYOUFgjlCJKv3P7Zhnvtg1CnLv9qjSoe7Dn/dueE3knspSTqfn5+aAzOb070bb1HbjT82H2nwVTo5VzyJMkC1DbtReWlQ1L8hOXE8Wd7JsUOHaFZtdfia73kNRJymQodCSFpKYVLqDnl0IMhr8BzbVFaNn+BYaPGoyU0cdC8wwAHB6YVDGU5I4mhXPoO0N4kF9H/I9rJimC0PWEqD0UAgqBXYJAdIIQ2T0z2qWDBCGA+soKfLl4MWsQMjMzoxo9jvPLSn3tlNlRLmDzkJbs2IErrvwTRowYibPP/CW761944QVevV988cV45fX/4Yknn8bCG6/DhAnjsXbdejz44CO44Pe/ZaO+bt06vPTSizj3nHMxIC8PDz/8MA4++GDMnDEDSclJeOCBB9HU1IRzzz0X6enpeOmlf2PDhvW49tpr8Oabb6GoaDuuuOJyVFZW4pEnnsb1f/ojCgoGoaSkBHfffTdOO+00VFZW4d777sfNN96AvPw8bl/81FNP4c9//jMyMjKw8JZbsOC00zBs6FC88sqrWLH6ezx4791MHqSGgQ22tUXys+jFeEIgSX0BGWPSISxe9D6mz5jBrZVJMGipB2w1JEQpYM57iNT7dUQOLcGgvSGSFFXSsEN6CBEsoOqMJvclAAsnm6q3QnMmwJOWx7UwwrozdkoawwfUvnJgKNQSjdjE882JpdmTIAgkJqQf+p1CNB6YARfgp5pWJgKOFjgczTDJe1CyCs2tAQw9YgGSc8aw1wCkiWGCIMheyMMj0iPFHVk9nm2lsYTbJYIGqRBDPFOs9lUIKARiRKA9QQiK38LP0N5mUBk8qoIXQH11Nb4kDUJ+PvpkZkZ/1bPOL1QmuEsNAr8hRTvgzYVbcecdd+LEE0/EvKPmwak78PXXX+O5517A1ddeheXLVmLp51/gL7fdwrqAJ596CrU7d+Laa65GgicB9Q31uO+++5GXl4/jj/8ZHn30McyYMQOHHXooiktK8Jc77sS5Z/8ak6dMZu/H1sJtuPyPV+Fvd/4Fq1etwqbNm3HjDTegqbkZTzzxBHsLyIuwdOlSPP/8c7j22muxfNlyfP75F7j6mquRkpLMIZF77rkXhx9xBHJzcnDbX+7AFZdfAofuQE1NDe67/37ceccdmDhpIpqbm+F2ucPIQWwEof1Kn0scmyY++uADTJ8+HanpUoNAYQYh+DTDdCBC6Nm1J4OuFR7XDmoGeLDhokbW4TNBsNb2Vh0HNm3SvllzHOOzau0mz2c/SlaUlONrh17Ml4hSNTnKsRZB0EnrEoCuOaGZHphk+AOA02iD4d8JZ6AE3uq1aK2tRZUvB6OO+jXSsvNEG1qrWZWAg4to839lwypRdVRuNlIQbYCKIMQ8v2pHhYBCIHYEOiUIYe/xducMJwhfLV6M/Lw89iC06y9gxVft5Xy7GqJYrIq1YtH2Itx119044YSfY/bs2bzy3bR5Ex64/wFc8X//hx9+WIui7cW48ILz0NrSiocefojFkueffz4CAT9rFJ574Xk01Dfg/PPPw/3334dp02dg7pFz2fhfe+NC3HbjtRg2bBgPq66uDhdeeCEuvfQybN68GVsLt+KGP9/A5/ru++/xt7vvwe13/AVPP/UUBg4aiFNPPQ3Lli3jn8suu5SFiaR9eOyxf2DkqFHISE/H/Q88iLlHHAZPgodXhqSlOP2MXyAnJ4dJCQkppQchmrwsugchOkHQjQA+XrIE06dOYzIj6zDwKpWX88L0sFeHyEFESKjjuYkkCLJkkGhGZdcAcDdPCgWEJSBYRMQKHXVJEjsYCFfYDPtM9IkQ9RuilYGOPSVS2N8u42uihwV7EERaosbZCLT6p1TTJqC2CGjYCCNQgTbXQGysTMIhc+ejT/YAQZB4HsSl6J9W8qhIObU+Dt2iIghdvS/U5woBhUDvIxATQZCvzPDXZtcEwT5cdqPaPAhd3UoYQSjejlsX3oqTTjoR8+bN4xj/8uXL8eJLL+HKP16JZctWoLi4GOf//nfweb14SFwa9gAAIABJREFU4YV/sfv/1lsX8r61tTs5rDB8+HAcf/zxeOSRR3DIIQfj6KOPRmVVNS7941U496wzcPjhh8PjcmPz1i247trrcNNNN+Krr77Cli2FuP76a1nxT4b/+uv/jOHDhmLt2nW47bZbuWvip59+go8//gRXX30VCxDLKypw7z334thjj0Vubi5uu+123HbbQvTP7g9vaxtKd+zAiJEjeVXPmQ9WoaPoWIu0zuhbuKkkDwIRhE+WLME0iyDIJk3RCQI1kIrVgxBOSITZCrn3g54JWYrYcp5zXr/0TFnNjULu866ehPaftycIJPATZaPbE4QoLvlOLkkdKCM3+ZfQDAjfiSB0hJ8Pfr+X9Z4e3QujYRu8FT8gxZWIhIwhKPW6sXFHI2YceRz69LcIgsMiCPYQA+fhEsmIDJQoghD/U6KOUAgoBHqKQA8JAlf4R31VFaQHISsrM2oKY7cJgq6hoqIC1193HcfyycBTGPb1t97BmBFD8atfnYm33nobpWWlOPecc5CYmIA1a9bg/vsfZI/D6NGj8dVXX2Lp0s9x1VV/4mZSL770bxYTHn3UUcjOycF//vMyNm5Yj9NOPx0JHg8WLVrEaZG/Pfe3+HbZMjz/wkv4w0Xno2DwYF6Rv//++7j/wYdx7DFH44rLL+NV+OLFi5mEnHHGGaxPWL16Nb79dhluuOEGJgzXXnc95s09EkOHDsWqVatQW1ODSy65hPUUlCKpU40IOZu2XgzyT9QcKHKLJibc2wiCiNGHogqkSYgtnNGJH6OdByF+ghCdbmncXyHkCZFBFGGgZeEoSeY0Di3QZ9Q/gTJUWuBo3g69ahUSXElwp42B1zUQVU2N2FxSjulHHovM7JxwD0KYBsEK4iiC0NP3mjpeIaAQ6AUE4iIIQWPFv3ArPkEQqqvwzeIlHGJgDUIUD223CYIGlJTswMKFt3AIgLwBrd42TJ06DSed8HMkJSVh8eIlqKgox09/+lMkJibB5/Pis8+W4pNPPmEtQP/+/bFgwQIWLFK64fc/fI83Xn+d6xNccMEFnDL5xhuvc4iA0hLHjBmDk+efzGSguqqKMxnaWlswf/58jB8/AaWlpbj08stx9VVXYdzYsUhOTsIHH3yAd999Dxl9MlC0rQj5+Xn42c+Ow0EHTeIQx+o13+Hll//NeoOBAwdiwSkLMGL4cFEPgWoRkFGwrFa7EAPbp/ZJfMJshTwIwnCFPAiEEd0DnVvWHmwfYojXg2CPjNuNaahvgKwSSe52e2UD8dSILpI92Th00c7CCw8CeRLCQwTRy0JH8ytwnxCKxzCm1h58IZFuK5wLYvBExKiYEScomo2AUYumxkqgYTv6+CqR2u9gtCaPRiuSUVdTia0lJZh65NHI7J8jbt3W11reSrB2liIIPXk81LEKAYVALyEQM0GwXy/oVCaCoBmor6zEtx99xEaR6grQipreo3ZVfk8Iwo4dO3DPPffghBNPxNixY3kFmpyczOSAagqQtsAfCPBKnWoe0EZphk1NzawHoIJFaWmpcDicbJCpyJKoeWAgIz0DVE2RDDdlMhC7SUxI4PMLu2yiuakZXp8XRoAKNjnx0UcfYcWKFfjjH/+IjIx0eDwJTBBWrfkOvz7rV0wI3B43khKTmIRwq2rTRENDI4yAGE9qSoooqUuiQk5tE5oAaTtlV0SLilkmqv2sRyMIJB4lDYIMMQQJAgsUQz0xhAYhXoIQPoZQ5kIo1CDugVzwkdF8oQWI1pQq1ueZzXdUJSEVfAqFPDo7n7h+pKhSjNUZoF4WoTLYnAFitRgXFM3B5ECHD7rugwNN0ANVqK34AQF/AxI8fZDiyYeWmAsjIQO+gIbqmp3YWrIDs46ch6z+uWJowXLjguBZHDD0UdgNqBBDrM+H2k8hoBDoPQR6hyBUVOCbjz7iSop9MvvA8AsfeU8JgnwtlpaV4aGHHsRJJ52MyZMnh+6eq82abLiJlFDhIlnwJ9oiVRp84eEI1RMIejwiVqXUfZKqLHKWu6ahuroaDz30MBoa6nHy/PmYOXMGF3Eir8SHSz7i9MqLfn+eIAUWuQirJinT12TBIjZ2ghg47OTApkeQN8tGjVNLQ7cvVuIRcj3axyIIU6dMDfcgdEIQuvtIWQmNlkUNL4kcThDChYLdJQmSIETObyRR6eh+guOFwyolbREb7u/gh2ZQ22nKzrE8D6Yj2ExKMx2A4eQ5cwSaYWIL2lo3oK2pGm3eJKT1GYr0zAIYcCPAdQx0+AMGqmrrUbijDLMtgsBFqqjleVjPicjsDvsdKILQ3edTHacQUAh0H4HeIQjl5fj644+4DgJ5EMhgigVShKzR1r62qyHLjAd6bVO55G3btnGoID0jI0xjLnsmkDegXQ67PfjdyQV5t4h9xfhFnwZ5H61trSjcWsi1Eyic4nK5WUPQ0NDAoYztJcUYO3pMkCCIglF0B+Enl2V1iEhQWpskUtKLIOiL6M4YJAgWMwirqxSROcDHcQloLz5Z8hGmTpmC1LTUoHucRYq2+4namdIqHd3V/ITGZYUZ+BbDCUIoABE9i6A7JCFIECJqaYQMf3iARj4f9vFaeQJWeEau4CmPwAcTrTBBLZeFv0A3HdCpqBQB7/fBNFpgBlpgttWhpXkrNJO8BhlA0nDAPRCaOxGaToJFUZXKFwigpq4JhSVllgdhgJXEIIinYJLW6OR/o8eYrH2jYKnSHGN9XNV+CgGFQBwIxEQQ7Gae3mFBZzJ39zNRX16Orz76GIMGUaEkEWIINjmymTg2mLzobfcGDBsyv9StXjRi7UReAorVh4x1xAHtDHwcGETflcv/Wj0OLKIjMgkEAnIs9kZP1AvCyf0mbKfkc4SO49tnj4SgAXQNLoxD9xbqS9U+0c7KAIkcrKhTKDZBKqj0tBeff/YZDjn4YKRSISaLAMl0RzmHfF2NVrriL4J82K1U5NUiA/9y9W1dPazzIhVKCiofOsQ40jZ2NW9stGUhaBtJCHkQbCTFwjiyP7fQRYj+D5IIiDKTXpiBOsBo43bOouGGAcPvheFvhs9XC5+/An5/JVwOE0kJA5GcOAIedy5aqf+GbnJjLK5vRLga5EEIoK65DVuLd2DGYUciq78kCEwNFUHoasLV5woBhcAeQ6BLghDNVS/MgRQpmqirqMDnS5Ygj0SKlgchzBduvci5/TMf3DFBCHnNOycRIcQotCC6JjKx6CUo+erkQeBQifAkRN3CluGRxpXSB0nLaXk3LAJglSFgHETVPHFu+xXaudA7KMkcWjmL48mwtba0YNXKFRg1ajRnfkiCIDwIITJBBXssVQCPJfweo9xvO2WgfY5Ezwj7ZloEMoqi0D59XZcdsJ00jCBwsyPpn5FjiVIimmsWW3NjGhxcECWgRbdJfpa5wFQD2uq+h9ZaLTwG1LbcMBAwAvCZBnwOB3SXBwnuRCQmZsDlzIcJ6siYAAf8MBytCDgMeLmMtFMUhDZMNLV5sa2kDDMPPxKZrEGQVSzDxyqlFe2/HirE0Etfa3UahYBCIA4EOiy13OU5ZMcf00Tjzhp8uuQj1NfVISkpkdP2xCJN9hGQXgDqvEix3Y5oh2W8LJYgatx3volFr8jj77KtQZc3Fb4DGW+2LZaAMPxTaXRCq9Bo5ERUxg0fm+irIBfrZOI7vkvxSWf3FnEsLXoDPpTuKEW/fn2RnCTElnQJe5NkPorIC5/bIm4x4xPpC48+fqG/IAveCW2zCQK7nGyLRHH/ST63uCPpeRFtsUOESz5nFFYRvUH9PBy35oZmUinkOrj0BqR7AI8rgYmcz1cNv69ZFI+yCBQbes2JgJYAU0+BZibDCLihaUnwGw4ETAMe9gL5ENAM+GlfpiE6h73aqEuow42jjv0psiiLwfLcRKt2wFMlXTzBZ0T+Ud5z5ESpbo4xP7pqR4WAQiBmBHrQzVEYPnpJG34faqprULuz1jJn3E846LIOmo9489s6Myz2l6e83c7YRDTveEcwxbNv5DhiYjTtqEYME9axL6f9wR3E/G07yrPF73GJNo54gI/hVjvbhVMAKc2RiI2oPyjJjuj/EOkmEXuIjpbUPVGDE4nQUAnNvwVNO1bDbKhFdvYQuLLHwJfQF16DGihRWIs8U5LIUZdGykghcaFsW67BIEGqHIAtPCMqS8pgiA5PYhKycwbAnZgohLTBok7iZu1BqND3xT5hco9oc6sIQg+fKnW4QkAhEAWBnhEE+WrjNnQydGBdxVo5B68pFtphkYeYZiQe2xOPcd5V+wYtVgd3F79FjgmmA2YnnjfRSpo9CHY8pcdCukx4XzLmlPpqZSWQjqStEq2VX6C1eDW8LQYS+o9BUvZYOPsMstpUkwaGmklx0ePQT7DGgmXgOSZgX+7bZ8H+gNE+Vm0FIgacwUCbyGSQXwt5pmDgxn5vgvlEbXMdvUFV8CwHzKOhblQhoBDoXQR6gSB0MqAIn3+YA0EZyt6dyQPibFLFaREEuweBl+F2BkohIO5tyQSBc0m473UD6oqWoHLT10hLyEDW4Olw9h8LuNOEvQ40w+DOCBQykCRBpiTaCYM0wNEe5AhyIPo4c2Mz8mPQeaVihP5LIYyoQRtFEA6Ip1rdpEJgb0Vg1xMEm95Api7GG2noDLyO1m+9AXg85453364cDfbxx3Pu3rjv3X2OWO9PrrVFoSQKM4gQg9jIKFv6FsuDYFBEAFQOmS0/zKZKVGz9CnVlK5GZPRoZ/Q+BO70AcCRYHjBKc2zjwkiilkUwIVWc3+5B4H9Lt1hXiFk6DC64RE2e6DhJNkIEwb7mD0YtgrenPAhdoaw+VwgoBHoXgV1LEOzv7qCkLP4oQ1cEIVZja1+ldQVjd/aNZRxhi8KuBtFF0mEMh+8Tu8SOtah/6GARrEyhlJoDa9Vuj+2zQRYVFo3mzdhZ9Bmqi9Yga9DByBxyNHRXtghBBB0PJkwH9VUgD4WgB6HmT5IQyFLO1r/DvBadwC1DBFxPW3oYhCfBrioICwy0e1hCIQbxUcdxMjH2ruJo+8TjoQapEFAI7CEEdg9BsN5l9lhrR45Z+5pMRSH20FOx115WmHvR/0AaS0pHlEabtAFSsGcZR8ogaClH3db/obVqE1KyBiN5+GHQkkcCcIeMqCUnMB1UJMlvmV8bGZAGN1jrwerTHLMNti4QTFEI9YyIfM7beQ/CuACRnqhHhM1a1/k/e+0kq4EpBBQCewkCu48g2EgC/RpD5HYvgUgNY+9BQFBMyycQeorYaIvSxrL4FI+Zdvc3oGnLp9i57WNkFoxF4oAZQPIAwJHarky1OIQIgpU+aWUhWPEHW5ihm4iwsFJa+xCziOooiLyEtXtIZSF/i+4pUP6Dbs6ROkwhoBAIIrDbCYLCXiHQfQQifVDStJKrnv0K4VU+TT/81d+jZuUbcGUOQPq4Y6Al5EHTPJ2438l7IA25zTMRNOzdHH0wstBecdEuxNIJew4RBMmAorswFEHo5jypwxQCCoE9RBAU8AqBHiEgsxjCSz6JoIOI5ZNJd5htQKAeRk0RqtZ/gSRnGxJHHotA5gh4NQ+IHlDiYzTTGiqLLVb6Yp+Y4wjdurvuE4SOL6cIQremQh2kEFAI2BDYvR4EBb1CoEcISIJgX0dTwEFj1QAFBxww4UYz0FyE6tVL0NrUhAETD4OeORGtziR4YcLF++ic1Ri52amH/EzSg2jliHp0O9bBiiD0BorqHAoBhUBvI6AIQm8jqs63CxGwEwT7qp4IAvVhBFymD26jGo1rF6N88zpkjz8SKUNmQdMSQc2q/BrVIqDkR/pfe8+AaD8mtshPe7Iq78wHETWzpQMdYniIQXkQduHDpk6tEDjgEVAE4YB/BPYhAILy/vbm1uDyRn44/A3AzvWoXfY2tLSRyJj0M+jJWYAhjjF1EUSQFQ6ihfvlHpHIRCMMPUFPXjsaF4ge/og9RbgnZKYn96SOVQgoBPYfBBRB2H/mcv+/kw4JgihAZKANetNWNHy3CIHWBqSNOQGOzHEAteCWLoEwy9vT7p89SyaMhyB0tG9Hk64Iwv7/dVB3qBDY1QgogrCrEVbn70UEZIjBbuVFW2YuY2w2o3Xr+6jftgypw2cjqf8MQM8CnM727Qq4jEG0mgK9OFzrVFLoGEknFEHofazVGRUCCoHeQ0ARhN7DUp1plyMQSRCsiDw1YDLa4G8pRNXKV5CQ4kb62PnQPAWAYeUr2JfUwZoCu4cgCOeFrQ21hZMiCLv8gVEXUAgoBHqAgCIIPQBPHbq7EYggCLLcMnkQAg1o2vgOyrasQt6M/4eEjIMBZwY7FzRZ/VA6HiIIwq5NYgzRg0i04iEIdGysAsWo0ZTdPVXqegoBhcA+j4AiCPv8FB5IN2AnCFRumZIWTWhmC/w7N6Pk69eQljcU6WN+Al3vC1N3cT8lnQWKVotmaT2Dq3hKktz1FKGjWYomkowYYtihHe0fef49d0cH0vOo7lUhsH8joAjC/j2/+9ndWWtobshElQ9aQB1CtbZC1Cx7DeUtDgw8+KdIzRoNGC6rIiKXTmpPEDrKZdxViHXCBDrIaOxwJF2RBEUOdtUkqvMqBA4sBBRBOLDmex+/W0EQyCsg6iZ6+adt28eo/uFDOApmIXPoHLgS+gEBIgYGoJO5dAKaA7C1Ho/aDGRPoKOs+Z5AXV1TIaAQiAEBRRBiAEntsrcgIAmCzAvwAf5KVK94A401Rcibeioc6cOg6W7RTkG2ftapvqIOTRGEvWUi1TgUAgqBfQABRRD2gUlSQ5QISIIg+jnqZjPMiq9QvOIjZBRMRMqwedCc6QB1TTSp8DJlMDhYfqAIgnqKFAIKAYVAfAgoghAfXmrvPYqAFX1nT4AJ+KtQ+8lDaGtpRNbUM+DKmgRoRApIn+AFTJf4t05KBeVB2KNTpy6uEFAI7HMIKIKwz03ZATRgq5iRvONQuJ4+8MJf9S22ffgEckcejMTRx0Pz5FsEgTwIRBJIe0DZC6Rb0FSI4QB6dNStKgQUAj1HQBGEnmOozrCrENBMiNZKYpOlhnRKSwzUoGntf9BUvBVZk4+D3ncsNCQKr4HpENUVydPABZI0IWxUGoRdNVPqvAoBhcB+iIAiCPvhpO43txRBECisQPaekhaN+g2o/fxRpA2YAtfII2EkpkMzndAovdGwGjMHCQIUQdhvHgp1IwoBhcDuQkARhN2FtLpO/Ai08yAADq6e2IjWwk9R89076HfImXBlHwQ46e8eIEAaBEkQyHtg8yTYR9BVMYH4R9u9I1SaY/dwU0cpBBQCuxwBRRB2OcTqAt1FwAwSBGHwudyR4QOMImz7/F9Igg/9Dv4VjOTB0PQANMMtwgtyk/0XLL4QNg5FELo7Leo4hYBC4ABBQBGEA2Si98nb1Ez4oXFOAgkRqDaiw2yDr/IzbFvxJvoOOQQZw49CwNGPxYkOCi1EK0sYrfexIgj75COhBq0QUAjsPgQUQdh9WKsrxYuAJuod6QggwA2XdDjQjKqVz6Ot4gfkzDgZjvSDAKQB1G8hogs0X06Sg0hX/t5CEKJhosIO8T4pan+FgEJgFyCgCMIuAFWdspcQkF0XjQB8AQMOhw6zdjPKV/wXGZkeJE38GTTXMJG5YN/sbQ8VQeilyVCnUQgoBA40BBRBONBmfB+7X3Ic+KgmkhGARzfQuuFDlK37HIMmT4crbzag97HcBBE31lUzJuVB2MeeBDVchYBCYHcjoAjC7kZcXS9OBEz4NQ0B0wsXatCy4iU0N/rQd9Lx0NKHW4WR6JTcfCFEFuwEgX5XIYY4cVe7KwQUAgc6AoogHOhPAN3/3hDzjrqiF38MUBVEtEFv/AF13z4LR9YEpIxZANOVxsWTaKOSShqnN8q4RBf31RsehHjOEQ/G8eyrnl+FgEJAIbCLEFAEYRcBu0tOS9UBY9nsFQO72n9vMUYdEQS6Z50+rEfrpsWoXf8m+oz7ORIGHQ9Q10b2DtD/CTljzGwnRig7hc8UBRtj2cKmpCvMu/o8lguqfRQCCgGFQA8RUAShhwDutsNjtUSRA+qMLFg9j3bbPXR2oY6MIhVG0rxAoBglS/+FABqQP/UX0JMmhMSJXRGEGI14XDhY56RpMWOYGyrzHHUqot23IghxTYXaWSGgENg1CHSLINALkeva21+MVoc9wzCgc4Mc9Zbr1SmzYd2VQQrrORA5D3JadoXR7O4NR0tPlOdiD0ELUP8lij59Bkn5s5E1/nhorn5W6ST7RaNVRBI1FPbExvPE6ZlRvg7W1yfsWyL/ob46e2K61DUVAgqBCATiJwimCcM04PP6UF9XB6/Px2RB07mFDhISEpCWnhbheqUa+tY+ijjE/RCSoTENI7hSlQRBrEo1mKYBTdNRV1eHlpaWsPM7HA5k9e0Lp5M6G9o+2kNGs/Obtw9K4zZNVE0RaENLyTuoWfUGcg660CqtbE9t7CiX0bpab99rrAbcBBobmtDY2MBzJ+ZNg9PhQFJKMpKTk5hARA0/xHqNuJ8mdYBCQCGgEIgNgfgJAp3XNFG4rRCtLS1ITk7hF5+ua/B6vWhra8OoMWPYoIVtmsaeBU1Xb77YpsZuzE2QZ6ad54DFe8LAeNu8WLr0M4wcNTqMBTTU1yM9PQO5A3KDf6fzGIFAzPHzuMfb7QNCnRvpFAYM+DU/TM0Hf8lS7Fz/BQZNvxjOtHxRd1mszbt9tZ4eSNEPfs5lU6iIEwb8Afzw/fdITklGUmISjIDBMgn6e0tzC0aPGW01nYzwMtiSMXo6RnW8QkAhoBDoLgJxEwR6IQYMA5s2bkRGnwzk5ObCNKghDtDS3Iw1q1YjITEBhgxDyEWcaSJARon2VVtcCOi6zkWC7BuvSImrGbzOZqJQXVWFeUcfLbwF1lZdU401K1exkSLvDm10LM9FDLHzuAbaCzuHhmTC1A34ND+MgBeJLVXwNNfDSB0MvzMJ0OXKW2Yx2IlC6HdGKcojJ/pCxkMuQvsKUkYeMXEO+m/0M2koLy/H1GlTkJHRR+zD35MWbNq4CaNGj4ZOxNnhEOezhxjiGVov4K5OoRBQCCgEIhGImyDQkscf8GPd2nXo268vcnMHsIubXuy0Kq2r2wmPxwOXy8Vu7+Dqiq2ZdLOqiYgHAdYUBK2HLcGfRYaEKRAwAvC3eZGSmsoGR25+nxcN9Q1wezxwOB0gsrFX60OCxlyEF0wY0CiEYlIzpgBMzQHQDxtbO2myKy4jrGs7IhQZ7O+ONdaCTSPDmZuYE4OIm2GguZm8bMn8nWBCoQOtLa3YtGEjRo8ZA53+J+c3MlLSnWHF82CpfRUCCgGFQCcIxE8QKC+dCMK6deifnY3+/fpbL2vA7/ejsb4eCQmJ/NLjlRW//MSLXL3vuvcskuZDaBBoMSwsKK1ZdYfOJIwwNowAh3iSU1LYqyCxbm5uhs/nRWJiInSnU9QN2CcmwrSyF8nT0cqG1dDd3I0hdAOxeKMicxG7Y4XjAIwzLgVpo7nytrUhISkRpAWRTovW1lZsXLcB48eNY7ImPAtE3KznQ/KeOC7bvSdLHaUQUAgoBDpGoHsEwQhgw7of0bd/P/Tt21cYJEuDsGH9emG0KCvdofOKlT0J9N6MFkdXs9MlAkQARIjBZjGINNgwJaPT0NCA2bPnMM5kkOi4yspKlBQXs2eBwgpsi/ZioagM59PdOjUndL8XtWXfwOdwIiF3AnS4oVPYn8Mq7JYKpimIf4dvwnkQ+XdxtNg6yHwIO41FKqLykXArzmJdK8PH5/OhpqYGEw86CKlE3CgS5wBavW3YsHY9xo8dZ3l0FEHo8kugdlAIKAR2OwLdIwh+PzZv2oSq6mqkZ6RjYH4+6uvrUVFRyYaMSIPb7bbIgVoG9casstbA5ioXnhlh7MlzQ56C6qpquBM88LV50ebzwqk72HPgcruQk50Dr8/LZE3qGWLRIARTWnvjJro4B8fhLdGlbgbgBuBtqsLW1S8gud8gZI04AUAiQOEGbgIdIgf0ux6NIETRIIijJOGK5fnsSK/QnlxIMkxsoM3bhuLiEjhcDqSnpaNvVl/WJFRUViAlOQVjxo3hORKsTXkQdsMjpi6hEFAIxIFA/ASB46sGZyuUlBSjrKwcEyaMR2lpKcpKyzCooAApyclwukJCueB4YvEIxzH4fX7XWGyTdZNS3BmW4ihDOJYngTIZKNWRQhLkLaCsERImOl0uJCYmMGEjz4JuGSXSjvD6OopYMUQM7LH9XROd4FRNy7PB8XiYcMAPj9mKhoofUbLufxgwYgYSc34CDYkIaH7+EdUTLfvK/pWoasTo98fXpGIEsUxCNC9DZKii/dNImpzanTtRUV6OxKREDBpUgC1btvCcDB46mENxNGSlQdjnv8nqBhQC+yUC3SIIbFA08Ip1W2EhJkycgO3bt7M7e/DgIZznTeGF4MvbcmlzSrvaQghEauk6wUbUQhAASuMd1HjwH0moSDqFkNGk/ZwOJ4tK5e8y7GMnGqEc/dAAiASK0IZT1FmwrrErciOFN4SeKSs7gAiC6UeCUY2qrZ+iongDRkw+DkgZB6fhhA8mfPx4idRPUV1A6DLiL4rUU4LQ+QPt9wdQUVHB34chw4YxQUhJS0UuZf8IoUIw9VfeRzD6YbudWEapvloKAYWAQqA3EegWQeABEEGoqUFJ0XZMmDgR27cXCYJQMJhV9HZDJddaQpmgtqCtjQIFLWijufWDRtxGsoI1JaxyvxRCkKEdniAuaiVEeuRVaGxoRHNLMxsn1ihYKXq0i9fbhuXLlmNQwSDk5eVxISy6lMft5mPpHEzwdkFqpOCPIs0vpEEw4AlsR9m619DW6kHe+GNhJOTBFXBycMGrW4JNe9hF3FE7VGMJpXT+VEYLMQQpSYeHkseG8C+vqACcDgxlgrAZiclJyM7OtppLdaDejfJVUd8e9e5QCCgEdicC8RME2+hIgFWyfTsmTJqE7UVFqKqsRMHgAnZhi9RHy5pZbtQQToQmAAAgAElEQVQ4WunsTgz2yLXs0XO7V4AIQmQNieDnoGwFVuiFZSOQZ4GMOHkLSCRHWSYsCOW/iyJW9O9/PvtP/PeVV/Dyyy8jLS1NCOQs1/5HS5bgxptuRH7+QPziF7/gzzLS0zFz5szQfrL4VS+ThCApYKYgCg8RGXG2bUT5D/+GO3U0UgtmwUzIhNvvRgA6vFb/hZDxp16O0U1oz4cb/bxCM9HxRt4XX8DPBEF3uzBk2HBsJoKQlITsnBwre6F9YCTaOeXfFEnYI19XdVGFwAGJQM8JQkkxexCKi4QHoaCggN3SlHYXdGOz9zisGe8BCbb9psPkdZYFY1e7rnGoQBpu0hLQap97XOh6CFMrbBMMPWga3nrzTWzYuBGeBE8wHHHK/Pno378/10l46KGH8MADD2Djxk2cl89Nkv0BFBUV4YorrsCWrRQfT+RVPP39jF/+EpddeqlI0aONxtCBZqEnE6ppIqdAFNm0hQwa1qLmx1eQljcLWvZEmO5kJPiSQKPwaUR+RFaG2CzvwW4MY3XYgMkakUN3cCnysooKODxuDBk+Aps3kwchmb04cpNDlv/tSPEg7lJtCgGFgEJg9yDQiwSBNAgVFkEQBk0RhI4nURIExomNo6gbQSv+gEGrfh1tra3461//igsuuAB9MvsEU0apCBV5CQhfSqVLSkpGY2Mjnnvun3j33XeRn5ePkh07sHr1atx7zz3Iyc1hvciHiz/Eiy++iFdeeQU5OTnIzMzEO++8g8cfexwbN2/C3LlzkTdgAD777DNs27YNv/vt7zB02FAMGzYMBx90EFy6Aw7L69C7j6dpkQNBEDicoWmo3/4F/CWLkDV8HsyssTBciUjwJyJgOuDTwvUWey1B8HpRWlkBp9uNISNGYtPmzUiyCIKUfyqC0LtPkzqbQkAh0DsIKILQOzjGfRYmCJrG2QZUTGdbURGv5Mn1PHz4cFRVV2HpZ0txxx134Jprr8G0adM5fXTd2rUYN2E80lJTOZNkxYqVHM/OzclBWUU57r/vPlx44YVMFP7xj38wCaBsBlqXi1TUCowaNQonnXgS5s6bi7N/8xuU7SjlolfTp09HbW0NPvr4Yxxz1NFcSnvRog9w1lln4vrrr4dOQki/fxesYinp0AFTo+4LAb6Obhgo37QE7qZvkDPuOPgThiKgu+AyPAiYlOQYWZVzL/UgKIIQ93dDHaAQUAjsHQgogrCH5oG9Bg4Hmpqa8e677+C5555jtz+RhtN/cTrIPX3fffdi06bNmDxlMg499FD+ufnGm3DRHy7GUfOO4lX+ZVdcgaPmzcUFv/89tm8vxkUXX4ScnFykp6WhqqoS8+fPx5bNWzDp4IPwxuuv47XXX8ezzz6LgfkDOfTw/vvv47333mPX95w5c1hE98UXX+LUBQtYC/Daa6/htNNOwy0334zkpCT4vV6hJOx5YN+GvAkndAQ0E3744TJNOLw1KNmwBCkJNeg/9Cj4XHkIaB5oJnmnqABzZHrmvkMQqIujCDGE6w+kJ0FpEPbQl1JdViGgEAhDQBGEPfhAkJizprYGt912GxYvXox7770X6zdsQP7AgZg0cSIe+8fjeP6Ff+HRR/+OMSNHYd2PP+L888/HwoULseDUU7Fxwwacetqp7A24+ZabYQYMvPzKK7jyT1ciNTmFV/35eXm45ZZbWHuw5KOPcM89f2NvBRVTIkFjfUM9nnnmWSx6/31s3rqFhX6zZs1ir8TiJUtA3SBvuukmnHHGGVRjG4bfHvfvHfDITLrId6CZnMLoNgNwtazEth8/QnrOWKTlHAS/MxsBLVmIMw3yH0R2o9z7CcJQDjFs4jbP1OSMRhyq6Nh5hqYSKfbOs6bOohBQCMSOgCIIsWPVq3sK0aEDLa0tuP/++/Hs88/hsDmH4rDDDuPMAVrdP/Hkk3jk0b/jtVdexbChQ/Hxxx/jvPPOY0Jx2mmnY+PGDVhABOGEE3HtddchKTERLS0tOOaYY7Bt+3a88NxzGDRoEOYvOAXTpkzFkKFD8c9nn8WyZcvgSUpEbVU1/vfmm/jhhx+4t8bKVSuR4PbgxJNOgsvpxPuLFuGgSZNw3333ceW/lKQkbvHd2xsFQFwg74GJNs1AguGFu/4jFG5YiuSCo5DSdyw0R1+YerKlUSAaEdn+et8iCNKDYPcidKavVASht586dT6FgEKgKwQUQegKoV3wuaxpIPtUFG4rxKuvvoalS5eiuKQYs+fMwR23344nnniCV/5vvvUWl7P+9LPPcM455+DGG27AOb85BytWrsBZZ5+NE084gVf5FFZYs2YNzjrrLO4BcMyxP8HCm29hLcIHH3yA0WPH4MNFH2D58uUslKP20OS1+O7771FbW4t1639kvYLb40YSNdzSddx1550sXuzTpw9VYmINAqda9uJGqn0KK/h0E62agSR/C7TKRSgu/BYpI45Dcp8xcOgZ0DQKwfhECi33RLKbVEUQenFK1KkUAgoBhQB10u1+MJnrIATTHDvIYhBFF1Wao/WwyYwFQt3hcqK1uRlr161Damoq//zijDPg8/vw2quvcfz/1ltvxdtvvcWr/5WrVuGUU07hOgXXX3cd/vH443j473/HCSecgDvvupNj81ddeSXvN3vWLDz34ot4/JG/Y+LECSguLmYC8syzz2Lt2rWg5k5EAIiELFm8GD+sW8tiyYamJricLsycPh3VtTWsO6DrDBo8BG2NTVwls7c3ej7cJuDTDeFB8DbCV/I2KivWod+4U+FIHAqHI5n7SBhotTolOhVB6O2JUOdTCCgEFAI2BHpOEIqLMWGSqINQVSEKJZHAjlaZXPBHlsG1isqoPG6rxZBhwJXgQV1VNR5//DF8/dXXOGjiJHy+dCmmTD4EV994A9asWY3fnXc+Dp89B+NHj8bPTz4Z5/7ut6isqsKM6dNRX1OL5atWYcGCU3DWOefgjtv/gs0bN+PSSy/FkOFDce11f8bM6TNw/nnno6GxEU898xReefUVLF++gntlNDU24eabb8IXny9Fm9eHttYWTJs2DatWrsIhkw/B8ccfj1tvvQ0jRo7EMfPm4ZST5yM1JTVqpceefKskQfDrJvdYcLXuRHPRW6irK0buxF/CdOdD09wAZTloLYDpBEx3hFCRnrXd+3R11RWTvgdtXi/KrDRHuwZBhRh68sSoYxUCCoHdgUDPCEJ1tfAgTJqE4m3bUFNVhYLBg0XlvgDFiEO3wDWAzGilcDt6qZtWH53dWPlmdyBuqe9NHXC7XXA3tODHDRvw7vuL0F9zIWdwAabMmI6MtHRUtDVi6YdLoNU3wpGSgmOPORbbflyLFxe9hxG5eRg5bDhWrPseIwuGInfEUDz+2KOYPXk6fnr6KajzebFhwwYUFAzhAlZXX3MtistKWHxI1RSpy2Px9u245JI/4Ls1qzF4yFC0tjRj0qRJeO/d9/Cnq67E/JPn44vPP8fjTzyB3Oxs3LbwNvTr24/NsChn1MlG5QxitNf0VFAWg6n7Aa0VzqZS1G58D3AAmaPmw3RlW90XAzDhBUzyYrhgtaaIaOcc40W7OdemqDcdloHQERZUYMrr9XIlRaqDoAhCN0FXhykEFAJ7BIFeIAjUi4EIQiHHsQsKBnE4gcv82mLVZAQcrJGPrGvf8QudhWhWdb09gs4uuagwMAENSPS4YBSVoaGsEinpWWhcvRZJ+bkwMtJQv/ZH9BkzgkWBjVu2od+oEagrKYNRV4fMCWNRtm49EhITkD5sCMpWfY+krAyk9uuHtmYv+kwYgQZd45U+7VNdW4u7/3YvHB4nDjviCMycNRtulws7a2vwvzdeR8Dvw6xZM/HwIw9zy+5xY8bikksvgVMXxYupZXFmZh/072frH9AVQYgRO6YZms7pi3D44MJOmHVbULl2MfrlDoZnwE8QcGbY+jYKTwGRT6FE2L0bkwFNUAKq3iAidNE1GZTGSv0xyssr4LIIwmYri0F5EHbvvKmrKQQUAvEj0EOCUIXiku2YSAShcCvqdtZyS1tuUmMEbARBkAKHRRHCl5aRhCF0EwZVy7NeyPHf2t56hDBqDoM6Chho8beh6ftNaFq7FQMPmojybYVo8LaiYPwY7Fj+HZL6pCNj2GBsWb4S2UMGIik9AztWfIe88aPR1NKKqq2FGDJpPJpKq5hADD58Dpy5fdFilSqguaDmRm2Unkjtnt1u6E4ne3m8bS3we9vgdGhwuZworyiHaRhITUlBYmKSaLBIaYceN1pbWuFyJ4D6NskKgJ0hzCQxZnmLoI8avHBrNfBXr0Xp2k+QO2g8EnPnwe9I5wwH0YNCNH4UfaN2L0GQHhF6JmWhK/5bB21Kgx4EiyAMs6U5KoKwt34/1bgUAgoBiUAvEIQiTJx4EIoLt6COPQjUi8EBP6ndwzrt6Vwtj9ekYb7njgiCCYNXamLFtl9t1IY54IcWaEO96UNKm4mkVhNITSRpPkxfK8y0FGiNXq4uaKYmwWz1wnBr0BKToNc0IJCaAF1zwFFTByMzDXqLD6hrgpmZDi/hT0aUPDgm4CctiMsFpycBXkqvdDrQ1tpGfAFOHXA4qJU0pV0SaWizVuih7o3U24EqPoLiIu08QB3MTLzFlAwKG7TCY1bDV/0ddqz7HANHT4MnYza8eip7XGgLtrqOCCzsrudDPImCrHDnTY6dRb+6PcRAHoRhw0N1EBRB2F0zpq6jEFAIdBeBXiMIO7Ztxc6aGhQMKmABHImz7Jtm6qLfQJAg2EMLUUgCl90lHcJ+Rg6ElWMPgiNA8XRLyEnCTjY8mjA8APzc0pgW/jobJK4eSKEDcmprgJM6Hlrebfo37UQ0zDR03kGTYR7y6Og6ew7Im0DMwO/zc0FEHQFoGv1QLyZBKMSZrBU6XYPbd1NpYxqeDBN1/MjxKcTOXcoGg7Nr0Mjb4EEtvBUrUbp5OQomHQ6HZyK8WnKQIATPaXkRuvvg9+g4SVYsgtCR1oIIgs+mQVAehB6hrg5WCCgEdjMCvUcQCreioboagwsGQ3e54PW2RSz8NehBY98FObBWacEQw24GZddeToNOLZhBJMEQ/Q2oxDCt3q1VqXDtA80UlgfgMTQ4qRumyJGE33K1S7kc/Z3IBHEFp6HBHdCh02qfhaLU3YCYgA7NqcOgvgzs/idCQJ9QqCOyOqKo8BdO2yKJWixlfazVdheASumqBh/cZj3aipeiomQTBow7HI7kcfBpiUyIJHXRLFLVu9UYujHrRLwiyiUH2RWFkXQiCD6UlZdxaGfoqNHBSorKg9ANvNUhCgGFwG5FoNcIQvGmTdiweg3SUlLhcjrYOAX5gEm/0yqV3NZklMSqWZoYYS6lNlyaASn+2r88CHJNTetlchVwbr8mDLzcJBbkViecHNS8yBbqln+X5pf2ob8xQTA1uAwNLU1NSPQkwKDyyBrHEfiHCYJl/DkERC2TTeoMGf7c0T6hMsD0G82bQS2V6GrRzKLtBHYC2NX80Vk1GDo1a9KQqDcivXUN6hsb4E8eAdMxkHswiE08E6Sq0Pk5Yp/Kbv3CiFHQ/RHRcoK6SNjLJRuaBv6xan9QbYombxsGDR+O4eMncjdHey8GVUlxt0+fuqBCQCEQIwI9JgjbS4owaeJB2L5hA1Z89jkSXC42ZuSIZhEZrfZM6tDnF+TA9IetWMk4BgmCxRrEytWETsRiDxiAGLHr5m7i7jTLuJCC3+SVqPAW0Kf0u/y3Xa1P3gA7KaDfpSmWZpI7IcLA1s2bMTAvH06nkw2WSSEMjcIYFK6waAq76UXJ4kjBH5teijsEtwCcCMBJ8ygCFb220Zh8uou6VyHF0YhcrEaD34Uq/0DAzAQ0N4ddxGh4bx4DkZY9QRDE00lUicgB/TfE7phKEb4WUSDPTZtpYsxBB2PkQZOxacsWRRB67clRJ1IIKAR2JQK9RhAqthaicmshsvv2g4/WhC6X0CKyWI1c6bTqEyQhmBbGq16xgrTHccnzINa5+yFBIEtOmDBBcFi/hwxx1AwBNuSWBqCLqD6FL4iELfnwQ0yfNo3bPTPhYLGiICKhNbfGwkTOOLCTDWpDbc2J3JfmwknGmQkeEYTurtzDvQukmiB9imHqME0NnrYKNG96CYHUfGh9Z8DlzIDT6eHGUgyb1fWRngxJlnblF6Szc/OcWHoRSdY0U+Rj0DipIqap6SirqkJqv/4oGDU2SBBUs6Y9NWvqugoBhUCsCPQaQSjfsgXVhUXol9UXbRrgcwlXa2gRasLBoQYSwoVerNKVbX/R0ipYrLMFQdjfvAjsWGHDIo2l3WiGTx3jxxxLGGRN72RfCzdyv7//7juYM3s2+mRQDQFNEAQLUV4Bkw6CBIccuwg/J+9vucllLIg9OkRp6DjLkxHrQxZxR8F/koFlZ71kh4aJBF8Fmjb+C67+I2FmzYDOHRwd4r55PwcC7AmxvCHdG0TPj+IUXD9MjYo3WXPDYSCNwzwkyOWAiGmitq4eiakZGDpmfLsQg+rm2POpUGdQCCgEdg0C8RMEmy2hyokyxFC2ZSuqCrehf2YWvA4NXhfFaKVb2HKry0C3tVyVa1DpQZCrWGE0QgShO6vV7q5vewpzx+Y74sys8ievQNdxdHtJ35gIAgy8/+7bTBBSUtNsugNaqVv+G/I0SPYhl782v0CA+x7YNzLTIuM05nvsEEzhJ2HNJc81BToMGAEf3N4d8Ba+Ck/OWPgzp0EHdXC0rsiVOCU5IA+MTLvs6azFezyBQE8tZeoIghD0tPCtCa8M/c8ImNzfIjk1HUNHjsOmLaLdc25uXvC+QlqcjsfRNZWM9x7U/goBhYBCoHMEuk8QTKCmuhLbS4oxaeIklG3digryIGRmCcGcUyjlxbs9pFMPFZuhv4tXI/sIbOmM0ghJL0LoFuI3TbtT6d5BOnzUGRBKfPKmdEEQIlIFSdTY0SZlhQ4tgHffeRtz5sxGcqrwINDVHCZ5EiIwZE9GOJ1iGSKLGcMJgp3u9eSLZQ9nCByIIFBWRSscbYUIlLwHd+4E+DKmAGayqA0hnyKLJDA5EDEs4WHpIOgRRCsKY+zoaeqIXIaHE0zWYxBBsG/07JMGgfYVKafgPhiJKakYPnocZzEkJSUhL48IghidnSBEDTHZwj/xfwN6MlPqWIWAQuBARqAHBMFAdUUFdpSVcqnl0q1bUV5cjL59+sAbCIDKzPIC1Xr7idC7zul24a9E8eq3Gyn5EgzlNsgpksEGyzDYZi7aizNciS93bm9Kuqr6Zxfw8cqQjGeI/YRGQVoLHkj4NaIZHL6D4Go8Nn9H2Io/ylMrwgAGnFoAH7z3DmbMmImktD4I8Ko7RNLsPoBQJkDIbAfVHxGhB7okrfRjNVKx7Ee1Ghw64anDDDQCLZsQqPgYruyJaEs/BJqRyG770BMg5z60pg6hbc+8kGGq9iEqwUUFHvYxyvO0nw2xVyjVUjyxQZJnmwsaKgtBrS1gBNDQ1IjE5FSMGDMWGzdvgsfjQX7+QDgczuB+9mt29LyIUatNIaAQUAjsHgS6TRDIQFZXVqJ0Rwk3ayrdVoiykhKhQWhr42qKQcNKmgOOn5PQTLAG+V/hP5BMIvRqDL0I7a9LaQC6IAiyiA7HgTt7pdquR0bKoHGJAkH2VS6bfMslT/+le6P0NfsmCkBZokot3G/RkfkPcok45ppEhR1uNDbTgEvzYfF77wqCkN4XPqYNHbnjLU9GyElu0RsRIgrfumzRFIFJ1zdGBMFJxNFwwTR2wmz6Hqj+Flr2JLSmHATdTGTBX/vOidKcC9IoMA4fsywVbdewhEgZJ5qGR68sT0SYT8fygFEVyXYEIZpQ0/Jq8DNEab26htr6eiSRB2HUSGzYtAlJySnsQRBzGempCWEW/uSLvyuC0PUzpfZQCCgEegeB+AkCu4ID3N5565bN6NevH8ZOGI+ykmJsWLcOaampSE5K5lUhCbVEdT6RRqfrJDYTHoQgUQia8PbBAC4MFNwsuaJ8YUd5VUojQp0khb3QoetilUYrOX7BkjDPqhpo9wxQOiCVEybhXsAMMFngCoZ0rF/UCXBQfQeqNeBy8d/Yvli6Cq426PdbHoTQvbDx2k1vdVrREkHwaH4sef9dTJ82HUl9+sPbqaCPRhge5hBjbk/CeueRCz8LGWxKjNUMNwx/JfwNq+CsXw2t/yFoSpkEh5EkCIKNGLHQ1VZlM8yDYPN62AmC9NhIIyvLQEUW6hRpt2ILzZ3Awv6EdoiOjSDQ80SNshqbm5A/uADDRo7Axi2bsXnzFi5JPmLESDhd7nZkVCKkCMKueOLUORUCCoFYEegWQSBh3cYf1yOzbxb69suSdXnR0tiI1StWom9mH86/p9gxF+MxRK59e4JguWqDa8DwtXaIIIjXceQLu+Ob1LgXhMvtYWNOHg0iKi6Xm2kFvbipyx614qVxetwe6A6d/83CMkuln+BJ+P/tfQt4XFW972/P3jOT96NN2/SRFkqSvl9QoKW2pYDeo+cc8eo56ufVK/eIeOQCRVT0iAp6RM/1KFAUzueD6wWO+ILS8jq1VCxYHqICLbS0SWjTJG3SNs8mmSTz2vf7/9dae++ZzCQzySStsOb7eCTZe+21fmvN/v/+b3Z97Nq1i9skL126jImBP+Dn8fgfKgjlo2ZHfthRys9PNGlPNkGwJEH4XQJBoATFdCzlzBIE06BWzxZMO4Bo+AQGu/6EQO9++CqJIKyESS6Gv0KCQGeTzuBbhw/jgkvWoKy8nL8ncZ/BZcgb6uuwePEymJYotJTaRealx+L/J4lrZvr+0NdpBDQCb2MExkQQyIJABGHqtApUTK8QgXa2jVAohNf+/GdMmzqVBS+n5rG5XuTwm6y9KxeDtCTIKPZkv33ii1D8NBpBUBYEKm9b31CPktJyvPnmQQwODqKmtgaLFi1CX18furu60dffh67OLiYDa9eu5VbVdXV1OHniJKgMbm1tLb+NGxsb8bOf/Yx/XrlyJc5ftYqJzpEjh1FfX8/rWrxkMZeYtmNR7ozoNWmfCYIQMKIggnDRRWtQWD4dEZic4pha6xUEgczhjluF0zAnx4LABMGw4ItbsCNt6D/1IqzQYQRmXoT+giXw2XlZEIREa42yGnjPkmtJYNox7Kvt0KWEP2VvQVAEoaGhAavftQ5lU8rZekY5D0PhIT47ixYuZgLL7a5TvGS0BeFt/ObVS9MI/BUgMAaCYCMWiaK+vg5Tp03DNCII5EaAjdDAAF754x8xfdo0+CVB8JrxyeurhLj6L1ezlymNmeDlmL9T2O1N08fxAW1tJ/Dtb38bHZ1dqK6uYTJw9OhR3Hzzl7BixXL86le/xrPPPYvW48dx1SevwtJlS/HjH/8YLS3HUFNTjebmFlRUVODaa6/Fa6+9ivvuuw+zZs1CTU0N/ul//RPq6utw++23o6pqLrtY3mpowIc//I/4u7/9W5hsCk+KQZgktU+5GARB2MEEgVwMRBCorgFroMNaJLsEQeEvKdyk6KvkhrK4WJKFQLwNPcf3wDfYirzZa9AXqIUPQeEWGsXFkEggXW1b9W3wni1x3oT7SIUTKmEsKkgmn0RVBSJDjZ67XgKRSBj1DQ24aP16lJWXkW+KCSn1KSEyunDRQrcI1CgEQYX2TtJRyuSrqK/RCGgE3uYIZE0Q7HiMTetvvnkA06ZPZ9M7/Y4+/f19eOXll/l3AdKMKD3NqX3gmlFVHIDQ5rydGFIFKbJYE2/tEdLZeCzDkAShDbfc8lWs33gpPnnVVehob8evfv1rHG1sxOYbb8Rvd+7Erqefxj333MOa2xNPPIG9+/bh5ptvRmlpKdpaW/GVW76CK99/JS6/4nL88If3cMrg6tUXMhHafMNmvO9978MHP/QhRCMRPLptG7Y+8gh+8IO7UU6CIClIcfLOkApSjLMF4cKLLmYLQtSW5ZaloyaBJLATPlWqpcB8ogUSkxHqGGlYyLPb0NPyLBDuQsHstegP1MAwAk4siENgkmIQFDkQcQnD0WaLjqd+g6RKnB3hvdwbf+COqQpaZYaEkxtBhamiUdTV1+PCdZegfGqF6IUBG+FwhL8/REx9pl+43rQFYfK+JvpJGgGNQEYIZE0QaNRoNILX9+3DrNmzMKNyJkAEwRAuhr+8/DKmTikH+e9VcKLQXA1hKWBNVlgSRL8F2e44SeuWtEAsQvKG0cz1qqdAW1sbttx9N/7+/Vdi7dpLkJeXh9deew0PPvggPvOZz2Dnrqf5Jf3Fz38e/aEQWwPmVlXh4x//OPLy8zEQGsAdW+5EsLAQV3/if+IHP/whLr30Uqxfvx779u7FjV/8Au7Zcjdmz5qFoqIitLe341Of+hS++c1vYMnSxcMsCBntRE4uElUOA0Ycu5ggkAVhhkxzFDCKEtZe47W0IHh+pwQoSdtsajuMdQmKQxajFT3NzyEWGUDRnHUIWecCPisjgqCqOaRrD+4IYIcoSFHugULVOUhGRyVMZrI+4YxQFoQIu6jOX3sJyioqRCtvcjEMDeHAgQNYtmyZDFLUMQiZYKuv0QhoBCYXgewJgnzTdrSf4kAretlVV1ejvf0km9qnTZuOyhnThcdbNWuSqj97WimljSvNydcu1Q5wcspHXvxoBCEm2xszQdhyN678wAdYixYWjzfxswfux1e+9GXsfnY3+vv6cc0113DswR133MEuhauvvppz1E+ePMkuB3IrfOxjH8OWLVuYIKxevZo1whs/fxP+/d/+D1ZfcAEi0Shf/+nPXIPvfuc7qF1QkzFBGK3+QvZHQRAEPxOEHQ5BIISVjSAdQSDNVpGyyScI4tllZhu6GndzsGjZ3I3oN+dwx0QKIPV+krMYFItUcRQj4eaNQWBRnoYgJIbLZh6P4SUIBGl7ZwdaT57EnKoqzJxThbeONiI0OIAFtQswa9YcSRpSBx/qGITsvwH6Do2ARiB3CGRPEJQUseM41X4Kh+sbsGTpIrQeb8WxYy2onNN8kpgAACAASURBVFHJ7Z6TCQJnMTilaWQRJdWQif8mCgel+ihBOhpBoHspNbGlpQVf//rX8XfsIng3p1v+4pe/RMuxY7jpxhuxc+dODlb8yEc+woFj27dvxwvP78HXvvY1VFRMw/Hjx3HTTZ/D5s2b2a1wx113YePGDVi1fAW6e3pw81f+BVdcuglXXfVJ9Pb24dlnd+OBBx/Evffcg9KykowJQu62UY2USBAuungtCsqmIcYEQdgNxP95P4I6TDxBSLO5cirEJUvNE+hqfA7hSARlc9cj5JuVHUHw+hHSgeuxIIxEEBJvT00QUq1IuLpETQ3KcKGGTd29vVzy+rzaWhx66y2UlJWgqqoKhkGdIIkpawtC7r8LekSNgEZgvAiMjSDwU210dLSjpekoli9fxv9tbmrmAjCU5UBueC4uxD0HhDWBmwOp8rg8hhBOwumQgiCwlUHGHlA8gydHPe3737aZINx6660wTAurVp2PSCSC/fv349Of/jSWLV+G3b/fzQThox/9KA/T3NyE7995Jwry87FgQS32vrYXpWWlHGtALoTfPPIwXn31VVyyZg02bNyA/W/sxwMPPMAWhZ6eHhw8eBAf/siHsWnTZaBAyeQgxXRznTgLgs0uhosuXoMSikHgBtsq9DBZrImf4zJuQmjYQiC62vbYjpkboMrUbuRBbAOFvg50HfszhsIRTJmzGoPGNG4Bndx/goikyI1Jrp0xvJCTENiC1brFlhwbyTDff+rS3MMJglpN8qqUBYEJQjzO9Td6entRUkbNmqiS4lvci4GsUwIVUZlTxyCM7YzpuzQCGoGJQ2AcBAHo7GzH8eYmDrZqbmriSoqUIshFhFSKo2oKxARBBRsqjUmZtVPUO5SxCcIqIAoUOUGKnrey89KXWhjVODja1IR7fngPLr/iChg+k03Wc+fOxeLFixGNRUEuiEg4jJraWm6WNDgwgM7OTvYLU0okuRsWLV6EwsIimKbBMQZEMPLz8rFkyWIek0jFkSNH2GJRNWcOqmsooM6HYNDPgZJMoWSBqAQhon5HDYo4+yN3HxHTEYcfNnbu+C9O3ywpo94YbuPs5CA+N3pfzCWZIPDvRpHtKVfAUtxLDEYahOJTDATRi4HuRsTicQRL5yGMIo5BSJSeXpaYwcSomiEvYrgIThd2OHzUVFe6LcoTXQEitkEs3ea1UKnlwpISzF+4iEstFxYWOgRBFOT0kpfU50HNILNQydydKT2SRkAj8M5FYHwEoYMIwlEsXb4czUcb0XrsGGZVViIWlfqqjEFwLQiq+r2qpMhiVAogaftluSLrJ8TjrPVFYzHs3r0bWx/ZioHBAdnFz900egnbsnARZSH8zXvfi+eefQ7/4xOfwLJly90LDWrDK54pLLsiFoIrL8qf1cVKuxfGD1Hoyfu35CNDf37sscexe/fv2WJBEexEVvgub2qhHGbhwoX4whe/kNOTRwSBKilaNrBzx1NYt+4SlJaVi0ZIbCUw2JLgFWhup2VF1lwLgkMYJGQZT5YZRfI/6e6W2nyc2iSHAerHAAMxXz4i8QCMhPgDpclnIyZF+excf/h8MN+Vg6tnyBRKRQ7pbPUPDiCvsBDnLlgoCQKVWpYWBLaGaIKQ6/3R42kENALjR2DcBOFY81HuxdBCzZrYglCJeFSkPapCSexjZVeDlDTDcvG9Mpy0L3prCqFPr0+qNjc4OMT+ftLYSYNXaiVdS5q4+q8Q+gZ+98wzOP+C1Tj33PkJKHFwpGM7T2/69tb+Fy2Z039UEyWyVFCRJiIsRBBUtcXkO8nVQtUYS0pKUvQYGPumKoJAmSG7du7AujVrUVpaApv6TEhyQN0GXY2cqkYKUc4VL5MsCO7PWc5Jpk4KCwmRPBo7nZSWE+KUQ7HvwoEg+kcMv0v1lBDnxEvcUs1SPFt8hvdzyHJd3svlObOJcXonyetw50ZPHxgcRCC/AOfU1AiCUFQ8jCCMNkdtQRjHXulbNQIagTEhME6CcArHmpuwbOVK0c3xeCtmTJ8uBDu9vIeZ0DMxqYuqi6zzOjUUZEKEI8ikCXfYS1+8RklokICmjpKm5ZfAqGcLqwF8qvNiatzcbo1SwKQJJFPP4xnLuAv+HbcoHtkEnlOBJeM4iBxYho3dv9uFtRddiLIy6uYYR5Ty8mVzYu+8bGoB7Rg5ZMqpFHKO0OIFZXG+JAGzSPs3iLwJS1CqD3NBIgMxOi/ScpSOQMpOmhTcp8zyql9G+tlNjAWBCancYQ7wlByIUhxVQTCOnTAM9A8MIK+gEPMUQeBmTYkWBE0Qsjhf+lKNgEZgUhDIHUFobERbSwsTBMu0uFaCW1pZ+ePJ5K5aLaYXzEKYUIVFr9tBmMZJ02UxJm3jdCnFKFAjJbqP4xw8Bm4R/igsBfxSt2X/BIrtH8X0LJ4jxICo2zCC11rWdyBhK67NTqbmYrfpmeRiiA6E8Pwf/oALVq1A+ZSpDBW5F+LSkqDcCtJNzlgKq42rDAvdfay2ecKaelVIh4aTpajIlme1TlVDQfrEFenYiGs9cIiZGlLdkjxljkGQLq0c+Brc4Q22zIgOj24RLw7w5PYjolcHrak31I/C4mKcU7sgrYtBE4RcfAP0GBoBjUAuEcgZQWiqr0fdgQOYViHKLFOgourkKF+hsmdDoj9/2GK4mAzr47LFsrpCShkpiBOFV2pxLJInlZyTJIFaOnNaJaX7jWTREG2XRGmbkZtGs7BiueBmC4ymcLtth3O3nVTjgBLnAqaJF/c8x70jqEgUCTGOP2A3gyt+lcdH8CePKZ7WPZ4qio4/XlpRHKkqXTr8s8SeHyvJAQlWB45UCIpEWc6GEQzB2V7lxfDeJWQ3tVwWTov0dCf5L6PunjihhjUspkOUSRItnOn8k4XjdH8/ZsyaiYUrVmqCkLvjrkfSCGgEJhiBnBGExoMH8cyuXTB9pmjzTAF60ndvUOtkm6z6cRZgI0bFkzAjU7jPRpwaCDnvbq9GqzRJLzrJL3VxvfNb0lR9Bqg5kB2PUkvHFH0J3PHYikH57DRZ9h2MsBP8KDJlmCCftOp7kO4OutyyDfhdldm5lIW550ZaqSrmM7o+LwSwGbBwovUYpkyZwmtmPDmozkDUkwRgsg9fUC0y73v93FwN0LNmR+aPciDFdRJ3L/iS9AkzBYtPSVVkHQDCmgQrSfM0YDMWoGBGH0ybUmbFZMjYz2WSueGUquigsl5ojeIsjubyyfy7Js6Wz7ZgwI2HEXMRZIxcN/ShANtgQT5WrL4Ai84/H3WcxaBdDJljra/UCGgEzhQCOSMIbUePorWlBbPnzJFC2CPmmCAQMaCwMyeJYNiapTIpqsv5bBa2bpCZlyBkYP7mwZIKBSuN0445JZ4TMgy8M5KWDKV5jkhqpK+ZzfiqC+II0pym5iNMYioob+TtJ6EYY9fKsBUl3SgFb8CPXU8+jovXvwulxcWSZAmCQEGK7AZhd4TMGOE9cV0/Tj8BJfGyPp1qf7z7JK0HTBCIcAlbhpDxspATBZ9yfEGKBxOPYJJpU/gIjLiHILA5RrivbK7nIItBeS0XY8rVTL1wJ+vAplbNiQRBJoo6ab4xO47uvl7A78c5ixZpgpD1WdI3aAQ0AmcKgZwRBApS7Gxvx3nV1bB8JuIxComTr3qZtsgWAdLxWFCnk6C2iF0gfVL5j3mYLAkCy5jhnQTEKHFhQRjJLOAIeqllj5B5IeoKyVoDlGWRga+bBD7HUySNS0JbiUgHP4/mn6oZkbqOuzkiDisex5Pbt3NRp7LSMpmOJ8Qm10SQwpbdJ/L5XgsCBwCOx8Ughb7YM9faI2ARBIEsTGKLKJDR5HoHtkk1D5JXL1enkgXiRGwMJjfOunkfqR9IFLYdhc2OFEF6eHkym0IsdTT3QWZfRUG2aK5ifSrdkYlXXLSSprNumhZaTrQibvgwb4GOQcgMXX2VRkAjcDYgkDOCcPzIEfR193BBIh9p1KpAklROSb+LkmBIUf/OCwS/YNlwK/zp9I8InhsDQfAEM7JoIIIihXLcjnLAYjphzlq0Cnhk83R60SL4gaqIpxpRpd9eGitqEB4eDV5eTiLHK/yEyRpsQUjuNpj8BJqHn5o1xeN4YuujuHTTpSgvLZVm70SCIAQo/S7OY6dK1Rv7AVV7RW4KD0Hw+eCTBGAoHEYwEISPWiAbJjeUitgGIrK+kpdj8fRkeioRFxK+5HaJc7dQwDJZQUc8NgBQLQUj5lhEmOhQdoRMhR37mpJOKe2JjG3gv0i+S/Ni94c8ExSDcKytlV0n541QB8EhO2nIpdf9k5s16FE0AhoBjcDICOSOIBw+gv7TvaiaW8W+fdYdSTuUgpUJAgkj2cNppGnRXWy8JQGeYGvw/uRaB5RiOtpmCwO8EPVRblGdKm7BHUWUeRaavohWT/1xhAFr3SQER7hY+aklSSCSkkyQvLNS/89xHaMtUBKEoB3HYw8/jMsu24Ty8nKxYnYtuBYE774QEqKin/cz3j6OHpIgd5HSE02yFBg+DISGGFd6dsy2EIWJqG0iQm4XlXfiJS6yEyiHKcosERHnYjNBKMg3ETAjsHxRmOSDkNYDvj4m6nAIu9XIe5MBxDw7GoUsYhwEmeYc0Z4R7m0nTvJRq9EEITN49VUaAY3AWYHAOAmC7MWwciXIghDq6+cmNBy9TQQhIeVQCAN6qY4m6ISpnCwJyZHnXj0qkxd9ktSTQkKlOw43NieOqeQ8uwI4uC+9eVqsVfSaGJUgyHmwPSVpSJFxkHg2xMjejIwUZ0eazy2upBjD448QQbgMU8rLpeWByIFPBCvK21U3Aw7fS5iIEu6ZYDzSOXbTUckEb/j8MEw/Wwv6Q4OIRKKIUjyBGUAk7kPE9vHPnHagem+oHh5M1GQcAqWz+mwuoU0AEkEoyrdQGIgh4IvApPgVFQxL+0FWjNx4FnixnH4rB2TLhoSA/ktWKj7fHOPqY1zbTp7k+Inq2vSVFBWK6S1a4orx7shZ8dbRk9AIaAT+KhDIAUFownIiCI2NgiDMreLSxSIhzVXS+cWZgZlcoKa6O46k4XtflVJ0e34lYtISHQPOn709EviX/GqXHSjdN75KcOSh+LoRqA1flCq7Iv05EEI5cY0pXRlyjiPJOEdfZ3IVw2NbH8bll13mWBCUGZ8j7D1Togh/YVfx/jY3BMHbSpkBJHJgBhHxWejpH0Q4TCWpY4jZRAUtThukPBcuMGQbGBwa5BoXlmVyE6xohOIMBEL5wQAGQv0cyxDw+1CSb6HIH0PQF4ZFxZnk3hu2oJrqXOXqW8kISci8BEHQSPF0mje1IG87eYJJz3xdByFX8OtxNAIagUlAYFwEoaOdLAjNWLFyJY41NvILmy0I3IshkSBwOACHj2WWbJb88h0Zi+R8e6ltpRDAqmukt7SwW6xf5tdL+Ui3K0eECA4Uwonb+Y4YaJnhzmWo1XoLG6Ub2RHpRBDsKLZtfcQlCE6NBvL3J+qggiDIoD5n8PHrqV4ByshxGmgAUX8QYTOAztP9OH26F81Nx7B9+xP47x/6CCpnz+X2znl5fgyEQti7dz/+8sor+Id/+EeUlBTLlh5xdHZ04OWXXkIsNoT3vOc9KC4IorTAQrE/ijyEYcpMBmGeEZEsigRmuDMZXZbujCpnkGVZnObYduIEYPpwbo0OUswIWH2RRkAjcFYgkDOC0MIEIYS5c+Zwk6JU7ZtVgGKGcjEjgJQoS+W4EOVqpE+bTdEmohHqNCkK2Kh76f9J0yNtlX3agQD/jQMDKV6BqgJKEzy5T/x+iwPkzsYPF4Gyo9j+qIcgsI2Aijj53eZCSqeWFoRcr8VLEIR7xoBhEUHIx5DpR0d3H3b89mk8v+cF/OXFF3Hd576Mi9dtBAyLXQdP79qF1/e9jrcaGnD77d9G5cwZLOOp6+bjjz+GxoYGBH02Nn/xi5hSVoSyAgslVgR5xhBbUJxy35xCaeV6eTxeqsxJQdSEpYkJQjQqLAimhXNranWhpAnZCT2oRkAjMBEI5IwgNDc2YjAU4tbHZPY9qwiCTCkM9ffjjddfRygUwtIlS1BcWISOjk4WPAF/AG+8cQDFxUW4aM0a5AWDiMSi6A2F0HSsBfUNok3v/Pnzce4553DHxrPxowjCNkkQOAZBOm0mkyAQNsrFkEwQyILQ3tWL3zyyFYUFRXhu126s3XAZ3nXp5bANP+/Pnj17MGf2bDz00EO44YYbuHcBBXSeOtmG/fvfREV5GXY8th3X3nQjppaVoKzARKkVQdAY5FRPm4JQOdZDEYTxW0WS9zuRIAjCqAnC2fit0HPSCGgExoLA+AlCczOWr1iJlqONGOgPoapqDmzZzdEbB0+vT9FHwWmjMJb5JtzjVtKjN7Ongp5TUEiUVaZPR0cHHrj/fg4gpOC4grw8fOaf/xlPPP449vxhD6qq5rK29+ahQ/jQBz+ID1x5JTq7u/HzX/4CDYcPo3JmJXr7+tDf34/rrrsOs2fNGvf8J2IAziAhF8MwC4Lw8zvtiR0LAtdZnIipOBYaR3RaAcT8+YiYFk519aKjo4stC/fe+QOsuPASrLv0Cg5kNH0+DA6FmSj8+3e/i+tvuAGVlZWyt0MceUETh+sPY/vDv8HV112HsuJClyBgCCYVTaLaB5TaSHRBNnfK9SJdguCGfQqCICxXrgXhJGCa2oKQ6w3Q42kENAITikBuCMLKlSALAhGEuVXSxeBJrVevT5UNkNMVUd58igwDpclx+GHcxv79+7Hlrrvw5S99CaUlJTh06BA2bNiA//zPn+OXDz2E73//Dpw7/zw8+eQTeOWVV3DbrbfitX378PVv3IZbvvZVLF22DENDQ/jRj36EgYEB3HbbbWdlRLlomRzFo49uxeWbZJAiK88UN5HKxZB7gqD221s0WbkYYv4gE4SOrtMYGBpCOBzDnd+7CysuWIt1Gy4HDD934aQPuRO+/73v4YbNmzF92jS2IHDgXySCI2814LfbH8XVN2xGWXEBuxjYgoBBD0HgUkWSIOT01LmDJXmaZLks/jsRBHK3uTEI2sUwQbugh9UIaAQmAIFxE4TmZhGkSASBND6KQWAXg9uI0Zk2BSjSJ9fe+2FWCfls0W5JtJ1ua23DXVu2ID8vD0sXL8aqlStxzrx5+PnPH8LuZ3fjvp/eh8KiIu6C+PDDv2G/9+NPPYmt27fh/z3wAOVsMtF47LHHcO+992LHU0/JvPoJ2JVxDUkEIcYEYZNMcxTDUUQGtb5OFaQ4WuJpdhNS++vGh9D9FIPgR8wfQMQ00dl1Gn39/RgciuLu723Bqos3YN3GKxCHn+sc0BidnR248847sXnzZlRWzmALAn/iNg7tfwO7/utJXLOZCIKwIFAMQhBDsFJaELJbQ3ZXywYXMpCVSoq7BCGKVg5SNHFebY10VeleDNnhq6/WCGgEzgQCOSMITTJIMV0MArsYnOSz3C6Vx05yMdOP1P+Bw+OoIE80hqamJvzp5ZdxYP9+9IVC+OqX/wXPPPMMWwy+851vc9zBCy+8iF//+lf41re+hSeefAqPPv4Y7n/wAS7lR3EH27Ztw49/eh92PvUkYhTsmEFZ5dyudrTRRHMiIghUB4EKJSmCACYIiQWQqDTxiOmboz0uxd8V3UhFEOKWH1HLREdnjyQIEdz9/bux6uKNWLfx3YIgMBlTBOEObL7xRocgcPZIHDj4xht45rc7cM3m612C4I8iaBNBiEoXg4pBoB4PuY9BcJaewHiJlIqoD2VBaD3RpgnCGM6RvkUjoBE4swjkjiCoGISkLAavkJgogsDteTzvfzeLX8Yg2Danxh090oja2lrWTL/5rdvxuetvQF1dHV5/fR++eds3YJom/vLnP+MXv/gFvn7brXjxpT/iu3fdibvvuhM1tbXoPn0a//e++9DV1YVv/eu/IhIOIxAIiLbWZ81HEoRtW3GZdDFMNkFQuSPs3pG4cKEkqoNAfTqIIHSdRntnJ3ymH3d8725cuHYjVq9ZD9MqgGlZGBocwqn2dvzHvffgs5/9LCoqpiIQDHAWSngojKNvvYWdTz2Bj151FWbNqMCsqYUoCcQRsAdBTZg5SJGKLXHIYpr+DhOyZ4ogqDoIMWiCMCFA60E1AhqBCUZgbATBE/inXAxNZ5AgDLMgeFwMrIraNlpbjuEnP/kJqs87D1OnTsHzLzyPr91yC154/gXsP3AAN930efZv7331VezYsQPX/u9r0RcawE/vvx89XV1YtHgJLL+FF198Eddffz0TjYH+fk6X9FFzKSruc4Y/jgOHLAhZEoRcKtiOQi0bRAoXkCiUFCWnD8Ug9PTitzt3oqu7FzuefBpV8xdg3nm1eNeGyxAIBNmyQ0Ts+eefx7p16zCzshJXvHsTmpuP4/W9+3CqrRUH9r2KVWvWYcXShbj8XReivNCPPHsIph0Wrca59KIMzpyMvZFFnFSRLlEoKcZpjtSUSrsYJmMT9DM0AhqBXCGQPUHwlOTt6GhHc3MLxyBkShBo4hMRg+BtOOQWsBHtlA3KqojGcOjgIbz0pz+i+py5OK+mBjNmz8HRQwcRMy3MnjUTluHDYCyGo/V1qK2uQWF5OY4fb8XBunq8tn8/zquqwqLFizB/4UJEhwaRX1iI6FDYKambclOke3q8GzZSh0hVJpmCQAVNyd7FkEkHSho5ExrkEgRVz1DUQbB9JiKyHkJHTx9+9/vdaD7Wit6+QZhWHvx5BXj3e/4bBoci+MOePRgIDXAFRbLSlJWVYe3atWhra2OCMDgQEr0cYlGsXLoQm9ZdjLJ8P4JxsiBERCMuJijULZI6e4hPrs9ewr4mEwTTx7U0yIJABKl6Qa2OQRjvF0HfrxHQCEwaAuMiCO1USbHFQxCoDsLsxEJJXoGi0hwnYnWiS6MrAoQgEM2e8qi7c98A2g42AOEhdPZ0orykmIsjkaAvKStH7+nTXAGyfFoFutvbQT2DiktL0XO6F768fJh+P3p7elBYWoJoQRCzquejaGoZzHhi2+ZkAZSrtM7RBLjqUkkSkEL8tskYBKqDID6ERKKpXbgCZHRIBiYEjl7IUMIqa4Z7uYGYj/otmIAV5EqKQ+Eo4DMRIw+Nz4+BoQisgJ9/T+vlZkfOAw3RiTMeZ63cNAxupUyWm9KCAIoCJopMIBCnQknU9lmtTrSBFMW7PS6P5EOYCfPx3sPDi/Pl+ZeT4shP9Pm4oFbbqVNcQbR6oSYIE/Hd12NqBDQCE4NA9gSB37KiuQ/VFmhuacaKFSvBQYoDA24lxaQOwuK2DKVLFmsVgeOSHHDeuyqITB0YhVgoiBsw4wa6Gptg9PWhsLICJ1uaEbRtFFfNwcn6BiYDwYoKtO7fj8pz5iFeWobOugbMqK5G92AYPceP49yly9ByrAVDkUFULV0En2W6PSe8nR+ksFFzUYJJlUzOYnnOpZkEQ4oAPrHmbY9uw2WbNnGzJtlqIvGx0rKhdiQ5iiJ5rty4MEMLgnoQF8DmssdCk48bRBAs2GYeekNhRGJxtr7E4jYGIjH+mZZAc0olr/n3qlUGeY6oerMB5AcslAYtFFtEEKgvpOjyyM+VmQX8kxx02FrHUJtDNnJ0+zE4E3N3nUmdDbSdakfUjqF60QJtQRjL4df3aAQ0AmcEgewJAgtjqlRno6OzE83NTexiaDxyBIMDg5g3dy5i0Si/OBMKJU0AOVDvfDYls2QRxEVprzHS8HyAZRsIUpwAzdsXh0nt/4w4hiJDXH6Zgg0tvx9+y+L/t6nroAHWZM1AENFYnHPpLdOSfm0bwUAQsXCEXRf8och7Tz6AIybSCKVsdzs5xsERgEQIfIYTMU/7Qrhv3/qoyGIoK5OabJy1cld4y/oRqoR00oTSEQSPnB1lCVSmWkTzC4JgIO6j8EE/YOUhGqcKhzQnUUArwgGFNmvc6WikmL8cj71HNpOLgGmgJM8PfyQKKxaBj8pHq3PAba4Tm3mlIkNZU1cqae1t2OSaEvjZ3JtKlu4mC0IkHkPNooWoa6hHUVExZs2aqTp7JDY0T2PJUTuXraEj23Omr9cIaAQ0AgqBrAiCIAbUn9fgSPK2tlacPHUK5686H81NTWjv6MC58+ax0OUUw6zfutlvjNJsWQhJkqDM7CwW+AIfbA4ijMM0bAQCFnyGjejQAPdd4OZSHGxoIBqJwPAHuC8DrdG2DW5BbBs+0ashTmZlGwHLD5s0XtKCpSmc/MzeYlAJFoTxxCLQEjzCUQhc98ONsQzynoS5GiSldT75+BPYuH49ysrLkZcX5K6JeXl5CQC7LgaZ6OiRPqm2TqSOZrpHLkEQ4tngRkzcOMkMwCD3AAd30r7FEY2GZTaIa3pKFIbCfqEeT+KZ528b3I6JEjjNeBxmPMZEUF1IRIfbansGc2jLKOsdcaV8tEScgzp7tEfJ/wwMDOJ4WxusYAC1Sxajrr6Or6emZsFgkF0sXCNCEgPd7jnT86Wv0whoBCYagawIgtDQyQccx5HDh9HV3YWKimmYPXs2erq7OYDMjsU4DoGKJXlf8ELBEn7kXH6kBTnBis7edn5Zs2TlFMiYAVhkno7FQK2nqXWRERemaO47KSdL/y8cFT4mBSRrYiRdTCIHQjRTKWDSXoU93JYZDAaTDF5jCsEjqj2O/lHr8V5Jc4zHooJ8SPyEIPIJgeQTNRqONjailC0GJg7X1aFq3jwE/X4EAwHMmD6DLQmcbigkGgfycbvleCyB2CQTEDWXVP01Uq1ICbm4Y+on4AhjEuWiJTYFLIqZSLsLF0EispXWfiABpP0UMQXiSoNH5MJcpNXHVaCmFNzs5ki0SvA2Zrgf6dZHZNICkUZXuIsYCbJqiHNF6a8tx44hHI1hxqyZmFk1B20n2rgeR0lJCapragQ5ICxoHA9RSH6utiCM/t3RV2gENAK5RSA7giB0JcRjcTQ0NGDK1CmYMmUqCx4SOH29vVxHwOKXP2DR76UIYEGWeYxb1qtUR3yR5QAAB4ZJREFUhmwVqCg0XVeg0o+kv9KMIiYQiQ6xoCdrBwlKKqQkSvwKywen5XFbZyFUldjxvqgTqkWyWVkIC6/lIOuFJN9ABIRIDlluHPeJ66N3/PUG0N3djff+/fsRj0a5pgORtK6ubrzy8h9RPmUKW0ocUcnL9GYZCEvLiB/HQjM61RFjC+GvLAg+gwQhkRoiUrIFMwf6iWwT6YhIc0oE8qI2JpEw9TMRA3G26N9qT7wkRxCExDmPvoIMdo5JoktEJO8Q5wDkogpzMah16zegrGKq404ZGgrjUN1BLFq0kHHgVFn+rrhkQxOEDPDXl2gENAITisAYCAJY8FAb3ikVUzF1aoV8QxJxiKGvrw8BPzXcMTlFzTGZSoHrjfge/8o8bgxZ3tbRsFMOLoQ4WbmVgEiy3Lt3STZDMsAjB/jvCQF7ckhFDsa/pqQRlMWF5yFIghBEUpgonzVprtEIrIJ8MYD8/VBoAHY0imBhodwnEQhIjYx4zkSKsnFse9w4KdeqNPMUQXty1h6fu4cy8rjS+D+alSlZnWaTDT1Y/jdhYoquSXeT87dsFp1KXEuSkiJmgFdFGTKRMBPPYGGBSz4BDA4Oor7+EGoXLHQIk2MN0jEIOf8K6QE1AhqBsSGQPUGQptOG+npMqahAxTQPQYjboJbKpL2yNp78DnZU6xzFJwi/RXL14AyRGE2HdDXUDAfMSs5mOuYwWedJ++O/KWEPm9ttFxYXc8AlTGENCJ3uRSg0gKKiQhgcnKkkeGIUw6jzUbI8G7nKhIbrXLqkgIW40JaF20E+eRTjRer5Je9hqsm5UQvDx8hmMalIwsiokaVtaGgQRYWFYk8kGxUEoQ4LFpIFQViquNiWtEClGlW7GEY9ofoCjYBGIMcIjJ0gNNSze6Fi+jRnSv19fXh9714uh5v4QlPBW+JS5W4Yz1qUK4HlIwUX2ipmXmnYQtP3foYHgqUnCcKUTSWHKNhO1QtITPVzxpcmZfJLq3gGFn+e4TOVf8k6sFDYZXaGJwaBBAvHWUhLAhUMIiJw+XveDZ/fctwRPV3deOmll1BWVsr1A5hTqKwPriXgY5fQiB+VMshxCypTJH2sAMtBFnY0qnQhOE4Ag10CitU54pstJG4GykjzoR0Ru6IYkjhtvrTJkamcPnKvxngIeZ+lC21Ynwfp3qK24qd7enDxmjVMpFUmiiIIC6WLQXwnNEEY41bo2zQCGoEJQiB7gsACJg6yIITDERQq0zUoin4I/f39WHn+KnD1mzQCOqdrkWlsSk91ZMQIefuuzzd9bQYWKQaYeFDRJCW6vAJ8GAHxJqwlPd+t7jj66ofptd4Id1XSOQlbcu/s3LEDS5Yt5yA5aolMYpQCSktLS1A5c6YkZ+T/TzGH0Qwq6haPVyDtShLG9wrnVC6ApFEymIcbT5B4sQy/TLM4N+XSpXljtSDQc8VavERVjObt7Ai89uqrCAYDKCgscL4OFE/S39/H/T0sf0BaDgSF1FkMo38/9BUaAY3A5CCQHUFgDU9Uswv1h3D69GmEwyI9jVwKJMeKi4oxZepUz+zH+hLOAgDpfk5lcB7r05VYc4iHCrZM8qAPG9/jP08gE0rZzWJZzqWOPz/NzaR9RyNoP9WOCFkS+kNsLWAxZgDzq6sR8AfSCM4sEZI5/iN2R1SFqwyRFpvIKZQFQYpT6Qpx15oNQJm4GBTwmV6bwfPlHhPG8ZjIBhEfUf2RgzA5QBbo7e1FV1cnu1pitgiEpXRTymLIy8+XqZ6U7kmBMSIgNdVHuxgy2Bd9iUZAI5BTBLIjCPyuFaVuhQ5lcFEk1uhswB8IiFa9MUEYpErkTjgD7TDr1XnenKmGz1L8JTye3RfeComu51yKg9Hj+7J+fnrL/YjQDPSHkBcMCLcIuRLkOLQ3gWBe+olmuydqQSPd5yxaadojTF2Nk8m4apiE8b0DpEM7RbfNbNftXYLzSFHGedhHPo5TaH1gS1ssFhEFxohE+Hzw+y1YVEuD0mq9pFIThKxfAfoGjYBGYGIQyJ4gSBcDkQN+4UmftJOXL1MeU6tBWYvLLFadvgJfFoMMIwjMiVIMkIGxfEyPTVsGQI02UtdISrcgguZpP821Gc62Twa84Wyb8rD5ZEIwlLVFkjZBBMTiKZCX9iaTYejZ2oJw1p8IPUGNwNsOgTERhEQpKl9x/AYjW7/M+0uVqpZGO8oFqrmnB2JWY1Toc7GkNBxrIknWhE37HT+wUxpbuhFUvYyRzpgXNE0Q3vFHSAOgEZh0BMZPENSUMwlem6jlaZk5UcjqcScQAUU+M7EiaIIwgRuhh9YIaARSK6S21wH61wqSJgh/rTv3jp63Jgjv6O3Xi9cInPUI5M6CcCaXqgnCmURfP3uMCGiCMEbg9G0aAY3ApCDw9iAIBJUmCZNyYPRDcotAJu4Frxcvt0/Xo2kENAIagfQIvH0IQqa7rIlEpkjp6zQCGgGNgEbgHYyAJgjv4M3XS9cIaAQ0AhoBjUA6BDRB0GdDI6AR0AhoBDQCGoFhCGiCoA+FRkAjoBHQCGgENAIpCIKq4KLB0QhoBDQCGgGNgEZAIyAR+P/yFimLwk+THwAAAABJRU5ErkJggg==;" vertex="1" parent="1">
                    <mxGeometry x="460" y="20" width="520" height="395" as="geometry"/>
                </mxCell>
                <mxCell id="4" value="以上是左侧代码的原型链查找图" style="text;html=1;align=center;verticalAlign=middle;resizable=0;points=[];autosize=1;strokeColor=none;fillColor=none;" vertex="1" parent="1">
                    <mxGeometry x="590" y="430" width="180" height="20" as="geometry"/>
                </mxCell>
                <mxCell id="5" value="&lt;font style=&quot;font-size: 18px&quot;&gt;studying函数在p对象上的原因是&lt;br&gt;&lt;/font&gt;&lt;span style=&quot;font-family: &amp;#34;consolas&amp;#34; , &amp;#34;courier new&amp;#34; , monospace ; font-size: 16px ; color: rgb(86 , 156 , 214)&quot;&gt;var&lt;/span&gt;&lt;span style=&quot;background-color: rgb(30 , 30 , 30) ; color: rgb(212 , 212 , 212) ; font-family: &amp;#34;consolas&amp;#34; , &amp;#34;courier new&amp;#34; , monospace ; font-size: 16px&quot;&gt;&amp;nbsp;&lt;/span&gt;&lt;span style=&quot;font-family: &amp;#34;consolas&amp;#34; , &amp;#34;courier new&amp;#34; , monospace ; font-size: 16px ; color: rgb(156 , 220 , 254)&quot;&gt;p&lt;/span&gt;&lt;span style=&quot;background-color: rgb(30 , 30 , 30) ; color: rgb(212 , 212 , 212) ; font-family: &amp;#34;consolas&amp;#34; , &amp;#34;courier new&amp;#34; , monospace ; font-size: 16px&quot;&gt;&amp;nbsp;&lt;/span&gt;&lt;span style=&quot;background-color: rgb(30 , 30 , 30) ; color: rgb(212 , 212 , 212) ; font-family: &amp;#34;consolas&amp;#34; , &amp;#34;courier new&amp;#34; , monospace ; font-size: 16px&quot;&gt;=&lt;/span&gt;&lt;span style=&quot;background-color: rgb(30 , 30 , 30) ; color: rgb(212 , 212 , 212) ; font-family: &amp;#34;consolas&amp;#34; , &amp;#34;courier new&amp;#34; , monospace ; font-size: 16px&quot;&gt;&amp;nbsp;&lt;/span&gt;&lt;span style=&quot;font-family: &amp;#34;consolas&amp;#34; , &amp;#34;courier new&amp;#34; , monospace ; font-size: 16px ; color: rgb(86 , 156 , 214)&quot;&gt;new&lt;/span&gt;&lt;span style=&quot;background-color: rgb(30 , 30 , 30) ; color: rgb(212 , 212 , 212) ; font-family: &amp;#34;consolas&amp;#34; , &amp;#34;courier new&amp;#34; , monospace ; font-size: 16px&quot;&gt;&amp;nbsp;&lt;/span&gt;&lt;span style=&quot;font-family: &amp;#34;consolas&amp;#34; , &amp;#34;courier new&amp;#34; , monospace ; font-size: 16px ; color: rgb(78 , 201 , 176)&quot;&gt;Person&lt;/span&gt;&lt;span style=&quot;background-color: rgb(30 , 30 , 30) ; color: rgb(212 , 212 , 212) ; font-family: &amp;#34;consolas&amp;#34; , &amp;#34;courier new&amp;#34; , monospace ; font-size: 16px&quot;&gt;()&lt;/span&gt;&lt;div style=&quot;color: rgb(212 , 212 , 212) ; font-family: &amp;#34;consolas&amp;#34; , &amp;#34;courier new&amp;#34; , monospace ; font-size: 16px ; background-color: rgb(30 , 30 , 30)&quot;&gt;&lt;span style=&quot;color: rgb(78 , 201 , 176)&quot;&gt;Student&lt;/span&gt;.&lt;span style=&quot;color: rgb(156 , 220 , 254)&quot;&gt;prototype&lt;/span&gt;&amp;nbsp;=&amp;nbsp;&lt;span style=&quot;color: rgb(156 , 220 , 254)&quot;&gt;p&lt;/span&gt;&lt;/div&gt;" style="text;html=1;align=left;verticalAlign=middle;resizable=0;points=[];autosize=1;strokeColor=none;fillColor=none;" vertex="1" parent="1">
                    <mxGeometry x="550" y="480" width="270" height="50" as="geometry"/>
                </mxCell>
            </root>
        </mxGraphModel>
    </diagram>
</mxfile>